<svg width="81" height="80" viewBox="0 0 81 80" fill="none" xmlns="http://www.w3.org/2000/svg">
<g filter="url(#filter0_i_1721_1676)">
<ellipse cx="40.4326" cy="42" rx="32" ry="34" fill="#C9C9C9"/>
</g>
<g filter="url(#filter1_i_1721_1676)">
<ellipse cx="40.5" cy="38" rx="24" ry="22" fill="#717171" fill-opacity="0.2"/>
</g>
<path d="M33.7659 48L33.7979 45.536L39.2699 40.256C40.1019 39.4453 40.7739 38.7413 41.2859 38.144C41.8192 37.5467 42.2139 36.9813 42.4699 36.448C42.7472 35.9147 42.8859 35.3493 42.8859 34.752C42.8859 34.0267 42.6832 33.4187 42.2779 32.928C41.8725 32.416 41.2112 32.16 40.2939 32.16C39.3765 32.16 38.6619 32.448 38.1499 33.024C37.6379 33.5787 37.3819 34.3253 37.3819 35.264C37.3819 35.5413 37.4032 35.84 37.4459 36.16C37.4885 36.4587 37.5419 36.7787 37.6059 37.12H34.1819C34.0965 36.7787 34.0219 36.4267 33.9579 36.064C33.8939 35.7013 33.8619 35.3493 33.8619 35.008C33.8619 33.9413 34.1179 32.9813 34.6299 32.128C35.1419 31.2747 35.8992 30.6027 36.9019 30.112C37.9259 29.6213 39.1632 29.376 40.6139 29.376C42.5552 29.376 44.0699 29.8347 45.1579 30.752C46.2459 31.648 46.7899 32.832 46.7899 34.304C46.7899 35.1787 46.5979 36.0107 46.2139 36.8C45.8299 37.5893 45.2432 38.4107 44.4539 39.264C43.6859 40.096 42.7259 41.0453 41.5739 42.112L37.0619 46.464L36.4539 45.344H44.2299V42.304H46.9499V48H33.7659Z" fill="#2B2C2C"/>
<defs>
<filter id="filter0_i_1721_1676" x="8.43262" y="8" width="64" height="68" filterUnits="userSpaceOnUse" color-interpolation-filters="sRGB">
<feFlood flood-opacity="0" result="BackgroundImageFix"/>
<feBlend mode="normal" in="SourceGraphic" in2="BackgroundImageFix" result="shape"/>
<feColorMatrix in="SourceAlpha" type="matrix" values="0 0 0 0 0 0 0 0 0 0 0 0 0 0 0 0 0 0 127 0" result="hardAlpha"/>
<feOffset dy="-8"/>
<feComposite in2="hardAlpha" operator="arithmetic" k2="-1" k3="1"/>
<feColorMatrix type="matrix" values="0 0 0 0 0 0 0 0 0 0 0 0 0 0 0 0 0 0 0.25 0"/>
<feBlend mode="normal" in2="shape" result="effect1_innerShadow_1721_1676"/>
</filter>
<filter id="filter1_i_1721_1676" x="16.5" y="16" width="48" height="44" filterUnits="userSpaceOnUse" color-interpolation-filters="sRGB">
<feFlood flood-opacity="0" result="BackgroundImageFix"/>
<feBlend mode="normal" in="SourceGraphic" in2="BackgroundImageFix" result="shape"/>
<feColorMatrix in="SourceAlpha" type="matrix" values="0 0 0 0 0 0 0 0 0 0 0 0 0 0 0 0 0 0 127 0" result="hardAlpha"/>
<feOffset dy="4"/>
<feComposite in2="hardAlpha" operator="arithmetic" k2="-1" k3="1"/>
<feColorMatrix type="matrix" values="0 0 0 0 0 0 0 0 0 0 0 0 0 0 0 0 0 0 0.25 0"/>
<feBlend mode="normal" in2="shape" result="effect1_innerShadow_1721_1676"/>
</filter>
</defs>
</svg>
