<svg width="81" height="80" viewBox="0 0 81 80" fill="none" xmlns="http://www.w3.org/2000/svg">
<g filter="url(#filter0_i_1721_1645)">
<ellipse cx="40.4326" cy="42" rx="32" ry="34" fill="#D39E5C"/>
</g>
<g filter="url(#filter1_i_1721_1645)">
<ellipse cx="40.5" cy="38" rx="24" ry="22" fill="#9E7745" fill-opacity="0.6"/>
</g>
<path d="M40.4614 48.32C38.5627 48.32 36.9947 47.9253 35.7574 47.136C34.5414 46.3467 33.6454 45.2373 33.0694 43.808L36.2054 42.432C36.5894 43.4133 37.1334 44.16 37.8374 44.672C38.5414 45.1627 39.3627 45.408 40.3014 45.408C41.24 45.408 41.9867 45.1733 42.5414 44.704C43.1174 44.2347 43.4054 43.5947 43.4054 42.784C43.4054 41.7813 43.0427 41.0347 42.3174 40.544C41.6134 40.032 40.504 39.776 38.9894 39.776V37.408C40.3334 37.408 41.368 37.1733 42.0934 36.704C42.8187 36.2133 43.1814 35.5093 43.1814 34.592C43.1814 33.8667 42.9467 33.2907 42.4774 32.864C42.008 32.4373 41.3147 32.224 40.3974 32.224C39.48 32.224 38.712 32.4907 38.0934 33.024C37.4747 33.536 37.048 34.2507 36.8134 35.168L33.5494 33.984C33.848 32.96 34.328 32.1067 34.9894 31.424C35.672 30.7413 36.4934 30.2293 37.4534 29.888C38.4347 29.5467 39.512 29.376 40.6854 29.376C42.712 29.376 44.2694 29.824 45.3574 30.72C46.4667 31.616 47.0214 32.7787 47.0214 34.208C47.0214 35.0613 46.8187 35.808 46.4134 36.448C46.008 37.088 45.4534 37.6107 44.7494 38.016C44.0454 38.4 43.2454 38.6347 42.3494 38.72V38.208C43.8 38.3147 45.0054 38.784 45.9654 39.616C46.9467 40.4267 47.4374 41.5573 47.4374 43.008C47.4374 44.1173 47.1494 45.0773 46.5734 45.888C45.9974 46.6773 45.1867 47.2853 44.1414 47.712C43.096 48.1173 41.8694 48.32 40.4614 48.32Z" fill="#2B2C2C"/>
<defs>
<filter id="filter0_i_1721_1645" x="8.43262" y="8" width="64" height="68" filterUnits="userSpaceOnUse" color-interpolation-filters="sRGB">
<feFlood flood-opacity="0" result="BackgroundImageFix"/>
<feBlend mode="normal" in="SourceGraphic" in2="BackgroundImageFix" result="shape"/>
<feColorMatrix in="SourceAlpha" type="matrix" values="0 0 0 0 0 0 0 0 0 0 0 0 0 0 0 0 0 0 127 0" result="hardAlpha"/>
<feOffset dy="-8"/>
<feComposite in2="hardAlpha" operator="arithmetic" k2="-1" k3="1"/>
<feColorMatrix type="matrix" values="0 0 0 0 0 0 0 0 0 0 0 0 0 0 0 0 0 0 0.25 0"/>
<feBlend mode="normal" in2="shape" result="effect1_innerShadow_1721_1645"/>
</filter>
<filter id="filter1_i_1721_1645" x="16.5" y="16" width="48" height="44" filterUnits="userSpaceOnUse" color-interpolation-filters="sRGB">
<feFlood flood-opacity="0" result="BackgroundImageFix"/>
<feBlend mode="normal" in="SourceGraphic" in2="BackgroundImageFix" result="shape"/>
<feColorMatrix in="SourceAlpha" type="matrix" values="0 0 0 0 0 0 0 0 0 0 0 0 0 0 0 0 0 0 127 0" result="hardAlpha"/>
<feOffset dy="4"/>
<feComposite in2="hardAlpha" operator="arithmetic" k2="-1" k3="1"/>
<feColorMatrix type="matrix" values="0 0 0 0 0 0 0 0 0 0 0 0 0 0 0 0 0 0 0.25 0"/>
<feBlend mode="normal" in2="shape" result="effect1_innerShadow_1721_1645"/>
</filter>
</defs>
</svg>
