<?xml version="1.0" encoding="UTF-8"?>
<svg id="Layer_1" data-name="Layer 1" xmlns="http://www.w3.org/2000/svg" viewBox="0 0 1678.67 948.29">
  <defs>
    <style>
      .cls-1 {
        fill: none;
      }

      .cls-1, .cls-2, .cls-3, .cls-4, .cls-5, .cls-6, .cls-7, .cls-8 {
        stroke-width: 0px;
      }

      .cls-9 {
        opacity: .1;
      }

      .cls-10, .cls-11, .cls-12, .cls-13, .cls-14 {
        stroke: #2c2d2c;
        stroke-miterlimit: 10;
      }

      .cls-11 {
        stroke-width: 1.5px;
      }

      .cls-12 {
        fill: #446d5c;
      }

      .cls-12, .cls-13, .cls-14 {
        stroke-width: 8px;
      }

      .cls-13 {
        fill: #faf6c8;
      }

      .cls-14 {
        fill: #f7f5c9;
      }

      .cls-3 {
        fill: #2c2d2c;
      }

      .cls-4 {
        fill: #87c8b1;
      }

      .cls-5 {
        fill: #0b9059;
      }

      .cls-6 {
        fill: #20150b;
      }

      .cls-7 {
        fill: #dc242f;
      }

      .cls-8 {
        fill: #fff;
      }
    </style>
  </defs>
  <rect class="cls-5" x="-4.52" y="-157.13" width="1689.6" height="1297.83"/>
  <g class="cls-9">
    <polyline class="cls-3" points="-33.79 510 207.73 466.12 326.34 308.69 500.31 269.23 597.83 292.84 607.06 357.35 756.62 402.83 874.25 363.78 972.74 412.65 1218.37 419.55 1366.12 207.77 1572.96 220.76 1685.62 175.12 1676.39 454.22 1550.8 486.1 1544.36 560.73 1439.99 664.27 1513.11 748.02 1383.18 741.39 1283.31 650.02 1117.77 730.94 933.9 652.25 884.09 577.21 815.59 543.17 647.69 551.95 518.41 480.47 378.05 518.78 318.95 816.13 14.22 991.82 -74.42 839.08"/>
    <polyline class="cls-3" points="83.8 978.69 350.37 843.43 406.51 681.77 539.81 666.74 703.96 759.46 854.97 745.31 1026.83 787.58 1084.06 1011.42"/>
    <polyline class="cls-3" points="1130.75 1045.82 1062.08 772.18 1122.43 772.18 1267.52 696.73 1363.14 778.02 1497.71 778.02 1699.91 984.8 1392.66 1086.49"/>
    <polyline class="cls-3" points="452.79 -22.86 539.81 227.54 619.83 255.07 643.53 313.49 773.87 367.59 876.22 313.49 971.02 367.78 1109.2 381.48 1206.3 394.38 1295.72 227.54 1214.48 202.4 1044.77 242.69 796.5 181.97 639.22 -25"/>
    <polyline class="cls-3" points="-25.04 471.54 169.64 433.23 281.43 274.17 416.81 241 480.88 150.64 402.51 -6.66 99.1 -85.2 -134.35 -59.02"/>
    <path class="cls-3" d="m1755.67,449.3c-6.84,3.2-178.14,70.1-178.14,70.1l-11.78,62.15-69.12,76.52,34.25,57.64,175.17,168.47"/>
    <polyline class="cls-3" points="1699.91 119.26 1550.86 185.21 1246.5 152.24 1104.36 202.4 848.11 143.75 630.54 -49.6 1699.91 -68.69"/>
    <polyline class="cls-3" points="407.92 652.25 529.75 632.96 583.93 638.24 701.34 725.7 799.14 716.59 742.52 679.33 773.87 617.92 823.17 587.21 807.12 569.33 630.54 575.22 507.44 510 417.23 536.35"/>
    <polygon class="cls-3" points="854.97 604.91 799.1 638.24 783.74 666.74 854.97 716.59 1001.7 759.46 1084.06 748.02 885.73 666.74 854.97 604.91"/>
  </g>
  <path class="cls-4" d="m1537.22,226.59c-1.67-3.64-4.66-6.41-8.42-7.8-3.76-1.39-7.83-1.24-11.47.44-49.03,22.53-78.6,18.12-104.69,14.23-22.05-3.29-44.84-6.68-71.98,7.69-16,8.47-26.27,23.45-30.55,44.51-3.02,14.88-2.97,32.96.14,53.73,4.67,31.14,14.64,58.63,16.85,64.49l12.16,46.77c.06.24.13.48.21.72,6.1,19.41,18.88,81.17-1.62,109.32-1.14,1.53-2.21,2.97-3.23,4.34l-.11.15c-6.21,8.35-10.69,14.38-13.14,16.17-.37.27-1.01.73-7.35.66-3.27-.04-10.83-7.98-18.84-16.38-9.15-9.61-21.69-22.78-39.94-37.93-40.15-33.35-81.83-28.34-112.26-24.69-5.03.6-9.79,1.18-13.97,1.48-31.73,2.32-69.69,16.9-86.41,33.2l-.33.33c-13.46,13.12-17.08,16.64-30.33,8.81-10.31-6.09-8.74-22.99-2.54-50.13l.07-.31c.35-1.52.68-2.99,1-4.41l.57-2.54c2.55-11.35,4.75-21.15-2.19-30.14-5.45-7.08-13.77-9.81-28.87-14.77l-2.43-.8c-34.34-11.31-49.42-9.36-58.71-6.41-6.41,2.04-19.44,7.99-34.55,14.89l-.16.07c-5.73,2.62-11.65,5.32-17.42,7.91-13.64,6.11-34.97,1.8-60.08-12.15-20.9-11.61-28.86-12.52-40.8-9.26-1.73.47-3.22.88-5.2,1.09-8.75.95-21.82,2.88-33.36,4.58l.73,4.95h0l-.86-4.93c-6.08.9-11.33,1.68-14.95,2.16-3.43.46-4.89.54-5.7.41-1.25-3.23-3.19-10.63-4.32-14.94-.68-2.58-1.39-5.3-2.16-8.12-3.07-11.25-5.2-14.95-10.04-20.38-1.49-1.67-3.18-3.55-5.99-7.88-10.83-16.67-22.86-17.73-32.53-18.58-2.63-.23-5.36-.47-8.27-1.04-6.71-1.31-18.05-2.72-30.06-4.21-8.05-1-23.38-2.9-29.92-4.12-.26-1.48-.68-3.3-1.55-5.19-.09-.91-.19-2.8-.2-6.75.36-3.62,4.95-22.65,7.48-30.96,3.82-12.54.86-33.15-12.62-38.2-2.99-1.12-7.39-1.97-18.28-3.79-1.81-.3-3.5-.58-4.88-.83-10.65-1.88-18.46,4.5-26.75,11.28-3.48,2.84-7.81,6.38-13.14,10.15-2.13,1.5-4.63,3.23-7.49,5.2l-.1.07c-18.79,12.96-53.76,37.08-94.03,74.85-31.68,29.72-34.58,39.09-38.13,57.45-1.53,7.91-3.43,17.76-10.37,34.75-19.65,48.14-71.04,108.22-73.7,111.31-2.42,2.69-110.23,121.75-172.81,137.29-3.89.97-7.17,3.39-9.23,6.82-2.07,3.43-2.67,7.46-1.71,11.35,1.67,6.7,7.65,11.39,14.55,11.39,1.22,0,2.44-.15,3.62-.44,72.56-18.02,183.34-141.26,188.02-146.5l.16-.18c2.32-2.67,57-66.09,78.88-119.71,8.05-19.73,10.36-31.67,12.05-40.39,2.45-12.68,3.28-16.95,29.2-41.27,38.63-36.23,72.4-59.52,90.54-72.03,3-2.07,5.63-3.89,7.86-5.46,6.2-4.38,10.98-8.29,14.85-11.45,1.58-1.29,3.96-3.23,5.57-4.41.68.11,1.38.23,2.11.35,1.95.33,4.78.8,7.36,1.26.03.93-.05,1.78-.24,2.4-.85,2.81-8.78,31.27-8.78,39.35,0,7.36.18,13.44,2.34,18.46.67,4.5,2.8,16.55,16.64,21.47,5.81,2.07,17.98,3.64,38.98,6.25,10.97,1.36,22.32,2.77,28.01,3.88,4.45.87,8.13,1.19,11.38,1.48q7.14.63,10.01,5.05c4.06,6.24,6.89,9.41,8.76,11.51,1.55,1.74,1.75,1.96,3.48,8.29.73,2.69,1.41,5.29,2.06,7.75l.04.14c4.09,15.6,6.79,25.91,15.01,31.39,7.42,4.94,13.78,7.11,27.97,5.21,3.82-.51,9.17-1.3,15.36-2.21l.13-.02c10.71-1.58,24.04-3.55,32.21-4.44,4.36-.47,7.55-1.34,9.89-1.98,2.92-.8,4.39-1.2,18.32,6.54,43.03,23.91,71.02,20.43,86.92,13.3,5.95-2.67,11.96-5.41,17.77-8.07,12.42-5.67,26.49-12.1,31.18-13.59,7.11-2.26,20.65-.13,40.24,6.32l2.45.81c4.38,1.44,9.18,3.02,12.36,4.24-.36,1.79-.83,3.87-1.22,5.6l-.58,2.59c-.31,1.4-.64,2.85-.98,4.34l-.05.22c-2.68,11.73-6.01,26.32-5.67,40.41.48,19.6,7.94,33.81,22.19,42.23,33.02,19.51,52.39.63,66.53-13.15l.33-.33c10.4-10.13,40.74-22.79,67.66-24.76,4.87-.36,9.95-.97,15.37-1.62,26.42-3.17,59.29-7.11,89.51,17.98,16.9,14.04,28.25,25.96,37.38,35.54,14.11,14.82,24.3,25.52,40.25,25.69,23.19.22,28.67-7.12,44.89-28.94l3.43-4.6c32.75-44.84,9.19-126.02,6.21-135.71l-12.28-47.24c-.15-.56-.32-1.12-.54-1.66-.11-.28-10.87-28.25-15.47-58.93-3.77-25.12-4.26-57.19,14.78-67.27,18.42-9.76,33.14-7.56,53.51-4.53,28.73,4.28,64.49,9.61,121.63-16.65,7.51-3.45,10.82-12.38,7.37-19.89Z"/>
  <g>
    <polygon class="cls-8" points="1354.79 405.8 1352.38 409.9 1342.7 404.22 1337.02 413.89 1332.91 411.48 1341.01 397.7 1354.79 405.8"/>
    <polygon class="cls-8" points="1360.47 427.67 1358.06 431.77 1348.39 426.09 1342.7 435.77 1338.6 433.36 1346.69 419.57 1360.47 427.67"/>
    <polygon class="cls-8" points="1366.22 449.22 1363.92 453.39 1354.1 447.96 1348.67 457.77 1344.5 455.47 1352.24 441.49 1366.22 449.22"/>
    <polygon class="cls-8" points="1371.24 472.37 1368.54 476.29 1359.29 469.94 1352.94 479.19 1349.02 476.49 1358.07 463.32 1371.24 472.37"/>
    <polygon class="cls-8" points="1374.35 495.64 1371.36 499.34 1362.64 492.27 1355.57 500.99 1351.88 497.99 1361.94 485.58 1374.35 495.64"/>
    <polygon class="cls-8" points="1375.04 519.49 1371.64 522.82 1363.78 514.81 1355.77 522.66 1352.44 519.26 1363.85 508.07 1375.04 519.49"/>
    <polygon class="cls-8" points="1372.12 543.8 1368.19 546.49 1361.84 537.24 1352.59 543.59 1349.9 539.66 1363.07 530.62 1372.12 543.8"/>
    <polygon class="cls-8" points="1363.41 567.71 1358.91 569.26 1355.26 558.65 1344.65 562.3 1343.1 557.8 1358.21 552.6 1363.41 567.71"/>
    <polygon class="cls-8" points="1349.94 588.37 1345.23 589.04 1343.66 577.93 1332.55 579.5 1331.88 574.78 1347.7 572.54 1349.94 588.37"/>
    <polygon class="cls-8" points="1329.17 606.32 1324.67 604.78 1328.3 594.16 1317.68 590.53 1319.22 586.03 1334.34 591.2 1329.17 606.32"/>
    <polygon class="cls-8" points="1298.55 603.53 1296.52 599.22 1306.67 594.43 1301.88 584.29 1306.19 582.25 1313.01 596.71 1298.55 603.53"/>
    <polygon class="cls-8" points="1277.85 585.77 1277.77 581.01 1288.99 580.84 1288.82 569.62 1293.58 569.55 1293.83 585.53 1277.85 585.77"/>
    <polygon class="cls-8" points="1261.97 569.18 1262.05 564.42 1273.27 564.61 1273.46 553.39 1278.22 553.47 1277.95 569.45 1261.97 569.18"/>
    <polygon class="cls-8" points="1245.68 554.55 1245.46 549.8 1256.67 549.27 1256.15 538.07 1260.91 537.84 1261.65 553.81 1245.68 554.55"/>
    <polygon class="cls-8" points="1229.29 542.42 1228.19 537.79 1239.1 535.2 1236.51 524.28 1241.14 523.18 1244.84 538.73 1229.29 542.42"/>
    <polygon class="cls-8" points="1212.37 533.17 1210.02 529.02 1219.79 523.5 1214.27 513.73 1218.42 511.39 1226.28 525.31 1212.37 533.17"/>
    <polygon class="cls-8" points="1190.59 527.11 1188.25 522.97 1198.02 517.45 1192.5 507.68 1196.64 505.34 1204.51 519.25 1190.59 527.11"/>
    <polygon class="cls-8" points="1170.43 526.79 1167.23 523.27 1175.55 515.73 1168.01 507.42 1171.54 504.22 1182.27 516.06 1170.43 526.79"/>
    <polygon class="cls-8" points="1149.4 528.69 1145.77 525.62 1153.01 517.05 1144.45 509.8 1147.52 506.17 1159.72 516.49 1149.4 528.69"/>
    <polygon class="cls-8" points="1127.65 531.23 1123.83 528.38 1130.54 519.38 1121.54 512.68 1124.38 508.86 1137.2 518.41 1127.65 531.23"/>
    <polygon class="cls-8" points="1105.85 535.38 1101.93 532.68 1108.3 523.45 1099.07 517.07 1101.77 513.16 1114.93 522.23 1105.85 535.38"/>
    <polygon class="cls-8" points="1086.53 542.25 1082.19 540.3 1086.78 530.06 1076.55 525.46 1078.5 521.12 1093.08 527.67 1086.53 542.25"/>
    <polygon class="cls-8" points="1068.85 551.52 1064.18 550.57 1066.42 539.58 1055.43 537.34 1056.38 532.68 1072.04 535.86 1068.85 551.52"/>
    <polygon class="cls-8" points="1052.53 564.28 1047.78 564.09 1048.23 552.88 1037.01 552.43 1037.21 547.67 1053.17 548.32 1052.53 564.28"/>
    <polygon class="cls-8" points="1026.09 576.33 1022.38 573.36 1029.38 564.6 1020.62 557.59 1023.59 553.87 1036.07 563.85 1026.09 576.33"/>
    <polygon class="cls-8" points="999.39 569.95 997.45 565.61 1007.7 561.03 1003.12 550.79 1007.47 548.84 1013.99 563.44 999.39 569.95"/>
    <polygon class="cls-8" points="980.43 542.47 983.22 538.61 992.31 545.19 998.88 536.09 1002.74 538.88 993.38 551.83 980.43 542.47"/>
    <polygon class="cls-8" points="979.27 517.01 983 514.05 989.97 522.84 998.76 515.87 1001.72 519.6 989.2 529.53 979.27 517.01"/>
    <polygon class="cls-8" points="983.17 493.64 987.17 491.06 993.24 500.51 1002.68 494.44 1005.25 498.45 991.81 507.08 983.17 493.64"/>
    <polygon class="cls-8" points="987.69 471.69 991.65 469.05 997.88 478.39 1007.21 472.16 1009.85 476.12 996.55 484.99 987.69 471.69"/>
    <polygon class="cls-8" points="978.06 471.71 975.98 467.43 986.07 462.52 981.16 452.43 985.44 450.35 992.43 464.72 978.06 471.71"/>
    <polygon class="cls-8" points="957.19 465.45 954.81 461.33 964.53 455.72 958.92 446 963.05 443.62 971.03 457.47 957.19 465.45"/>
    <polygon class="cls-8" points="936.89 461.73 933.86 458.06 942.51 450.91 935.37 442.26 939.04 439.23 949.22 451.55 936.89 461.73"/>
    <polygon class="cls-8" points="920.3 465.01 915.92 463.14 920.32 452.82 910 448.42 911.86 444.04 926.56 450.31 920.3 465.01"/>
    <polygon class="cls-8" points="900.03 473.92 895.58 472.23 899.56 461.74 889.06 457.76 890.75 453.31 905.7 458.98 900.03 473.92"/>
    <polygon class="cls-8" points="879.49 483.25 875.03 481.57 878.97 471.07 868.47 467.13 870.14 462.67 885.1 468.28 879.49 483.25"/>
    <polygon class="cls-8" points="854.65 488.5 850.76 485.76 857.21 476.58 848.03 470.13 850.77 466.23 863.84 475.42 854.65 488.5"/>
    <polygon class="cls-8" points="828.32 484.92 825.68 480.96 835.02 474.73 828.79 465.4 832.75 462.75 841.62 476.05 828.32 484.92"/>
    <polygon class="cls-8" points="804.91 476.04 803.22 471.59 813.72 467.61 809.74 457.12 814.19 455.43 819.85 470.38 804.91 476.04"/>
    <polygon class="cls-8" points="784.14 466.31 782.59 461.81 793.2 458.15 789.54 447.54 794.04 445.99 799.25 461.1 784.14 466.31"/>
    <polygon class="cls-8" points="769.23 464.77 765.34 462.03 771.82 452.86 762.66 446.39 765.41 442.5 778.46 451.73 769.23 464.77"/>
    <polygon class="cls-8" points="746.43 468.21 742.66 465.3 749.52 456.42 740.63 449.56 743.54 445.79 756.19 455.55 746.43 468.21"/>
    <polygon class="cls-8" points="724.23 471.45 720.42 468.6 727.14 459.62 718.16 452.9 721.01 449.09 733.81 458.66 724.23 471.45"/>
    <polygon class="cls-8" points="700.29 473.01 696.87 469.7 704.68 461.64 696.62 453.83 699.93 450.41 711.41 461.53 700.29 473.01"/>
    <polygon class="cls-8" points="678.44 444.86 680.8 440.73 690.54 446.3 696.12 436.57 700.25 438.93 692.31 452.8 678.44 444.86"/>
    <polygon class="cls-8" points="672.19 424 674.25 419.71 684.37 424.57 689.23 414.46 693.52 416.52 686.6 430.92 672.19 424"/>
    <polygon class="cls-8" points="660.86 408.66 661.53 403.95 672.64 405.53 674.22 394.42 678.93 395.09 676.68 410.91 660.86 408.66"/>
    <polygon class="cls-8" points="647.63 402.66 645.22 398.55 654.89 392.87 649.21 383.19 653.32 380.78 661.41 394.56 647.63 402.66"/>
    <polygon class="cls-8" points="626.34 400.13 623.51 396.3 632.54 389.64 625.88 380.61 629.71 377.78 639.2 390.64 626.34 400.13"/>
    <polygon class="cls-8" points="604.2 397.27 601.28 393.52 610.14 386.63 603.26 377.77 607.02 374.85 616.82 387.47 604.2 397.27"/>
    <polygon class="cls-8" points="581.71 394.26 578.82 390.48 587.74 383.67 580.93 374.75 584.71 371.86 594.41 384.56 581.71 394.26"/>
    <polygon class="cls-8" points="557.08 372.89 559.28 368.67 569.23 373.86 574.42 363.91 578.64 366.11 571.25 380.28 557.08 372.89"/>
    <polygon class="cls-8" points="556.73 345.22 560.62 342.47 567.11 351.62 576.26 345.13 579.01 349.01 565.98 358.26 556.73 345.22"/>
    <polygon class="cls-8" points="562.4 322.21 566.53 319.85 572.09 329.59 581.84 324.03 584.2 328.16 570.32 336.08 562.4 322.21"/>
    <polygon class="cls-8" points="562.4 305.4 564.98 301.39 574.41 307.47 580.48 298.03 584.49 300.61 575.84 314.05 562.4 305.4"/>
    <polygon class="cls-8" points="550.05 308.19 547.29 304.31 556.44 297.81 549.95 288.66 553.83 285.91 563.08 298.94 550.05 308.19"/>
    <polygon class="cls-8" points="539.5 316.45 534.78 315.83 536.24 304.71 525.11 303.25 525.73 298.53 541.58 300.61 539.5 316.45"/>
    <polygon class="cls-8" points="520.88 330.19 516.19 329.35 518.19 318.31 507.15 316.31 508 311.62 523.72 314.47 520.88 330.19"/>
    <polygon class="cls-8" points="502.6 343.14 497.9 342.37 499.7 331.3 488.62 329.5 489.39 324.8 505.16 327.36 502.6 343.14"/>
    <polygon class="cls-8" points="484.82 356.28 480.09 355.72 481.42 344.58 470.27 343.25 470.83 338.53 486.7 340.41 484.82 356.28"/>
    <polygon class="cls-8" points="467.06 370.26 462.34 369.7 463.66 358.56 452.52 357.24 453.08 352.51 468.95 354.4 467.06 370.26"/>
    <polygon class="cls-8" points="450.35 384.51 445.6 384.21 446.3 373.01 435.1 372.31 435.4 367.56 451.35 368.56 450.35 384.51"/>
    <polygon class="cls-8" points="433.4 399.46 428.65 399.16 429.35 387.96 418.15 387.26 418.45 382.51 434.4 383.51 433.4 399.46"/>
    <polygon class="cls-8" points="417.7 414.71 412.95 414.71 412.95 403.49 401.72 403.49 401.72 398.73 417.71 398.73 417.7 414.71"/>
    <polygon class="cls-8" points="404.11 430.86 399.39 431.47 397.95 420.34 386.83 421.78 386.22 417.06 402.07 415.01 404.11 430.86"/>
    <polygon class="cls-8" points="399.02 447.66 395.02 450.23 388.97 440.77 379.52 446.82 376.95 442.82 390.41 434.2 399.02 447.66"/>
    <polygon class="cls-8" points="392.75 470.75 388.46 472.82 383.59 462.71 373.48 467.58 371.42 463.29 385.81 456.36 392.75 470.75"/>
    <polygon class="cls-8" points="383.97 492.99 379.47 494.53 375.83 483.92 365.22 487.56 363.67 483.05 378.79 477.87 383.97 492.99"/>
    <polygon class="cls-8" points="374.04 513.29 369.54 514.83 365.9 504.22 355.28 507.86 353.74 503.35 368.86 498.17 374.04 513.29"/>
    <polygon class="cls-8" points="361.7 533.48 357.07 534.6 354.45 523.69 343.54 526.31 342.42 521.68 357.96 517.94 361.7 533.48"/>
    <polygon class="cls-8" points="348.8 552.85 344.11 553.68 342.15 542.63 331.1 544.6 330.27 539.91 346 537.11 348.8 552.85"/>
    <polygon class="cls-8" points="335.33 571.57 330.62 572.21 329.11 561.09 317.99 562.6 317.35 557.88 333.19 555.73 335.33 571.57"/>
    <polygon class="cls-8" points="321.32 589.72 316.58 590.22 315.41 579.06 304.25 580.24 303.75 575.5 319.64 573.83 321.32 589.72"/>
    <polygon class="cls-8" points="306.78 607.33 302.04 607.73 301.09 596.55 289.91 597.49 289.51 592.75 305.44 591.41 306.78 607.33"/>
  </g>
  <circle class="cls-4" cx="1335.63" cy="380.59" r="11.85"/>
  <g>
    <path class="cls-8" d="m332.46,276.82h5.66l3.91,11.09h.05l3.94-11.09h5.64v16.99h-3.74v-13.03h-.05l-4.46,13.03h-2.86l-4.3-13.03h-.05v13.03h-3.74v-16.99Z"/>
    <path class="cls-8" d="m360.7,276.82h3.1l7.39,16.99h-4.22l-1.46-3.6h-6.6l-1.42,3.6h-4.13l7.34-16.99Zm1.44,4.94l-2.06,5.28h4.15l-2.09-5.28Z"/>
    <path class="cls-8" d="m373.98,280.13h-4.85v-3.31h13.44v3.31h-4.85v13.68h-3.74v-13.68Z"/>
    <path class="cls-8" d="m384.61,276.82h3.74v13.54h6.94v3.46h-10.68v-16.99Z"/>
    <path class="cls-8" d="m396.44,285.32c0-1.36.23-2.59.68-3.7s1.09-2.04,1.91-2.82c.82-.78,1.78-1.37,2.9-1.79,1.12-.42,2.34-.62,3.67-.62s2.55.21,3.67.62,2.09,1.01,2.9,1.79c.82.78,1.45,1.72,1.91,2.82.46,1.1.68,2.34.68,3.7s-.23,2.59-.68,3.7c-.46,1.1-1.09,2.04-1.91,2.82-.82.78-1.78,1.37-2.9,1.79-1.12.42-2.34.62-3.67.62s-2.55-.21-3.67-.62c-1.12-.42-2.09-1.01-2.9-1.79-.82-.78-1.45-1.72-1.91-2.82s-.68-2.34-.68-3.7Zm3.89,0c0,.8.12,1.53.37,2.2.25.66.6,1.24,1.07,1.73.46.49,1.02.87,1.67,1.14.65.27,1.37.41,2.17.41s1.52-.14,2.17-.41c.65-.27,1.2-.65,1.67-1.14.46-.49.82-1.06,1.07-1.73.25-.66.37-1.4.37-2.2s-.12-1.51-.37-2.18c-.25-.67-.6-1.25-1.07-1.74-.46-.49-1.02-.87-1.67-1.14-.65-.27-1.37-.41-2.17-.41s-1.52.14-2.17.41c-.65.27-1.2.65-1.67,1.14-.46.49-.82,1.07-1.07,1.74-.25.67-.37,1.4-.37,2.18Z"/>
    <path class="cls-8" d="m428.43,281.24c-.37-.45-.82-.79-1.36-1.03-.54-.24-1.16-.36-1.86-.36s-1.36.14-1.96.41c-.6.27-1.12.65-1.56,1.14-.44.49-.78,1.07-1.03,1.74-.25.67-.37,1.4-.37,2.18s.12,1.53.37,2.2c.25.66.59,1.24,1.02,1.73.43.49.94.87,1.52,1.14.58.27,1.21.41,1.88.41.77,0,1.45-.16,2.04-.48.59-.32,1.08-.77,1.46-1.34l3.12,2.33c-.72,1.01-1.63,1.75-2.74,2.23s-2.24.72-3.41.72c-1.33,0-2.55-.21-3.67-.62-1.12-.42-2.09-1.01-2.9-1.79-.82-.78-1.45-1.72-1.91-2.82s-.68-2.34-.68-3.7.23-2.59.68-3.7,1.09-2.04,1.91-2.82c.82-.78,1.78-1.37,2.9-1.79,1.12-.42,2.34-.62,3.67-.62.48,0,.98.04,1.5.13s1.03.23,1.54.42.99.45,1.45.77c.46.32.88.71,1.25,1.18l-2.88,2.35Z"/>
    <path class="cls-8" d="m433.9,276.82h3.74v7.06l6.6-7.06h4.9l-7.56,7.9,8.21,9.1h-5.23l-6.91-8.06v8.06h-3.74v-16.99Z"/>
  </g>
  <g>
    <path class="cls-8" d="m725.87,351.68h5.66l3.91,11.09h.05l3.94-11.09h5.64v16.99h-3.74v-13.03h-.05l-4.46,13.03h-2.86l-4.3-13.03h-.05v13.03h-3.74v-16.99Z"/>
    <path class="cls-8" d="m754.12,351.68h3.1l7.39,16.99h-4.22l-1.46-3.6h-6.6l-1.42,3.6h-4.13l7.34-16.99Zm1.44,4.94l-2.06,5.28h4.15l-2.09-5.28Z"/>
    <path class="cls-8" d="m767.39,355h-4.85v-3.31h13.44v3.31h-4.85v13.68h-3.74v-13.68Z"/>
    <path class="cls-8" d="m778.02,351.68h3.74v13.54h6.94v3.46h-10.68v-16.99Z"/>
    <path class="cls-8" d="m789.85,360.18c0-1.36.23-2.59.68-3.7s1.09-2.04,1.91-2.82c.82-.78,1.78-1.37,2.9-1.79,1.12-.42,2.34-.62,3.67-.62s2.55.21,3.67.62,2.09,1.01,2.9,1.79c.82.78,1.45,1.72,1.91,2.82.46,1.1.68,2.34.68,3.7s-.23,2.59-.68,3.7c-.46,1.1-1.09,2.04-1.91,2.82-.82.78-1.78,1.37-2.9,1.79-1.12.42-2.34.62-3.67.62s-2.55-.21-3.67-.62c-1.12-.42-2.09-1.01-2.9-1.79-.82-.78-1.45-1.72-1.91-2.82s-.68-2.34-.68-3.7Zm3.89,0c0,.8.12,1.53.37,2.2.25.66.6,1.24,1.07,1.73.46.49,1.02.87,1.67,1.14.65.27,1.37.41,2.17.41s1.52-.14,2.17-.41c.65-.27,1.2-.65,1.67-1.14.46-.49.82-1.06,1.07-1.73.25-.66.37-1.4.37-2.2s-.12-1.51-.37-2.18c-.25-.67-.6-1.25-1.07-1.74-.46-.49-1.02-.87-1.67-1.14-.65-.27-1.37-.41-2.17-.41s-1.52.14-2.17.41c-.65.27-1.2.65-1.67,1.14-.46.49-.82,1.07-1.07,1.74-.25.67-.37,1.4-.37,2.18Z"/>
    <path class="cls-8" d="m821.85,356.1c-.37-.45-.82-.79-1.36-1.03-.54-.24-1.16-.36-1.86-.36s-1.36.14-1.96.41c-.6.27-1.12.65-1.56,1.14-.44.49-.78,1.07-1.03,1.74-.25.67-.37,1.4-.37,2.18s.12,1.53.37,2.2c.25.66.59,1.24,1.02,1.73.43.49.94.87,1.52,1.14.58.27,1.21.41,1.88.41.77,0,1.45-.16,2.04-.48.59-.32,1.08-.77,1.46-1.34l3.12,2.33c-.72,1.01-1.63,1.75-2.74,2.23s-2.24.72-3.41.72c-1.33,0-2.55-.21-3.67-.62-1.12-.42-2.09-1.01-2.9-1.79-.82-.78-1.45-1.72-1.91-2.82s-.68-2.34-.68-3.7.23-2.59.68-3.7,1.09-2.04,1.91-2.82c.82-.78,1.78-1.37,2.9-1.79,1.12-.42,2.34-.62,3.67-.62.48,0,.98.04,1.5.13s1.03.23,1.54.42.99.45,1.45.77c.46.32.88.71,1.25,1.18l-2.88,2.35Z"/>
    <path class="cls-8" d="m827.32,351.68h3.74v7.06l6.6-7.06h4.9l-7.56,7.9,8.21,9.1h-5.23l-6.91-8.06v8.06h-3.74v-16.99Z"/>
    <path class="cls-8" d="m753.18,380.48h5.62c1.36,0,2.65.15,3.88.46,1.22.3,2.29.8,3.2,1.48.91.68,1.64,1.56,2.17,2.65.54,1.09.8,2.41.8,3.96,0,1.38-.26,2.59-.78,3.64-.52,1.05-1.22,1.93-2.1,2.64-.88.71-1.9,1.25-3.05,1.62-1.15.37-2.36.55-3.62.55h-6.12v-16.99Zm3.74,13.54h1.94c.86,0,1.67-.09,2.41-.26.74-.18,1.39-.47,1.93-.88.54-.41.97-.94,1.28-1.61.31-.66.47-1.48.47-2.44,0-.83-.16-1.56-.47-2.17-.31-.62-.73-1.12-1.26-1.52-.53-.4-1.15-.7-1.86-.9s-1.46-.3-2.24-.3h-2.21v10.08Z"/>
    <path class="cls-8" d="m776.99,380.48h3.1l7.39,16.99h-4.22l-1.46-3.6h-6.6l-1.42,3.6h-4.13l7.34-16.99Zm1.44,4.94l-2.06,5.28h4.15l-2.09-5.28Z"/>
    <path class="cls-8" d="m789.33,380.48h3.74v13.54h6.94v3.46h-10.68v-16.99Z"/>
    <path class="cls-8" d="m802.21,380.48h11.54v3.46h-7.8v3.17h7.37v3.46h-7.37v3.46h8.23v3.46h-11.98v-16.99Z"/>
  </g>
  <g>
    <path class="cls-8" d="m935.93,605.73h5.66l3.91,11.09h.05l3.94-11.09h5.64v16.99h-3.74v-13.03h-.05l-4.46,13.03h-2.86l-4.3-13.03h-.05v13.03h-3.74v-16.99Z"/>
    <path class="cls-8" d="m964.18,605.73h3.1l7.39,16.99h-4.22l-1.46-3.6h-6.6l-1.42,3.6h-4.13l7.34-16.99Zm1.44,4.94l-2.06,5.28h4.15l-2.09-5.28Z"/>
    <path class="cls-8" d="m977.45,609.04h-4.85v-3.31h13.44v3.31h-4.85v13.68h-3.74v-13.68Z"/>
    <path class="cls-8" d="m988.08,605.73h3.74v13.54h6.94v3.46h-10.68v-16.99Z"/>
    <path class="cls-8" d="m999.91,614.22c0-1.36.23-2.59.68-3.7.46-1.1,1.09-2.04,1.91-2.82.82-.78,1.78-1.37,2.9-1.79s2.34-.62,3.67-.62,2.55.21,3.67.62c1.12.42,2.09,1.01,2.9,1.79.82.78,1.45,1.72,1.91,2.82.46,1.1.68,2.34.68,3.7s-.23,2.59-.68,3.7c-.46,1.1-1.09,2.04-1.91,2.82-.82.78-1.78,1.37-2.9,1.79-1.12.42-2.34.62-3.67.62s-2.55-.21-3.67-.62c-1.12-.42-2.09-1.01-2.9-1.79-.82-.78-1.45-1.72-1.91-2.82-.46-1.1-.68-2.34-.68-3.7Zm3.89,0c0,.8.12,1.53.37,2.2s.6,1.24,1.07,1.73c.46.49,1.02.87,1.67,1.14.65.27,1.37.41,2.17.41s1.52-.14,2.17-.41c.65-.27,1.2-.65,1.67-1.14.46-.49.82-1.06,1.07-1.73s.37-1.4.37-2.2-.12-1.51-.37-2.18-.6-1.25-1.07-1.74c-.46-.49-1.02-.87-1.67-1.14-.65-.27-1.37-.41-2.17-.41s-1.52.14-2.17.41c-.65.27-1.2.65-1.67,1.14s-.82,1.07-1.07,1.74-.37,1.4-.37,2.18Z"/>
    <path class="cls-8" d="m1031.9,610.14c-.37-.45-.82-.79-1.36-1.03-.54-.24-1.16-.36-1.86-.36s-1.36.14-1.96.41c-.6.27-1.12.65-1.56,1.14-.44.49-.78,1.07-1.03,1.74s-.37,1.4-.37,2.18.12,1.53.37,2.2.59,1.24,1.02,1.73c.43.49.94.87,1.52,1.14.58.27,1.21.41,1.88.41.77,0,1.45-.16,2.04-.48s1.08-.77,1.46-1.34l3.12,2.33c-.72,1.01-1.63,1.75-2.74,2.23-1.1.48-2.24.72-3.41.72-1.33,0-2.55-.21-3.67-.62-1.12-.42-2.09-1.01-2.9-1.79-.82-.78-1.45-1.72-1.91-2.82-.46-1.1-.68-2.34-.68-3.7s.23-2.59.68-3.7c.46-1.1,1.09-2.04,1.91-2.82.82-.78,1.78-1.37,2.9-1.79s2.34-.62,3.67-.62c.48,0,.98.04,1.5.13.52.09,1.03.23,1.54.42.5.19.99.45,1.45.77.46.32.88.71,1.25,1.18l-2.88,2.35Z"/>
    <path class="cls-8" d="m1037.38,605.73h3.74v7.06l6.6-7.06h4.9l-7.56,7.9,8.21,9.1h-5.23l-6.91-8.06v8.06h-3.74v-16.99Z"/>
    <path class="cls-8" d="m963.68,634.53h6.34c.74,0,1.48.05,2.22.16.74.1,1.41.31,2,.62.59.31,1.07.75,1.44,1.31.37.56.55,1.3.55,2.23s-.27,1.76-.8,2.39c-.54.63-1.24,1.08-2.12,1.36v.05c.56.08,1.07.24,1.52.47.46.23.85.53,1.18.89.33.36.58.78.76,1.26.18.48.26.99.26,1.54,0,.9-.19,1.64-.58,2.24-.38.6-.88,1.08-1.49,1.45-.61.37-1.29.63-2.05.79-.76.16-1.52.24-2.27.24h-6.96v-16.99Zm3.74,6.79h2.71c.29,0,.57-.03.85-.1.28-.06.53-.17.76-.31.22-.14.4-.34.54-.58.14-.24.2-.53.2-.86s-.08-.64-.23-.88c-.15-.23-.35-.41-.59-.54-.24-.13-.51-.22-.82-.28-.3-.06-.6-.08-.89-.08h-2.54v3.62Zm0,7.03h3.36c.29,0,.58-.03.88-.1.3-.06.56-.18.8-.34.24-.16.44-.37.59-.62s.23-.57.23-.94c0-.4-.1-.72-.3-.97-.2-.25-.45-.44-.76-.56-.3-.13-.63-.22-.98-.26-.35-.05-.68-.07-.98-.07h-2.83v3.86Z"/>
    <path class="cls-8" d="m984.83,634.53h3.1l7.39,16.99h-4.22l-1.46-3.6h-6.6l-1.42,3.6h-4.13l7.34-16.99Zm1.44,4.94l-2.06,5.28h4.15l-2.09-5.28Z"/>
    <path class="cls-8" d="m998.1,637.84h-4.85v-3.31h13.44v3.31h-4.85v13.68h-3.74v-13.68Z"/>
    <path class="cls-8" d="m1008.59,634.53h3.74v6.34h7.27v-6.34h3.74v16.99h-3.74v-7.34h-7.27v7.34h-3.74v-16.99Z"/>
  </g>
  <circle class="cls-14" cx="1210.48" cy="487.79" r="8.67"/>
  <line class="cls-14" x1="1210.48" y1="660.21" x2="1210.48" y2="499.31"/>
  <circle class="cls-14" cx="501.73" cy="293" r="8.67"/>
  <line class="cls-14" x1="501.73" y1="284.34" x2="501.73" y2="218.88"/>
  <circle class="cls-14" cx="1062.75" cy="511.86" r="8.67"/>
  <line class="cls-14" x1="1062.75" y1="503.19" x2="1062.75" y2="321.72"/>
  <circle class="cls-14" cx="1312.82" cy="552.27" r="8.67"/>
  <line class="cls-12" x1="1320.96" y1="552.27" x2="1416.31" y2="552.27"/>
  <g>
    <path class="cls-8" d="m1314.38,188.91c-.35-.46-.79-.81-1.33-1.05-.54-.25-1.09-.37-1.66-.37-.7,0-1.33.13-1.9.39s-1.05.62-1.45,1.08c-.4.46-.71.99-.94,1.6s-.33,1.27-.33,1.97c0,.65.11,1.27.32,1.86.21.58.51,1.1.91,1.54.4.44.88.79,1.45,1.05.57.26,1.22.39,1.94.39s1.34-.15,1.87-.44.99-.7,1.37-1.23l1.42,1.07c-.09.13-.26.31-.49.55-.23.24-.54.48-.93.72-.38.24-.85.45-1.39.63-.54.18-1.17.27-1.88.27-.98,0-1.87-.19-2.65-.56s-1.46-.86-2.01-1.47c-.55-.61-.98-1.29-1.27-2.06s-.44-1.54-.44-2.32c0-.96.16-1.84.47-2.65.32-.81.76-1.51,1.32-2.1.57-.59,1.25-1.05,2.04-1.37s1.67-.49,2.63-.49c.82,0,1.62.16,2.41.47.79.31,1.43.8,1.94,1.45l-1.4,1.07Z"/>
    <path class="cls-8" d="m1318.08,186.23h4.36c.79,0,1.45.11,1.96.32.51.22.92.49,1.22.82.3.33.5.71.62,1.12.12.41.17.81.17,1.2s-.07.78-.21,1.15c-.14.37-.34.7-.6,1-.26.3-.58.55-.96.75-.38.2-.8.33-1.27.38l3.52,5.66h-2.1l-3.15-5.46h-1.87v5.46h-1.68v-12.4Zm1.68,5.46h2.21c.33,0,.65-.03.97-.08.32-.05.61-.15.86-.29s.45-.34.6-.6c.15-.26.23-.6.23-1.02s-.08-.76-.23-1.02c-.15-.26-.35-.46-.6-.6s-.54-.24-.86-.29c-.32-.05-.65-.08-.97-.08h-2.21v3.99Z"/>
    <path class="cls-8" d="m1334.47,198.94c-.95,0-1.82-.17-2.61-.5-.79-.33-1.47-.79-2.04-1.37s-1.01-1.27-1.33-2.07c-.32-.79-.48-1.65-.48-2.57s.16-1.78.48-2.57.76-1.48,1.33-2.07c.57-.58,1.25-1.04,2.04-1.37.79-.33,1.66-.5,2.61-.5s1.82.17,2.61.5c.79.33,1.47.79,2.04,1.37.57.58,1.01,1.27,1.33,2.07.32.79.48,1.65.48,2.57s-.16,1.78-.48,2.57c-.32.79-.76,1.48-1.33,2.07s-1.25,1.04-2.04,1.37c-.79.33-1.66.5-2.61.5Zm0-1.58c.71,0,1.35-.13,1.93-.39s1.06-.62,1.47-1.06c.41-.44.72-.97.95-1.57.22-.6.33-1.24.33-1.92s-.11-1.32-.33-1.92c-.22-.6-.54-1.12-.95-1.57-.41-.44-.9-.8-1.47-1.06s-1.21-.39-1.93-.39-1.35.13-1.93.39c-.57.26-1.06.62-1.47,1.06-.41.44-.72.97-.95,1.57-.22.6-.33,1.24-.33,1.92s.11,1.32.33,1.92c.22.6.54,1.12.95,1.57.41.44.9.8,1.47,1.06.57.26,1.21.39,1.93.39Z"/>
    <path class="cls-8" d="m1343.23,186.23h2.5l3.94,9.39h.07l3.91-9.39h2.5v12.4h-1.68v-10.19h-.04l-4.19,10.19h-1.12l-4.19-10.19h-.04v10.19h-1.68v-12.4Z"/>
    <path class="cls-8" d="m1359.22,186.23h7.79v1.58h-6.11v3.89h5.69v1.58h-5.69v5.36h-1.68v-12.4Z"/>
    <path class="cls-8" d="m1374.96,198.94c-.95,0-1.82-.17-2.61-.5-.79-.33-1.47-.79-2.04-1.37s-1.01-1.27-1.33-2.07c-.32-.79-.48-1.65-.48-2.57s.16-1.78.48-2.57.76-1.48,1.33-2.07c.57-.58,1.25-1.04,2.04-1.37.79-.33,1.66-.5,2.61-.5s1.82.17,2.61.5c.79.33,1.47.79,2.04,1.37.57.58,1.01,1.27,1.33,2.07.32.79.48,1.65.48,2.57s-.16,1.78-.48,2.57c-.32.79-.76,1.48-1.33,2.07s-1.25,1.04-2.04,1.37c-.79.33-1.66.5-2.61.5Zm0-1.58c.71,0,1.35-.13,1.93-.39s1.06-.62,1.47-1.06c.41-.44.72-.97.95-1.57.22-.6.33-1.24.33-1.92s-.11-1.32-.33-1.92c-.22-.6-.54-1.12-.95-1.57-.41-.44-.9-.8-1.47-1.06s-1.21-.39-1.93-.39-1.35.13-1.93.39c-.57.26-1.06.62-1.47,1.06-.41.44-.72.97-.95,1.57-.22.6-.33,1.24-.33,1.92s.11,1.32.33,1.92c.22.6.54,1.12.95,1.57.41.44.9.8,1.47,1.06.57.26,1.21.39,1.93.39Z"/>
    <path class="cls-8" d="m1383.84,186.23h4.36c.79,0,1.45.11,1.96.32.51.22.92.49,1.22.82.3.33.5.71.62,1.12.12.41.17.81.17,1.2s-.07.78-.21,1.15c-.14.37-.34.7-.6,1-.26.3-.58.55-.96.75-.38.2-.8.33-1.27.38l3.52,5.66h-2.1l-3.15-5.46h-1.87v5.46h-1.68v-12.4Zm1.68,5.46h2.21c.33,0,.65-.03.97-.08.32-.05.61-.15.86-.29s.45-.34.6-.6c.15-.26.23-.6.23-1.02s-.08-.76-.23-1.02c-.15-.26-.35-.46-.6-.6s-.54-.24-.86-.29c-.32-.05-.65-.08-.97-.08h-2.21v3.99Z"/>
    <path class="cls-8" d="m1394.26,186.23h4.33c.88,0,1.64.1,2.3.3.66.2,1.23.46,1.72.8.48.33.89.72,1.21,1.15.32.43.58.88.76,1.33.19.46.32.91.4,1.37.08.46.12.88.12,1.26,0,.79-.15,1.56-.44,2.3-.29.74-.72,1.4-1.3,1.98-.57.58-1.28,1.04-2.13,1.39-.85.35-1.83.53-2.93.53h-4.05v-12.4Zm1.68,10.82h2.12c.71,0,1.39-.1,2.02-.29.64-.19,1.19-.48,1.67-.87.48-.39.86-.87,1.14-1.44.28-.58.42-1.25.42-2.02,0-.4-.06-.86-.19-1.39-.13-.53-.37-1.04-.73-1.52-.36-.48-.85-.88-1.48-1.22-.63-.33-1.45-.5-2.45-.5h-2.52v9.25Z"/>
    <path class="cls-8" d="m1412.26,186.23h2.5l3.94,9.39h.07l3.91-9.39h2.5v12.4h-1.68v-10.19h-.04l-4.19,10.19h-1.12l-4.19-10.19h-.04v10.19h-1.68v-12.4Z"/>
    <path class="cls-8" d="m1428.25,186.23h8v1.58h-6.32v3.7h5.88v1.58h-5.88v3.98h6.64v1.58h-8.32v-12.4Z"/>
    <path class="cls-8" d="m1442.84,186.23h1.52l5.31,12.4h-1.96l-1.24-3.06h-5.9l-1.23,3.06h-1.96l5.46-12.4Zm3.01,7.86l-2.31-5.69h-.04l-2.35,5.69h4.69Z"/>
    <path class="cls-8" d="m1451,186.23h4.33c.88,0,1.64.1,2.3.3.66.2,1.23.46,1.72.8.48.33.89.72,1.21,1.15.32.43.58.88.76,1.33.19.46.32.91.4,1.37.08.46.12.88.12,1.26,0,.79-.15,1.56-.44,2.3-.29.74-.72,1.4-1.3,1.98-.57.58-1.28,1.04-2.13,1.39-.85.35-1.83.53-2.93.53h-4.05v-12.4Zm1.68,10.82h2.12c.71,0,1.39-.1,2.02-.29.64-.19,1.19-.48,1.67-.87.48-.39.86-.87,1.14-1.44.28-.58.42-1.25.42-2.02,0-.4-.06-.86-.19-1.39-.13-.53-.37-1.04-.73-1.52-.36-.48-.85-.88-1.48-1.22-.63-.33-1.45-.5-2.45-.5h-2.52v9.25Z"/>
    <path class="cls-8" d="m1469.95,198.94c-.95,0-1.82-.17-2.61-.5-.79-.33-1.47-.79-2.04-1.37s-1.01-1.27-1.33-2.07c-.32-.79-.48-1.65-.48-2.57s.16-1.78.48-2.57.76-1.48,1.33-2.07c.57-.58,1.25-1.04,2.04-1.37.79-.33,1.66-.5,2.61-.5s1.82.17,2.61.5c.79.33,1.47.79,2.04,1.37.57.58,1.01,1.27,1.33,2.07.32.79.48,1.65.48,2.57s-.16,1.78-.48,2.57c-.32.79-.76,1.48-1.33,2.07s-1.25,1.04-2.04,1.37c-.79.33-1.66.5-2.61.5Zm0-1.58c.71,0,1.35-.13,1.93-.39s1.06-.62,1.47-1.06c.41-.44.72-.97.95-1.57.22-.6.33-1.24.33-1.92s-.11-1.32-.33-1.92c-.22-.6-.54-1.12-.95-1.57-.41-.44-.9-.8-1.47-1.06s-1.21-.39-1.93-.39-1.35.13-1.93.39c-.57.26-1.06.62-1.47,1.06-.41.44-.72.97-.95,1.57-.22.6-.33,1.24-.33,1.92s.11,1.32.33,1.92c.22.6.54,1.12.95,1.57.41.44.9.8,1.47,1.06.57.26,1.21.39,1.93.39Z"/>
    <path class="cls-8" d="m1477.26,186.23h1.75l2.74,9.91h.03l2.92-9.91h1.93l2.92,9.91h.04l2.74-9.91h1.75l-3.61,12.4h-1.79l-3-10.12h-.04l-2.98,10.12h-1.79l-3.62-12.4Z"/>
    <path class="cls-8" d="m1496.05,196.04c.3.46.69.79,1.16,1.01.47.22.96.32,1.46.32.28,0,.57-.04.86-.13.29-.09.56-.22.8-.39.24-.18.44-.39.59-.65.15-.26.23-.55.23-.89,0-.48-.15-.84-.46-1.09s-.68-.46-1.13-.63c-.45-.17-.94-.33-1.47-.49s-1.02-.38-1.47-.66c-.45-.28-.83-.66-1.13-1.13-.3-.47-.46-1.11-.46-1.92,0-.36.08-.75.24-1.16.16-.41.41-.78.74-1.12.34-.34.77-.62,1.3-.85s1.17-.34,1.92-.34c.68,0,1.33.09,1.94.28.62.19,1.16.57,1.63,1.14l-1.37,1.24c-.21-.33-.51-.59-.89-.79-.39-.2-.82-.3-1.31-.3s-.85.06-1.16.18-.56.28-.74.47c-.19.19-.32.4-.39.62s-.11.43-.11.61c0,.53.15.93.46,1.21s.68.51,1.13.68c.45.17.94.33,1.47.47s1.02.34,1.47.59c.45.25.83.59,1.13,1.02s.46,1.01.46,1.76c0,.6-.11,1.13-.34,1.61-.23.48-.53.88-.92,1.21-.38.33-.84.58-1.37.75-.53.17-1.08.26-1.68.26-.79,0-1.55-.14-2.26-.42s-1.28-.71-1.7-1.3l1.38-1.19Z"/>
  </g>
  <g>
    <path class="cls-8" d="m275.77,677.3c2.54,0,4.73,1.28,5.66,3.66h-2.4c-.65-1.3-1.8-1.91-3.26-1.91-2.42,0-4.17,1.72-4.17,4.47s1.75,4.48,4.17,4.48c1.45,0,2.61-.61,3.26-1.91h2.4c-.93,2.38-3.12,3.64-5.66,3.64-3.43,0-6.22-2.56-6.22-6.22s2.79-6.22,6.22-6.22Z"/>
    <path class="cls-8" d="m291.1,687.14h-5.1l-.88,2.49h-2.08l4.36-12.19h2.31l4.36,12.19h-2.1l-.88-2.49Zm-2.54-7.29l-2,5.66h3.98l-1.98-5.66Z"/>
    <path class="cls-8" d="m294.99,677.45h2.12l2.52,9.92,2.73-9.92h2.24l2.54,9.86,2.54-9.86h2.14l-3.61,12.17h-2.26l-2.56-9.21-2.72,9.21-2.24.02-3.45-12.19Z"/>
    <path class="cls-8" d="m323.9,683.58c0,3.75-2.56,6.04-6.46,6.04h-3.98v-12.17h3.98c3.91,0,6.46,2.37,6.46,6.13Zm-6.46,4.41c2.87,0,4.41-1.65,4.41-4.41s-1.54-4.5-4.41-4.5h-1.98v8.92h1.98Z"/>
    <path class="cls-8" d="m331.43,689.75c-3.43,0-6.22-2.58-6.22-6.24s2.79-6.22,6.22-6.22,6.22,2.58,6.22,6.22-2.75,6.24-6.22,6.24Zm0-1.73c2.42,0,4.17-1.75,4.17-4.5s-1.75-4.47-4.17-4.47-4.17,1.72-4.17,4.47,1.75,4.5,4.17,4.5Z"/>
    <path class="cls-8" d="m344.54,677.45c2.89,0,4.31,1.67,4.31,3.64,0,1.44-.77,2.98-2.82,3.49l3.01,5.04h-2.38l-2.8-4.87h-1.52v4.87h-2v-12.17h4.2Zm0,1.63h-2.21v4.08h2.21c1.56,0,2.26-.86,2.26-2.07s-.7-2.01-2.26-2.01Z"/>
    <path class="cls-8" d="m284.95,709.75l2.93,3.1h-2.54l-2.14-2.31c-.54.16-1.12.23-1.73.23-3.43,0-6.22-2.58-6.22-6.24s2.79-6.22,6.22-6.22,6.22,2.58,6.22,6.22c0,2.29-1.07,4.15-2.73,5.22Zm-3.49-.72c2.42,0,4.17-1.75,4.17-4.5s-1.75-4.47-4.17-4.47-4.17,1.72-4.17,4.47,1.75,4.5,4.17,4.5Z"/>
    <path class="cls-8" d="m289.68,698.47h2v7.76c0,1.89,1.07,2.79,2.75,2.79s2.77-.89,2.77-2.79v-7.76h2v7.73c0,3.1-2.24,4.57-4.78,4.57s-4.73-1.47-4.73-4.57v-7.73Z"/>
    <path class="cls-8" d="m309.12,708.16h-5.1l-.88,2.49h-2.08l4.36-12.19h2.31l4.36,12.19h-2.1l-.88-2.49Zm-2.54-7.29l-2,5.66h3.98l-1.98-5.66Z"/>
    <path class="cls-8" d="m318.19,698.47c2.89,0,4.31,1.67,4.31,3.64,0,1.44-.77,2.98-2.82,3.49l3.01,5.04h-2.38l-2.8-4.87h-1.52v4.87h-2v-12.17h4.2Zm0,1.63h-2.21v4.08h2.21c1.56,0,2.26-.86,2.26-2.07s-.7-2.01-2.26-2.01Z"/>
    <path class="cls-8" d="m329.26,698.47c2.89,0,4.31,1.67,4.31,3.64,0,1.44-.77,2.98-2.82,3.49l3.01,5.04h-2.38l-2.8-4.87h-1.52v4.87h-2v-12.17h4.2Zm0,1.63h-2.21v4.08h2.21c1.56,0,2.26-.86,2.26-2.07s-.7-2.01-2.26-2.01Z"/>
    <path class="cls-8" d="m335.07,698.47h2.22l2.82,5.97,2.82-5.97h2.21l-4.03,7.76v4.41h-2v-4.41l-4.05-7.76Z"/>
  </g>
  <circle class="cls-13" cx="1063.63" cy="251.61" r="70.11"/>
  <g>
    <path class="cls-3" d="m1015.82,248.53h5.62c1.36,0,2.65.15,3.88.46,1.22.3,2.29.8,3.2,1.48.91.68,1.64,1.56,2.17,2.65.54,1.09.8,2.41.8,3.96,0,1.38-.26,2.59-.78,3.64-.52,1.05-1.22,1.93-2.1,2.64s-1.9,1.25-3.05,1.62c-1.15.37-2.36.55-3.62.55h-6.12v-16.99Zm3.74,13.54h1.94c.86,0,1.67-.09,2.41-.26.74-.18,1.39-.47,1.93-.88.54-.41.97-.94,1.28-1.61.31-.66.47-1.48.47-2.44,0-.83-.16-1.56-.47-2.17-.31-.62-.73-1.12-1.26-1.52-.53-.4-1.15-.7-1.86-.9s-1.46-.3-2.24-.3h-2.21v10.08Z"/>
    <path class="cls-3" d="m1044.62,263.51c-.58.74-1.3,1.3-2.18,1.7s-1.79.6-2.74.6c-.9,0-1.74-.14-2.53-.43s-1.48-.7-2.06-1.24-1.04-1.18-1.38-1.93c-.34-.75-.5-1.59-.5-2.52s.17-1.77.5-2.52c.34-.75.8-1.4,1.38-1.93.58-.54,1.27-.95,2.06-1.24s1.64-.43,2.53-.43c.83,0,1.59.14,2.27.43.68.29,1.26.7,1.73,1.24.47.54.84,1.18,1.09,1.93.25.75.38,1.59.38,2.52v1.13h-8.35c.14.69.46,1.24.94,1.64.48.41,1.07.61,1.78.61.59,0,1.09-.13,1.5-.4.41-.26.76-.6,1.07-1.02l2.52,1.85Zm-3.05-5.14c.02-.61-.18-1.13-.6-1.56s-.95-.65-1.61-.65c-.4,0-.75.06-1.06.19-.3.13-.56.29-.78.49s-.38.43-.5.7-.19.54-.2.83h4.75Z"/>
    <path class="cls-3" d="m1047.35,253.86h3.6v1.87h.05c.38-.72.84-1.26,1.37-1.62.53-.36,1.19-.54,1.99-.54.21,0,.42,0,.62.02.21.02.4.05.58.1v3.29c-.26-.08-.51-.14-.76-.18-.25-.04-.51-.06-.78-.06-.69,0-1.23.1-1.63.29-.4.19-.71.46-.92.8-.22.34-.36.76-.42,1.24-.06.48-.1,1.01-.1,1.58v4.87h-3.6v-11.66Z"/>
    <path class="cls-3" d="m1055.73,253.86h3.84l2.38,7.32h.05l1.99-7.32h3.94l2.16,7.32h.05l2.18-7.32h3.65l-4.15,11.66h-3.55l-2.42-7.75h-.05l-2.16,7.75h-3.62l-4.27-11.66Z"/>
    <path class="cls-3" d="m1088.15,263.51c-.58.74-1.3,1.3-2.18,1.7s-1.79.6-2.74.6c-.9,0-1.74-.14-2.53-.43s-1.48-.7-2.06-1.24-1.04-1.18-1.38-1.93c-.34-.75-.5-1.59-.5-2.52s.17-1.77.5-2.52c.34-.75.8-1.4,1.38-1.93.58-.54,1.27-.95,2.06-1.24s1.64-.43,2.53-.43c.83,0,1.59.14,2.27.43.68.29,1.26.7,1.73,1.24.47.54.84,1.18,1.09,1.93.25.75.38,1.59.38,2.52v1.13h-8.35c.14.69.46,1.24.94,1.64.48.41,1.07.61,1.78.61.59,0,1.09-.13,1.5-.4.41-.26.76-.6,1.07-1.02l2.52,1.85Zm-3.05-5.14c.02-.61-.18-1.13-.6-1.56s-.95-.65-1.61-.65c-.4,0-.75.06-1.06.19-.3.13-.56.29-.78.49s-.38.43-.5.7-.19.54-.2.83h4.75Z"/>
    <path class="cls-3" d="m1090.89,253.86h3.46v1.58h.05c.11-.22.27-.45.48-.67s.46-.42.74-.6c.29-.18.62-.32.98-.43.37-.11.77-.17,1.2-.17.91,0,1.65.14,2.21.42.56.28,1,.67,1.31,1.16.31.5.52,1.08.64,1.75.11.67.17,1.4.17,2.18v6.43h-3.6v-5.71c0-.34-.01-.68-.04-1.04-.02-.36-.1-.69-.22-1-.12-.3-.3-.55-.55-.74s-.6-.29-1.07-.29-.84.08-1.13.25c-.29.17-.51.39-.66.67-.15.28-.25.6-.3.95-.05.35-.07.72-.07,1.1v5.81h-3.6v-11.66Z"/>
    <path class="cls-3" d="m1112.61,256.74h-3.17v3.89c0,.32.02.61.05.88s.1.49.22.68c.11.19.28.34.52.44.23.1.54.16.92.16.19,0,.44-.02.76-.06.31-.04.55-.13.71-.28v3c-.4.14-.82.24-1.25.29-.43.05-.86.07-1.27.07-.61,0-1.17-.06-1.68-.19-.51-.13-.96-.33-1.34-.61-.38-.28-.68-.64-.9-1.09-.22-.45-.32-.99-.32-1.63v-5.54h-2.3v-2.88h2.3v-3.46h3.6v3.46h3.17v2.88Z"/>
    <path class="cls-3" d="m1033.4,293.12c-1.1.58-2.26.99-3.46,1.25-1.2.26-2.42.38-3.67.38-1.33,0-2.55-.21-3.67-.62-1.12-.42-2.09-1.01-2.9-1.79-.82-.78-1.45-1.72-1.91-2.82s-.68-2.34-.68-3.7.23-2.59.68-3.7,1.09-2.04,1.91-2.82c.82-.78,1.78-1.37,2.9-1.79s2.34-.62,3.67-.62,2.61.16,3.76.49c1.14.33,2.15.89,3.01,1.69l-2.64,2.88c-.51-.53-1.09-.93-1.73-1.2-.64-.27-1.44-.41-2.4-.41-.8,0-1.52.14-2.17.41-.65.27-1.2.65-1.67,1.14-.46.49-.82,1.07-1.07,1.74-.25.67-.37,1.4-.37,2.18s.12,1.53.37,2.2.6,1.24,1.07,1.73c.46.49,1.02.87,1.67,1.14.65.27,1.37.41,2.17.41s1.52-.09,2.11-.28,1.06-.37,1.42-.56v-2.76h-3.05v-3.46h6.65v8.88Z"/>
    <path class="cls-3" d="m1043.55,292.86h-.05c-.4.62-.93,1.07-1.6,1.34-.66.27-1.36.41-2.1.41-.54,0-1.07-.08-1.57-.23s-.95-.38-1.33-.68c-.38-.3-.69-.68-.91-1.13-.22-.45-.34-.97-.34-1.56,0-.67.12-1.24.37-1.7.25-.46.58-.85,1.01-1.15.42-.3.91-.54,1.45-.71.54-.17,1.11-.29,1.69-.37.58-.08,1.17-.13,1.75-.14.58-.02,1.12-.02,1.62-.02,0-.64-.23-1.15-.68-1.52s-1-.56-1.62-.56c-.59,0-1.13.12-1.62.37s-.92.59-1.31,1.02l-1.92-1.97c.67-.62,1.46-1.09,2.35-1.4.9-.31,1.82-.47,2.78-.47,1.06,0,1.92.13,2.6.4.68.26,1.22.65,1.63,1.16.41.51.69,1.14.85,1.88.16.74.24,1.6.24,2.58v5.93h-3.31v-1.46Zm-.89-3.65c-.27,0-.61.01-1.02.04-.41.02-.8.09-1.18.2-.38.11-.7.28-.96.5-.26.22-.4.54-.4.94,0,.43.18.75.55.96.37.21.75.31,1.15.31.35,0,.69-.05,1.02-.14.33-.1.62-.23.88-.41.26-.18.46-.4.61-.67.15-.27.23-.59.23-.96v-.77h-.89Z"/>
    <path class="cls-3" d="m1049.12,282.66h3.6v1.87h.05c.38-.72.84-1.26,1.37-1.62.53-.36,1.19-.54,1.99-.54.21,0,.42,0,.62.02.21.02.4.05.58.1v3.29c-.26-.08-.51-.14-.76-.18-.25-.04-.51-.06-.78-.06-.69,0-1.23.1-1.63.29-.4.19-.71.46-.92.8-.22.34-.36.76-.42,1.24-.06.48-.1,1.01-.1,1.58v4.87h-3.6v-11.66Z"/>
    <path class="cls-3" d="m1070.69,294.32h-3.31v-1.54h-.05c-.14.21-.33.42-.56.64-.23.22-.5.41-.82.59-.31.18-.66.32-1.03.43-.38.11-.76.17-1.16.17-.86,0-1.65-.15-2.35-.44-.7-.3-1.31-.71-1.81-1.25s-.89-1.17-1.16-1.91c-.27-.74-.41-1.54-.41-2.42,0-.82.12-1.6.37-2.34.25-.74.6-1.4,1.06-1.98.46-.58,1.01-1.04,1.67-1.38.66-.34,1.4-.52,2.23-.52.75,0,1.45.12,2.1.35.65.23,1.18.63,1.6,1.19h.05v-7.73h3.6v18.14Zm-3.31-5.83c0-.88-.25-1.59-.76-2.14s-1.21-.82-2.12-.82-1.62.27-2.12.82-.76,1.26-.76,2.14.25,1.59.76,2.14,1.21.82,2.12.82,1.62-.27,2.12-.82.76-1.26.76-2.14Z"/>
    <path class="cls-3" d="m1084.61,292.31c-.58.74-1.3,1.3-2.18,1.7s-1.79.6-2.74.6c-.9,0-1.74-.14-2.53-.43s-1.48-.7-2.06-1.24-1.04-1.18-1.38-1.93c-.34-.75-.5-1.59-.5-2.52s.17-1.77.5-2.52c.34-.75.8-1.4,1.38-1.93.58-.54,1.27-.95,2.06-1.24s1.64-.43,2.53-.43c.83,0,1.59.14,2.27.43.68.29,1.26.7,1.73,1.24.47.54.84,1.18,1.09,1.93.25.75.38,1.59.38,2.52v1.13h-8.35c.14.69.46,1.24.94,1.64.48.41,1.07.61,1.78.61.59,0,1.09-.13,1.5-.4.41-.26.76-.6,1.07-1.02l2.52,1.85Zm-3.05-5.14c.02-.61-.18-1.13-.6-1.56s-.95-.65-1.61-.65c-.4,0-.75.06-1.06.19-.3.13-.56.29-.78.49s-.38.43-.5.7-.19.54-.2.83h4.75Z"/>
    <path class="cls-3" d="m1087.35,282.66h3.46v1.58h.05c.11-.22.27-.45.48-.67s.46-.42.74-.6c.29-.18.62-.32.98-.43.37-.11.77-.17,1.2-.17.91,0,1.65.14,2.21.42.56.28,1,.67,1.31,1.16.31.5.52,1.08.64,1.75.11.67.17,1.4.17,2.18v6.43h-3.6v-5.71c0-.34-.01-.68-.04-1.04-.02-.36-.1-.69-.22-1-.12-.3-.3-.55-.55-.74s-.6-.29-1.07-.29-.84.08-1.13.25c-.29.17-.51.39-.66.67-.15.28-.25.6-.3.95-.05.35-.07.72-.07,1.1v5.81h-3.6v-11.66Z"/>
    <path class="cls-3" d="m1107.72,286.09c-.53-.66-1.22-.98-2.09-.98-.3,0-.6.07-.89.22-.29.14-.43.39-.43.74,0,.29.15.5.44.64.3.14.67.26,1.13.36s.94.22,1.46.34c.52.12,1.01.31,1.46.56s.83.6,1.13,1.04.44,1.03.44,1.76-.16,1.37-.49,1.86c-.33.49-.75.88-1.26,1.18-.51.3-1.09.5-1.73.62s-1.27.18-1.9.18c-.82,0-1.64-.12-2.47-.35-.83-.23-1.54-.64-2.11-1.24l2.18-2.42c.34.42.71.73,1.12.95s.88.32,1.43.32c.42,0,.79-.06,1.13-.18s.5-.34.5-.66c0-.3-.15-.53-.44-.68-.3-.15-.67-.28-1.13-.38s-.94-.22-1.46-.34c-.52-.12-1.01-.3-1.46-.54-.46-.24-.83-.58-1.13-1.02-.3-.44-.44-1.03-.44-1.76,0-.69.14-1.28.42-1.78.28-.5.65-.9,1.1-1.22.46-.32.98-.56,1.57-.71.59-.15,1.19-.23,1.8-.23.77,0,1.54.11,2.33.34.78.22,1.45.62,1.99,1.2l-2.21,2.18Z"/>
  </g>
  <circle class="cls-13" cx="1207.72" cy="643.13" r="70.11"/>
  <g>
    <path class="cls-3" d="m1167.28,649.24h5.66l3.91,11.09h.05l3.94-11.09h5.64v16.99h-3.74v-13.03h-.05l-4.46,13.03h-2.86l-4.3-13.03h-.05v13.03h-3.74v-16.99Z"/>
    <path class="cls-3" d="m1196.8,664.77h-.05c-.4.62-.93,1.07-1.6,1.34-.66.27-1.36.41-2.1.41-.54,0-1.07-.08-1.57-.23s-.95-.38-1.33-.68c-.38-.3-.69-.68-.91-1.13-.22-.45-.34-.97-.34-1.56,0-.67.12-1.24.37-1.7.25-.46.58-.85,1.01-1.15.42-.3.91-.54,1.45-.71.54-.17,1.11-.29,1.69-.37.58-.08,1.17-.13,1.75-.14.58-.02,1.12-.02,1.62-.02,0-.64-.23-1.15-.68-1.52s-1-.56-1.62-.56c-.59,0-1.13.12-1.62.37s-.92.59-1.31,1.02l-1.92-1.97c.67-.62,1.46-1.09,2.35-1.4.9-.31,1.82-.47,2.78-.47,1.06,0,1.92.13,2.6.4.68.26,1.22.65,1.63,1.16.41.51.69,1.14.85,1.88.16.74.24,1.6.24,2.58v5.93h-3.31v-1.46Zm-.89-3.65c-.27,0-.61.01-1.02.04-.41.02-.8.09-1.18.2-.38.11-.7.28-.96.5-.26.22-.4.54-.4.94,0,.43.18.75.55.96.37.21.75.31,1.15.31.35,0,.69-.05,1.02-.14.33-.1.62-.23.88-.41.26-.18.46-.4.61-.67.15-.27.23-.59.23-.96v-.77h-.89Z"/>
    <path class="cls-3" d="m1208.97,658c-.53-.66-1.22-.98-2.09-.98-.3,0-.6.07-.89.22-.29.14-.43.39-.43.74,0,.29.15.5.44.64.3.14.67.26,1.13.36s.94.22,1.46.34c.52.12,1.01.31,1.46.56s.83.6,1.13,1.04.44,1.03.44,1.76-.16,1.37-.49,1.86c-.33.49-.75.88-1.26,1.18-.51.3-1.09.5-1.73.62s-1.27.18-1.9.18c-.82,0-1.64-.12-2.47-.35-.83-.23-1.54-.64-2.11-1.24l2.18-2.42c.34.42.71.73,1.12.95s.88.32,1.43.32c.42,0,.79-.06,1.13-.18s.5-.34.5-.66c0-.3-.15-.53-.44-.68-.3-.15-.67-.28-1.13-.38s-.94-.22-1.46-.34c-.52-.12-1.01-.3-1.46-.54-.46-.24-.83-.58-1.13-1.02-.3-.44-.44-1.03-.44-1.76,0-.69.14-1.28.42-1.78.28-.5.65-.9,1.1-1.22.46-.32.98-.56,1.57-.71.59-.15,1.19-.23,1.8-.23.77,0,1.54.11,2.33.34.78.22,1.45.62,1.99,1.2l-2.21,2.18Z"/>
    <path class="cls-3" d="m1220.08,658c-.53-.66-1.22-.98-2.09-.98-.3,0-.6.07-.89.22-.29.14-.43.39-.43.74,0,.29.15.5.44.64.3.14.67.26,1.13.36s.94.22,1.46.34c.52.12,1.01.31,1.46.56s.83.6,1.13,1.04.44,1.03.44,1.76-.16,1.37-.49,1.86c-.33.49-.75.88-1.26,1.18-.51.3-1.09.5-1.73.62s-1.27.18-1.9.18c-.82,0-1.64-.12-2.47-.35-.83-.23-1.54-.64-2.11-1.24l2.18-2.42c.34.42.71.73,1.12.95s.88.32,1.43.32c.42,0,.79-.06,1.13-.18s.5-.34.5-.66c0-.3-.15-.53-.44-.68-.3-.15-.67-.28-1.13-.38s-.94-.22-1.46-.34c-.52-.12-1.01-.3-1.46-.54-.46-.24-.83-.58-1.13-1.02-.3-.44-.44-1.03-.44-1.76,0-.69.14-1.28.42-1.78.28-.5.65-.9,1.1-1.22.46-.32.98-.56,1.57-.71.59-.15,1.19-.23,1.8-.23.77,0,1.54.11,2.33.34.78.22,1.45.62,1.99,1.2l-2.21,2.18Z"/>
    <path class="cls-3" d="m1224.16,660.4c0-.93.17-1.77.5-2.52.34-.75.8-1.4,1.38-1.93.58-.54,1.27-.95,2.06-1.24s1.64-.43,2.53-.43,1.74.14,2.53.43,1.48.7,2.06,1.24c.58.54,1.04,1.18,1.38,1.93.34.75.5,1.59.5,2.52s-.17,1.77-.5,2.52c-.34.75-.8,1.4-1.38,1.93s-1.27.95-2.06,1.24-1.64.43-2.53.43-1.74-.14-2.53-.43-1.48-.7-2.06-1.24-1.04-1.18-1.38-1.93c-.34-.75-.5-1.59-.5-2.52Zm3.6,0c0,.88.25,1.59.76,2.14s1.21.82,2.12.82,1.62-.27,2.12-.82.76-1.26.76-2.14-.25-1.59-.76-2.14-1.21-.82-2.12-.82-1.62.27-2.12.82-.76,1.26-.76,2.14Z"/>
    <path class="cls-3" d="m1239.23,654.57h3.46v1.58h.05c.11-.22.27-.45.48-.67s.46-.42.74-.6c.29-.18.62-.32.98-.43.37-.11.77-.17,1.2-.17.91,0,1.65.14,2.21.42.56.28,1,.67,1.31,1.16.31.5.52,1.08.64,1.75.11.67.17,1.4.17,2.18v6.43h-3.6v-5.71c0-.34-.01-.68-.04-1.04-.02-.36-.1-.69-.22-1-.12-.3-.3-.55-.55-.74s-.6-.29-1.07-.29-.84.08-1.13.25c-.29.17-.51.39-.66.67-.15.28-.25.6-.3.95-.05.35-.07.72-.07,1.1v5.81h-3.6v-11.66Z"/>
    <path class="cls-3" d="m1181.92,678.04h4.08l2.71,10.9h.05l3.55-10.9h3.48l3.53,11.18h.05l2.86-11.18h3.79l-4.97,16.99h-3.34l-3.74-11.76h-.05l-3.74,11.76h-3.22l-5.04-16.99Z"/>
    <path class="cls-3" d="m1217.85,693.01c-.58.74-1.3,1.3-2.18,1.7s-1.79.6-2.74.6c-.9,0-1.74-.14-2.53-.43s-1.48-.7-2.06-1.24-1.04-1.18-1.38-1.93c-.34-.75-.5-1.59-.5-2.52s.17-1.77.5-2.52c.34-.75.8-1.4,1.38-1.93.58-.54,1.27-.95,2.06-1.24s1.64-.43,2.53-.43c.83,0,1.59.14,2.27.43.68.29,1.26.7,1.73,1.24.47.54.84,1.18,1.09,1.93.25.75.38,1.59.38,2.52v1.13h-8.35c.14.69.46,1.24.94,1.64.48.41,1.07.61,1.78.61.59,0,1.09-.13,1.5-.4.41-.26.76-.6,1.07-1.02l2.52,1.85Zm-3.05-5.14c.02-.61-.18-1.13-.6-1.56s-.95-.65-1.61-.65c-.4,0-.75.06-1.06.19-.3.13-.56.29-.78.49s-.38.43-.5.7-.19.54-.2.83h4.75Z"/>
    <path class="cls-3" d="m1220.34,679.69c0-.58.2-1.07.61-1.48.41-.41.9-.61,1.48-.61s1.07.2,1.48.61c.41.41.61.9.61,1.48s-.2,1.07-.61,1.48c-.41.41-.9.61-1.48.61s-1.07-.2-1.48-.61c-.41-.41-.61-.9-.61-1.48Zm.29,3.67h3.6v11.66h-3.6v-11.66Z"/>
    <path class="cls-3" d="m1226.82,683.37h3.6v1.87h.05c.38-.72.84-1.26,1.37-1.62.53-.36,1.19-.54,1.99-.54.21,0,.42,0,.62.02.21.02.4.05.58.1v3.29c-.26-.08-.51-.14-.76-.18-.25-.04-.51-.06-.78-.06-.69,0-1.23.1-1.63.29-.4.19-.71.46-.92.8-.22.34-.36.76-.42,1.24-.06.48-.1,1.01-.1,1.58v4.87h-3.6v-11.66Z"/>
  </g>
  <circle class="cls-13" cx="1472.85" cy="552.27" r="70.11"/>
  <g>
    <path class="cls-3" d="m1425.36,558.11h3.57l2.37,9.53h.04l3.11-9.53h3.04l3.09,9.79h.04l2.5-9.79h3.32l-4.35,14.87h-2.92l-3.28-10.29h-.04l-3.28,10.29h-2.81l-4.41-14.87Z"/>
    <path class="cls-3" d="m1447.31,559.56c0-.5.18-.93.54-1.29.36-.36.79-.54,1.29-.54s.93.18,1.29.54c.36.36.54.79.54,1.29s-.18.93-.54,1.29c-.36.36-.79.54-1.29.54s-.93-.18-1.29-.54c-.36-.36-.54-.79-.54-1.29Zm.25,3.21h3.15v10.21h-3.15v-10.21Z"/>
    <path class="cls-3" d="m1453.02,557.1h3.15v15.88h-3.15v-15.88Z"/>
    <path class="cls-3" d="m1458.48,557.1h3.15v15.88h-3.15v-15.88Z"/>
    <path class="cls-3" d="m1473.56,571.21c-.5.64-1.14,1.14-1.91,1.49-.77.35-1.57.53-2.39.53s-1.52-.13-2.21-.38c-.69-.25-1.3-.61-1.81-1.08-.51-.47-.91-1.03-1.21-1.69-.29-.66-.44-1.39-.44-2.2s.15-1.55.44-2.21.7-1.22,1.21-1.69c.51-.47,1.11-.83,1.81-1.08.69-.25,1.43-.38,2.21-.38.73,0,1.39.13,1.98.38.6.25,1.1.61,1.51,1.08.41.47.73,1.03.96,1.69s.34,1.39.34,2.21v.99h-7.31c.13.6.4,1.08.82,1.44.42.36.94.54,1.55.54.52,0,.96-.12,1.31-.35.36-.23.67-.53.93-.89l2.21,1.62Zm-2.67-4.49c.01-.53-.16-.99-.53-1.37s-.83-.57-1.41-.57c-.35,0-.66.06-.92.17-.27.11-.49.26-.68.43-.19.18-.34.38-.44.61-.11.23-.17.47-.18.72h4.16Z"/>
    <path class="cls-3" d="m1475.95,562.77h3.15v1.64h.04c.34-.63.74-1.1,1.2-1.42.46-.32,1.04-.47,1.74-.47.18,0,.36,0,.55.02.18.01.35.04.5.08v2.88c-.22-.07-.44-.12-.66-.16-.22-.03-.45-.05-.68-.05-.6,0-1.08.08-1.43.25-.35.17-.62.4-.81.7-.19.3-.31.66-.37,1.08-.06.42-.08.88-.08,1.39v4.26h-3.15v-10.21Z"/>
    <path class="cls-3" d="m1490.27,565.78c-.46-.57-1.07-.86-1.83-.86-.27,0-.52.06-.78.19s-.38.34-.38.65c0,.25.13.44.39.56.26.12.59.22.99.32.4.09.83.19,1.28.29.46.11.88.27,1.28.49.4.22.73.53.99.91.26.38.39.9.39,1.54s-.14,1.2-.43,1.63-.65.77-1.1,1.03-.95.44-1.51.55c-.56.1-1.11.16-1.66.16-.71,0-1.43-.1-2.16-.3-.73-.2-1.34-.56-1.85-1.08l1.91-2.12c.29.36.62.64.98.83.36.19.77.28,1.25.28.36,0,.69-.05.99-.16.29-.1.44-.3.44-.58,0-.27-.13-.46-.39-.6-.26-.13-.59-.25-.99-.34-.4-.09-.83-.19-1.28-.29-.46-.11-.88-.26-1.28-.47-.4-.21-.73-.51-.99-.89-.26-.38-.39-.9-.39-1.54,0-.6.12-1.12.37-1.55.25-.43.57-.79.97-1.07.4-.28.86-.49,1.38-.62.52-.13,1.04-.2,1.58-.2.67,0,1.35.1,2.04.29.69.2,1.27.55,1.74,1.05l-1.93,1.91Z"/>
    <path class="cls-3" d="m1494.26,557.1h3.15v15.88h-3.15v-15.88Z"/>
    <path class="cls-3" d="m1509.34,571.21c-.5.64-1.14,1.14-1.91,1.49-.77.35-1.57.53-2.39.53s-1.52-.13-2.21-.38c-.69-.25-1.3-.61-1.81-1.08-.51-.47-.91-1.03-1.21-1.69-.29-.66-.44-1.39-.44-2.2s.15-1.55.44-2.21.7-1.22,1.21-1.69c.51-.47,1.11-.83,1.81-1.08.69-.25,1.43-.38,2.21-.38.73,0,1.39.13,1.98.38.6.25,1.1.61,1.51,1.08.41.47.73,1.03.96,1.69s.34,1.39.34,2.21v.99h-7.31c.13.6.4,1.08.82,1.44.42.36.94.54,1.55.54.52,0,.96-.12,1.31-.35.36-.23.67-.53.93-.89l2.21,1.62Zm-2.67-4.49c.01-.53-.16-.99-.53-1.37s-.83-.57-1.41-.57c-.35,0-.66.06-.92.17-.27.11-.49.26-.68.43-.19.18-.34.38-.44.61-.11.23-.17.47-.18.72h4.16Z"/>
    <path class="cls-3" d="m1517.61,574.64c-.21.55-.41,1.03-.61,1.45s-.44.77-.75,1.06c-.3.29-.68.5-1.14.65-.46.15-1.07.22-1.83.22-.81,0-1.6-.13-2.35-.38l.42-2.58c.48.21.97.31,1.47.31.35,0,.64-.04.86-.12.22-.08.41-.19.56-.34.15-.15.27-.33.37-.54.1-.21.2-.46.31-.74l.23-.59-4.47-10.29h3.4l2.62,6.74h.04l2.25-6.74h3.23l-4.62,11.87Z"/>
    <path class="cls-3" d="m1454.36,587.17c-.32-.39-.72-.69-1.19-.9-.47-.21-1.01-.31-1.63-.31s-1.19.12-1.71.36c-.53.24-.98.57-1.37,1-.39.43-.69.93-.9,1.52s-.33,1.22-.33,1.91.11,1.34.33,1.92.51,1.08.89,1.51c.38.43.82.76,1.33,1,.51.24,1.06.36,1.65.36.67,0,1.27-.14,1.78-.42.52-.28.95-.67,1.28-1.18l2.73,2.04c-.63.88-1.43,1.53-2.39,1.95s-1.96.63-2.98.63c-1.16,0-2.23-.18-3.21-.55-.98-.36-1.83-.89-2.54-1.56-.71-.68-1.27-1.5-1.67-2.47s-.6-2.04-.6-3.23.2-2.27.6-3.23.96-1.79,1.67-2.47c.71-.68,1.56-1.2,2.54-1.56.98-.36,2.05-.55,3.21-.55.42,0,.86.04,1.31.12.45.08.9.2,1.34.37s.86.39,1.27.67.77.62,1.09,1.03l-2.52,2.06Z"/>
    <path class="cls-3" d="m1465.03,596.9h-.04c-.35.55-.82.94-1.4,1.18-.58.24-1.19.36-1.84.36-.48,0-.93-.07-1.38-.2-.44-.13-.83-.33-1.17-.6s-.6-.59-.8-.99c-.2-.39-.29-.85-.29-1.37,0-.59.11-1.08.33-1.49.22-.41.51-.74.88-1.01.37-.27.79-.47,1.27-.62.48-.15.97-.25,1.48-.33s1.02-.11,1.53-.13c.51-.01.98-.02,1.42-.02,0-.56-.2-1-.6-1.33-.4-.33-.87-.49-1.42-.49-.52,0-.99.11-1.42.33-.43.22-.81.51-1.14.89l-1.68-1.72c.59-.55,1.27-.96,2.06-1.23.78-.27,1.6-.41,2.44-.41.92,0,1.68.12,2.28.35.59.23,1.07.57,1.43,1.02.36.45.6,1,.75,1.65.14.65.21,1.4.21,2.26v5.19h-2.9v-1.28Zm-.78-3.19c-.24,0-.54,0-.89.03-.36.02-.7.08-1.03.18s-.61.25-.84.44c-.23.2-.35.47-.35.82,0,.38.16.66.48.84.32.18.66.27,1.01.27.31,0,.61-.04.89-.13s.54-.2.77-.36c.22-.15.4-.35.54-.59s.2-.52.2-.84v-.67h-.78Z"/>
    <path class="cls-3" d="m1475.68,590.98c-.46-.57-1.07-.86-1.83-.86-.27,0-.52.06-.78.19s-.38.34-.38.65c0,.25.13.44.39.56.26.12.59.22.99.32.4.09.83.19,1.28.29.46.11.88.27,1.28.49.4.22.73.53.99.91.26.38.39.9.39,1.54s-.14,1.2-.43,1.63-.65.77-1.1,1.03-.95.44-1.51.55c-.56.1-1.11.16-1.66.16-.71,0-1.43-.1-2.16-.3-.73-.2-1.34-.56-1.85-1.08l1.91-2.12c.29.36.62.64.98.83.36.19.77.28,1.25.28.36,0,.69-.05.99-.16.29-.1.44-.3.44-.58,0-.27-.13-.46-.39-.6-.26-.13-.59-.25-.99-.34-.4-.09-.83-.19-1.28-.29-.46-.11-.88-.26-1.28-.47-.4-.21-.73-.51-.99-.89-.26-.38-.39-.9-.39-1.54,0-.6.12-1.12.37-1.55.25-.43.57-.79.97-1.07.4-.28.86-.49,1.38-.62.52-.13,1.04-.2,1.58-.2.67,0,1.35.1,2.04.29.69.2,1.27.55,1.74,1.05l-1.93,1.91Z"/>
    <path class="cls-3" d="m1486.58,590.49h-2.77v3.4c0,.28.01.54.04.77.03.23.09.43.19.6.1.17.25.3.45.39s.47.14.81.14c.17,0,.39-.02.66-.05.27-.04.48-.12.62-.24v2.62c-.35.13-.71.21-1.09.25s-.75.06-1.11.06c-.53,0-1.02-.06-1.47-.17s-.84-.29-1.18-.54-.6-.56-.79-.96c-.19-.39-.28-.87-.28-1.43v-4.85h-2.02v-2.52h2.02v-3.02h3.15v3.02h2.77v2.52Z"/>
    <path class="cls-3" d="m1488.21,582.3h3.15v15.88h-3.15v-15.88Z"/>
    <path class="cls-3" d="m1503.29,596.41c-.5.64-1.14,1.14-1.91,1.49-.77.35-1.57.53-2.39.53s-1.52-.13-2.21-.38c-.69-.25-1.3-.61-1.81-1.08-.51-.47-.91-1.03-1.21-1.69-.29-.66-.44-1.39-.44-2.2s.15-1.55.44-2.21.7-1.22,1.21-1.69c.51-.47,1.11-.83,1.81-1.08.69-.25,1.43-.38,2.21-.38.73,0,1.39.13,1.98.38.6.25,1.1.61,1.51,1.08.41.47.73,1.03.96,1.69s.34,1.39.34,2.21v.99h-7.31c.13.6.4,1.08.82,1.44.42.36.94.54,1.55.54.52,0,.96-.12,1.31-.35.36-.23.67-.53.93-.89l2.21,1.62Zm-2.67-4.49c.01-.53-.16-.99-.53-1.37s-.83-.57-1.41-.57c-.35,0-.66.06-.92.17-.27.11-.49.26-.68.43-.19.18-.34.38-.44.61-.11.23-.17.47-.18.72h4.16Z"/>
  </g>
  <circle class="cls-13" cx="500.36" cy="156.1" r="70.11"/>
  <g>
    <path class="cls-3" d="m451.18,160.74h3.74v6.34h7.27v-6.34h3.74v16.99h-3.74v-7.34h-7.27v7.34h-3.74v-16.99Z"/>
    <path class="cls-3" d="m476.26,176.27h-.05c-.4.62-.93,1.07-1.6,1.34-.66.27-1.36.41-2.1.41-.54,0-1.07-.08-1.57-.23s-.95-.38-1.33-.68c-.38-.3-.69-.68-.91-1.13-.22-.45-.34-.97-.34-1.56,0-.67.12-1.24.37-1.7.25-.46.58-.85,1.01-1.15.42-.3.91-.54,1.45-.71s1.11-.29,1.69-.37c.58-.08,1.17-.13,1.75-.14.58-.02,1.12-.02,1.62-.02,0-.64-.23-1.15-.68-1.52-.46-.38-1-.56-1.62-.56s-1.13.12-1.62.37c-.49.25-.92.59-1.31,1.02l-1.92-1.97c.67-.62,1.46-1.09,2.35-1.4.9-.31,1.82-.47,2.78-.47,1.06,0,1.92.13,2.6.4.68.26,1.22.65,1.63,1.16.41.51.69,1.14.85,1.88.16.74.24,1.6.24,2.58v5.93h-3.31v-1.46Zm-.89-3.65c-.27,0-.61.01-1.02.04-.41.02-.8.09-1.18.2-.38.11-.7.28-.96.5-.26.22-.4.54-.4.94,0,.43.18.75.55.96.37.21.75.31,1.15.31.35,0,.69-.05,1.02-.14.33-.1.62-.23.88-.41.26-.18.46-.4.61-.67.15-.27.23-.59.23-.96v-.77h-.89Z"/>
    <path class="cls-3" d="m481.88,159.59h3.6v18.14h-3.6v-18.14Z"/>
    <path class="cls-3" d="m488.12,159.59h3.6v18.14h-3.6v-18.14Z"/>
    <path class="cls-3" d="m502.01,160.74h3.74v13.54h6.94v3.46h-10.68v-16.99Z"/>
    <path class="cls-3" d="m525.34,175.72c-.58.74-1.3,1.3-2.18,1.7s-1.79.6-2.74.6-1.74-.14-2.53-.43-1.48-.7-2.06-1.24-1.04-1.18-1.38-1.93c-.34-.75-.5-1.59-.5-2.52s.17-1.77.5-2.52c.34-.75.8-1.4,1.38-1.93.58-.54,1.27-.95,2.06-1.24s1.64-.43,2.53-.43c.83,0,1.59.14,2.27.43.68.29,1.26.7,1.73,1.24.47.54.84,1.18,1.09,1.93.26.75.38,1.59.38,2.52v1.13h-8.35c.14.69.46,1.24.94,1.64.48.41,1.07.61,1.78.61.59,0,1.09-.13,1.5-.4.41-.26.76-.6,1.07-1.02l2.52,1.85Zm-3.05-5.14c.02-.61-.18-1.13-.6-1.56-.42-.43-.95-.65-1.61-.65-.4,0-.75.06-1.06.19-.3.13-.56.29-.78.49-.22.2-.38.43-.5.7-.12.26-.19.54-.2.83h4.75Z"/>
    <path class="cls-3" d="m534.8,179.63c-.24.62-.47,1.18-.7,1.66-.22.48-.51.88-.85,1.21-.34.33-.78.58-1.31.74-.53.17-1.22.25-2.09.25-.93,0-1.82-.14-2.69-.43l.48-2.95c.54.24,1.1.36,1.68.36.4,0,.73-.04.98-.13s.47-.22.64-.38c.17-.17.31-.37.42-.61.11-.24.23-.52.36-.84l.26-.67-5.11-11.76h3.89l3,7.7h.05l2.57-7.7h3.7l-5.28,13.56Z"/>
    <path class="cls-3" d="m548.02,169.5c-.53-.66-1.22-.98-2.09-.98-.3,0-.6.07-.89.22s-.43.39-.43.74c0,.29.15.5.44.64.3.14.67.26,1.13.36s.94.22,1.46.34c.52.12,1.01.31,1.46.56s.83.6,1.13,1.04.44,1.03.44,1.76-.16,1.37-.49,1.86c-.33.49-.75.88-1.26,1.18-.51.3-1.09.5-1.73.62-.64.12-1.27.18-1.9.18-.82,0-1.64-.12-2.47-.35-.83-.23-1.54-.64-2.11-1.24l2.18-2.42c.34.42.71.73,1.12.95s.88.32,1.43.32c.42,0,.79-.06,1.13-.18s.5-.34.5-.66c0-.3-.15-.53-.44-.68-.3-.15-.67-.28-1.13-.38-.46-.1-.94-.22-1.46-.34s-1.01-.3-1.46-.54c-.46-.24-.83-.58-1.13-1.02-.3-.44-.44-1.03-.44-1.76,0-.69.14-1.28.42-1.78.28-.5.65-.9,1.1-1.22.46-.32.98-.56,1.57-.71.59-.15,1.19-.23,1.8-.23.77,0,1.54.11,2.33.34.78.22,1.45.62,1.99,1.2l-2.21,2.18Z"/>
    <path class="cls-3" d="m476.53,189.54h6.31c.88,0,1.71.08,2.5.24.78.16,1.47.44,2.05.83s1.05.92,1.39,1.58c.34.66.52,1.5.52,2.51s-.16,1.82-.48,2.5c-.32.67-.76,1.21-1.32,1.61-.56.4-1.22.68-1.99.85s-1.6.25-2.5.25h-2.74v6.62h-3.74v-16.99Zm3.74,7.2h2.5c.34,0,.66-.03.97-.1.31-.06.59-.17.84-.32.25-.15.45-.36.6-.62.15-.26.23-.6.23-1,0-.43-.1-.78-.3-1.04-.2-.26-.46-.47-.77-.61-.31-.14-.66-.24-1.04-.28-.38-.04-.75-.06-1.1-.06h-1.92v4.03Z"/>
    <path class="cls-3" d="m498.51,205.07h-.05c-.4.62-.93,1.07-1.6,1.34-.66.27-1.36.41-2.1.41-.54,0-1.07-.08-1.57-.23s-.95-.38-1.33-.68c-.38-.3-.69-.68-.91-1.13-.22-.45-.34-.97-.34-1.56,0-.67.12-1.24.37-1.7.25-.46.58-.85,1.01-1.15.42-.3.91-.54,1.45-.71s1.11-.29,1.69-.37c.58-.08,1.17-.13,1.75-.14.58-.02,1.12-.02,1.62-.02,0-.64-.23-1.15-.68-1.52-.46-.38-1-.56-1.62-.56s-1.13.12-1.62.37c-.49.25-.92.59-1.31,1.02l-1.92-1.97c.67-.62,1.46-1.09,2.35-1.4.9-.31,1.82-.47,2.78-.47,1.06,0,1.92.13,2.6.4.68.26,1.22.65,1.63,1.16.41.51.69,1.14.85,1.88.16.74.24,1.6.24,2.58v5.93h-3.31v-1.46Zm-.89-3.65c-.27,0-.61.01-1.02.04-.41.02-.8.09-1.18.2-.38.11-.7.28-.96.5-.26.22-.4.54-.4.94,0,.43.18.75.55.96.37.21.75.31,1.15.31.35,0,.69-.05,1.02-.14.33-.1.62-.23.88-.41.26-.18.46-.4.61-.67.15-.27.23-.59.23-.96v-.77h-.89Z"/>
    <path class="cls-3" d="m504.08,194.87h3.6v1.87h.05c.38-.72.84-1.26,1.37-1.62.53-.36,1.19-.54,1.99-.54.21,0,.42,0,.62.02.21.02.4.05.58.1v3.29c-.26-.08-.51-.14-.76-.18-.25-.04-.51-.06-.78-.06-.69,0-1.23.1-1.63.29s-.71.46-.92.8c-.22.34-.36.76-.42,1.24s-.1,1.01-.1,1.58v4.87h-3.6v-11.66Z"/>
    <path class="cls-3" d="m513.84,188.39h3.6v11.09l3.98-4.61h4.42l-4.63,5.26,4.75,6.41h-4.54l-3.94-5.9h-.05v5.9h-3.6v-18.14Z"/>
  </g>
  <g>
    <path class="cls-7" d="m332.19,630.95c23.6,2.93,56.91,13.78,56.91,13.78l-12.37-24.57,26.14-14.04s-24.24-10.18-65.51-14.73"/>
    <path class="cls-3" d="m395.36,650.09l-7.23-2.38c-.33-.11-33.35-10.78-56.33-13.65l.78-6.29c17.23,2.14,39.19,8.32,50.34,11.68l-10.4-20.7,22.6-12.17c-9.78-3.19-29.96-8.96-58.11-12.05l.69-6.3c41.24,4.54,65.38,14.46,66.39,14.92l6.14,2.56-29.28,15.8,14.39,28.58Z"/>
    <path class="cls-7" d="m230,633.08c-23.6,2.93-56.91,13.76-56.91,13.76l12.37-24.57-26.14-14.04s24.24-10.18,65.51-14.72"/>
    <path class="cls-3" d="m168.83,652.21l14.4-28.63-29.28-15.8,6.14-2.56c1.01-.42,25.14-10.35,66.39-14.92l.69,6.3c-28.17,3.1-48.39,8.85-58.12,12.08l22.61,12.18-10.42,20.7c11.15-3.36,33.12-9.54,50.34-11.68l.78,6.29c-23.02,2.86-55.99,13.53-56.33,13.65l-7.22,2.39Z"/>
    <path class="cls-7" d="m362.16,616.36c-.31-.09-31.37-9.16-81.32-9.16-48.73,0-81.17,9.08-81.49,9.17l-2.41.68-6.87-44.16,2.41-.61c.37-.1,37.53-9.3,88.34-9.3,50.53,0,87.97,9.2,88.34,9.3l2.42.61-7,44.18-2.42-.72Z"/>
    <path class="cls-3" d="m282.68,566.17c50.37,0,86.95,9.24,86.95,9.24l-5.94,37.86s-30.64-9.25-81.01-9.25c-49.04,0-81.14,9.24-81.14,9.24l-5.83-37.86s36.33-9.24,86.96-9.24m0-6.34c-21.05.01-42.09,1.57-63.01,4.66-15.42,2.31-24.48,4.6-24.86,4.69l-4.74,1.21.94,6.24,5.81,37.86.96,6.31,4.76-1.37c.08,0,8.09-2.3,21.95-4.55,19.32-3.06,38.76-4.58,58.21-4.55,49.21,0,79.66,8.99,79.96,9.08l4.78,1.44.99-6.34,5.94-37.86.99-6.3-4.79-1.21c-.38-.1-9.51-2.39-24.97-4.69-20.89-3.09-41.88-4.64-62.9-4.66l-.03.04Z"/>
    <polygon class="cls-3" points="231.85 609.35 196.97 620.75 232.38 635.82 231.85 609.35"/>
    <polygon class="cls-3" points="332.98 611.83 332.46 633.89 366.12 620.97 332.98 611.83"/>
  </g>
  <g>
    <path class="cls-8" d="m1435.25,399.88c-.37-.45-.82-.79-1.36-1.03-.54-.24-1.16-.36-1.86-.36s-1.36.14-1.96.41c-.6.27-1.12.65-1.56,1.14-.44.49-.78,1.07-1.03,1.74s-.37,1.4-.37,2.18.12,1.53.37,2.2.59,1.24,1.02,1.73c.43.49.94.87,1.52,1.14.58.27,1.21.41,1.88.41.77,0,1.45-.16,2.04-.48s1.08-.77,1.46-1.34l3.12,2.33c-.72,1.01-1.63,1.75-2.74,2.23-1.1.48-2.24.72-3.41.72-1.33,0-2.55-.21-3.67-.62-1.12-.42-2.09-1.01-2.9-1.79-.82-.78-1.45-1.72-1.91-2.82-.46-1.1-.68-2.34-.68-3.7s.23-2.59.68-3.7c.46-1.1,1.09-2.04,1.91-2.82.82-.78,1.78-1.37,2.9-1.79s2.34-.62,3.67-.62c.48,0,.98.04,1.5.13.52.09,1.03.23,1.54.42.5.19.99.45,1.45.77.46.32.88.71,1.25,1.18l-2.88,2.35Z"/>
    <path class="cls-8" d="m1440.58,395.46h6.58c.86,0,1.68.08,2.46.25s1.46.45,2.04.84c.58.39,1.05.92,1.39,1.58.34.66.52,1.49.52,2.48,0,1.2-.31,2.22-.94,3.06-.62.84-1.54,1.37-2.74,1.6l4.32,7.18h-4.49l-3.55-6.79h-1.85v6.79h-3.74v-16.99Zm3.74,7.03h2.21c.34,0,.69-.01,1.07-.04.38-.02.72-.1,1.02-.22s.56-.31.76-.56c.2-.26.3-.62.3-1.08,0-.43-.09-.78-.26-1.03-.18-.26-.4-.45-.67-.59-.27-.14-.58-.23-.94-.28-.35-.05-.7-.07-1.03-.07h-2.45v3.86Z"/>
    <path class="cls-8" d="m1455.22,403.96c0-1.36.23-2.59.68-3.7.46-1.1,1.09-2.04,1.91-2.82.82-.78,1.78-1.37,2.9-1.79s2.34-.62,3.67-.62,2.55.21,3.67.62c1.12.42,2.09,1.01,2.9,1.79.82.78,1.45,1.72,1.91,2.82.46,1.1.68,2.34.68,3.7s-.23,2.59-.68,3.7c-.46,1.1-1.09,2.04-1.91,2.82-.82.78-1.78,1.37-2.9,1.79-1.12.42-2.34.62-3.67.62s-2.55-.21-3.67-.62c-1.12-.42-2.09-1.01-2.9-1.79-.82-.78-1.45-1.72-1.91-2.82-.46-1.1-.68-2.34-.68-3.7Zm3.89,0c0,.8.12,1.53.37,2.2s.6,1.24,1.07,1.73c.46.49,1.02.87,1.67,1.14.65.27,1.37.41,2.17.41s1.52-.14,2.17-.41c.65-.27,1.2-.65,1.67-1.14.46-.49.82-1.06,1.07-1.73s.37-1.4.37-2.2-.12-1.51-.37-2.18-.6-1.25-1.07-1.74c-.46-.49-1.02-.87-1.67-1.14-.65-.27-1.37-.41-2.17-.41s-1.52.14-2.17.41c-.65.27-1.2.65-1.67,1.14s-.82,1.07-1.07,1.74-.37,1.4-.37,2.18Z"/>
    <path class="cls-8" d="m1476.1,395.46h5.66l3.91,11.09h.05l3.94-11.09h5.64v16.99h-3.74v-13.03h-.05l-4.46,13.03h-2.86l-4.3-13.03h-.05v13.03h-3.74v-16.99Z"/>
    <path class="cls-8" d="m1498.9,395.46h11.4v3.46h-7.66v3.46h7.08v3.46h-7.08v6.62h-3.74v-16.99Z"/>
    <path class="cls-8" d="m1512.08,403.96c0-1.36.23-2.59.68-3.7.46-1.1,1.09-2.04,1.91-2.82.82-.78,1.78-1.37,2.9-1.79s2.34-.62,3.67-.62,2.55.21,3.67.62c1.12.42,2.09,1.01,2.9,1.79.82.78,1.45,1.72,1.91,2.82.46,1.1.68,2.34.68,3.7s-.23,2.59-.68,3.7c-.46,1.1-1.09,2.04-1.91,2.82-.82.78-1.78,1.37-2.9,1.79-1.12.42-2.34.62-3.67.62s-2.55-.21-3.67-.62c-1.12-.42-2.09-1.01-2.9-1.79-.82-.78-1.45-1.72-1.91-2.82-.46-1.1-.68-2.34-.68-3.7Zm3.89,0c0,.8.12,1.53.37,2.2s.6,1.24,1.07,1.73c.46.49,1.02.87,1.67,1.14.65.27,1.37.41,2.17.41s1.52-.14,2.17-.41c.65-.27,1.2-.65,1.67-1.14.46-.49.82-1.06,1.07-1.73s.37-1.4.37-2.2-.12-1.51-.37-2.18-.6-1.25-1.07-1.74c-.46-.49-1.02-.87-1.67-1.14-.65-.27-1.37-.41-2.17-.41s-1.52.14-2.17.41c-.65.27-1.2.65-1.67,1.14s-.82,1.07-1.07,1.74-.37,1.4-.37,2.18Z"/>
    <path class="cls-8" d="m1532.95,395.46h6.58c.86,0,1.68.08,2.46.25s1.46.45,2.04.84c.58.39,1.05.92,1.39,1.58.34.66.52,1.49.52,2.48,0,1.2-.31,2.22-.94,3.06-.62.84-1.54,1.37-2.74,1.6l4.32,7.18h-4.49l-3.55-6.79h-1.85v6.79h-3.74v-16.99Zm3.74,7.03h2.21c.34,0,.69-.01,1.07-.04.38-.02.72-.1,1.02-.22s.56-.31.76-.56c.2-.26.3-.62.3-1.08,0-.43-.09-.78-.26-1.03-.18-.26-.4-.45-.67-.59-.27-.14-.58-.23-.94-.28-.35-.05-.7-.07-1.03-.07h-2.45v3.86Z"/>
    <path class="cls-8" d="m1548.51,395.46h5.62c1.36,0,2.65.15,3.88.46,1.22.3,2.29.8,3.2,1.48.91.68,1.64,1.56,2.17,2.65.54,1.09.8,2.41.8,3.96,0,1.38-.26,2.59-.78,3.64-.52,1.05-1.22,1.93-2.1,2.64s-1.9,1.25-3.05,1.62c-1.15.37-2.36.55-3.62.55h-6.12v-16.99Zm3.74,13.54h1.94c.86,0,1.67-.09,2.41-.26s1.39-.47,1.93-.88c.54-.41.97-.94,1.28-1.61.31-.66.47-1.48.47-2.44,0-.83-.16-1.56-.47-2.17-.31-.62-.73-1.12-1.26-1.52-.53-.4-1.15-.7-1.86-.9-.71-.2-1.46-.3-2.24-.3h-2.21v10.08Z"/>
  </g>
  <path class="cls-10" d="m515.42,131.79c.35.42.69.78,1,1.18,4.35,5.69,1.33,14.14-6.06,15.44-3.49.61-6.31-.79-8.51-3.49-.47-.58-.84-1.23-1.23-1.81-.42.61-.81,1.3-1.31,1.9-2.08,2.52-4.76,3.81-8.04,3.48-3.36-.34-5.88-2.09-7.5-5.05-2.02-3.68-1.37-8.19,1.56-11.3.09-.1.19-.2.32-.34-3.29-.54-5.72-2.23-7.26-5.11-1.29-2.41-1.57-4.97-.78-7.6.88-2.93,2.77-5,5.59-6.17,2.81-1.17,5.58-.94,8.32.43-.04-.46-.09-.86-.11-1.27-.22-3.94,1.79-7.88,5.61-9.48,4.83-2.03,10.72.16,12.3,6.21.36,1.38.45,2.77.23,4.19-.02.1-.01.21-.02.35,3.26-1.59,6.47-1.6,9.6.23,2.36,1.38,3.86,3.46,4.47,6.13,1.23,5.38-2.17,11.2-8.18,12.09Zm-21.75-4.32c0-.35-.03-.67,0-.98.03-.28-.06-.42-.33-.45-.07,0-.13-.04-.2-.06-1.51-.49-3.03-.98-4.54-1.48-1.09-.36-1.48-1.56-.81-2.43.41-.52,1.06-.7,1.77-.47,1.68.54,3.36,1.09,5.04,1.63.28-.38.56-.76.83-1.13-.72-1.18-1.44-2.36-2.15-3.52-.06-.1-.13-.19-.22-.27-.88-.87-1.85-1.62-2.95-2.21-1.44-.76-2.96-1.05-4.56-.71-3.67.78-5.93,4.18-5.17,7.87.5,2.44,1.87,4.29,4.27,5.14,2.02.72,4.11.65,6.16.05.96-.28,1.9-.65,2.84-.98Zm12.95-4.24c.05-.02.11-.03.16-.05,1.63-.53,3.25-1.06,4.88-1.57.25-.08.53-.13.79-.09.73.1,1.25.67,1.31,1.36.06.74-.36,1.37-1.09,1.61-1.46.48-2.91.95-4.37,1.42q-.72.23-.72,1c0,.09.01.19,0,.28-.05.24.07.33.28.4.74.26,1.47.54,2.22.79,2.04.69,4.11.72,6.15.08,3.2-1,5.2-4.68,4.43-8.02-.79-3.42-4.01-5.62-7.46-5.1-1.54.24-2.84.99-4.04,1.94-.46.36-.95.73-1.26,1.21-.72,1.11-1.35,2.28-2,3.43-.05.09-.03.27.03.35.21.32.46.62.72.97Zm-11.25,8.17c-.2-.27-.4-.52-.57-.79-.11-.18-.22-.23-.43-.15-.66.25-1.33.45-1.99.7-1.66.63-3.18,1.49-4.48,2.71-2.5,2.35-2.97,5.86-1.14,8.64,2.14,3.23,6.84,4.31,9.97.79,1.33-1.5,1.96-3.33,2.2-5.27.15-1.23.11-2.48.14-3.72.02-.69,0-.69-.63-.9-.07-.02-.14-.03-.2-.07-.31-.2-.48-.06-.67.21-.94,1.32-1.89,2.62-2.85,3.93-.55.76-1.49.95-2.19.45-.72-.51-.85-1.47-.29-2.24.14-.2.29-.4.44-.6.89-1.23,1.79-2.47,2.68-3.69Zm10.49,0c.09.12.17.25.26.37.97,1.34,1.94,2.67,2.91,4.02.35.49.39,1.03.13,1.56-.26.52-.69.82-1.28.85-.59.03-1.04-.22-1.38-.69-.97-1.35-1.96-2.69-2.93-4.05-.15-.2-.27-.28-.51-.16-.22.1-.47.14-.7.23-.09.04-.22.16-.22.24.01,1.36-.04,2.73.09,4.08.16,1.67.69,3.26,1.65,4.66,1.36,1.98,3.17,3.15,5.66,2.92,3.66-.33,6.42-4.07,5.73-7.68-.35-1.82-1.32-3.23-2.72-4.38-1.72-1.4-3.73-2.22-5.81-2.91-.07-.02-.21.02-.26.08-.22.27-.41.56-.63.86Zm-2.64-11.06c.09-.14.15-.25.22-.36,1.32-2.1,2.1-4.44,2.85-6.78.35-1.08.36-2.16.15-3.26-.62-3.24-3.31-5.29-6.52-4.94-4.26.47-5.98,4.74-5.34,7.49.49,2.11,1.28,4.11,2.29,6.03.33.63.72,1.23,1.09,1.84.27-.09.51-.2.76-.24.3-.05.38-.19.38-.49-.02-1.65,0-3.31,0-4.96,0-.5.16-.92.55-1.24.48-.39,1.02-.48,1.58-.22.6.27.91.77.91,1.43.01,1.58,0,3.17,0,4.75q0,.61.57.79c.17.05.33.11.52.18Zm-6.51,6.43c0,2.15,1.73,3.92,3.86,3.93,2.15.01,3.92-1.74,3.94-3.9.01-2.12-1.76-3.9-3.89-3.91-2.14,0-3.91,1.75-3.91,3.88Z"/>
  <g>
    <path class="cls-11" d="m1042.68,234.1c.52-.15,1.03-.43,1.55-.44,4.87-.03,9.75-.02,14.62-.02.33,0,.66,0,1.08,0,0-1.54.02-3-.03-4.46,0-.18-.37-.43-.61-.51-3.22-1.15-6.03-2.86-7.92-5.82-.25-.4-.45-.84-.62-1.28-.16-.4-.22-.77-.76-.98-.61-.24-.54-1.21.09-1.49.32-.14.71-.17,1.06-.17,8.79,0,17.58,0,26.37,0,.3,0,.66-.02.9.12.27.16.58.47.62.76.04.25-.24.57-.41.84-.2.29-.52.52-.64.83-.79,2.01-2.15,3.59-3.91,4.74-1.49.97-3.18,1.64-4.76,2.46-.23.12-.55.37-.55.57-.05,1.43-.03,2.86-.03,4.39.4,0,.73,0,1.06,0,4.93,0,9.86,0,14.79.01.39,0,.85.12,1.15.35.48.37.31,1.07-.23,1.42-.23.14-.48.36-.57.59-1.22,3.5-3.66,5.56-7.3,6.21-.1.02-.19.1-.28.16h-26.04c-.15-.06-.29-.14-.45-.17-3.26-.65-5.62-2.45-6.87-5.55-.28-.7-.55-1.3-1.3-1.54,0-.34,0-.68,0-1.01Zm40.36,1.54h-37.44c.98,2.9,3.71,4.88,6.76,4.88,7.97.02,15.95.02,23.92,0,3.05,0,5.79-2,6.76-4.88Zm-30.49-14.73c1.23,3.77,6.85,6.72,12.58,6.65,4.44-.06,9.98-3.41,10.95-6.65h-23.53Zm9.28,8.5v4.17h4.96v-4.17h-4.96Z"/>
    <path class="cls-11" d="m1065.3,218.18h-1.94c0-.82,0-1.62,0-2.43,0-1.58-.92-2.61-2.39-2.72-1.3-.1-2.39.85-2.61,2.31-.09.62-.31,1.15-1.02,1.09-.76-.06-.85-.63-.81-1.3.2-2.95,3.36-4.8,6.14-3.58.17.08.34.17.66.32-.04-1.74-.77-2.99-2.04-3.92-1.64-1.2-3.47-1.32-5.27-.48-1.76.82-2.69,2.31-2.86,4.26-.06.65-.17,1.29-1.04,1.22-.82-.07-.82-.71-.8-1.32.07-3.12,2.77-6.05,5.87-6.45,2.22-.29,4.15.31,6.01,1.67-.19-.52-.32-1.06-.56-1.56-1.48-3.04-4.83-4.84-8.04-4.33-3.38.53-5.97,3.1-6.53,6.49-.06.33-.12.67-.12,1,0,.64-.29,1.07-.93,1.06-.63,0-.93-.44-.91-1.08.09-2.39.91-4.48,2.51-6.27,3.28-3.65,9.06-4.22,13.03-1,1.06.86,1.86,2.05,2.79,3.1.93-1.76,2.34-3.22,4.25-4.19,5.78-2.94,12.79.66,13.73,7.08.06.41.11.83.14,1.25.05.63-.24,1.08-.88,1.1-.63.02-.92-.39-.95-1.04-.21-3.83-2.69-6.69-6.47-7.48-3.75-.79-8.23,2.22-8.7,5.74,1.02-.46,2.05-1.08,3.16-1.39,3.91-1.1,8,1.65,8.58,5.68.05.33.14.72.02,1-.15.36-.45.79-.78.91-.54.18-.88-.21-.99-.76-.12-.63-.18-1.28-.38-1.89-.76-2.23-2.81-3.44-5.4-3.27-2,.13-4,1.93-4.41,3.98-.05.24-.03.49-.04.78.63-.17,1.2-.37,1.78-.48,2.55-.51,5.12,1.62,5.06,4.18-.01.55-.3,1.01-.83.96-.35-.04-.75-.41-.96-.73-.21-.33-.17-.82-.33-1.2-.44-1.06-1.55-1.6-2.76-1.38-1.06.19-1.93,1.13-1.98,2.21-.04.92,0,1.85,0,2.87Z"/>
  </g>
  <g>
    <g>
      <path class="cls-6" d="m1484.77,513.27h-23.83c-.51,0-.92-.41-.92-.92v-8.25c0-.51.41-.92.92-.92h4.58c.51,0,.92.41.92.92v2.75h2.75v-2.75c0-.51.41-.92.92-.92h5.5c.51,0,.92.41.92.92v2.75h2.75v-2.75c0-.51.41-.92.92-.92h4.58c.51,0,.92.41.92.92v8.25c0,.51-.41.92-.92.92Zm-22.92-1.83h22v-6.42h-2.75v2.75c0,.51-.41.92-.92.92h-4.58c-.51,0-.92-.41-.92-.92v-2.75h-3.67v2.75c0,.51-.41.92-.92.92h-4.58c-.51,0-.92-.41-.92-.92v-2.75h-2.75v6.42Z"/>
      <path class="cls-3" d="m1484.77,513.77h-23.83c-.78,0-1.42-.64-1.42-1.42v-8.25c0-.78.64-1.42,1.42-1.42h4.58c.78,0,1.42.64,1.42,1.42v2.25h1.75v-2.25c0-.78.64-1.42,1.42-1.42h5.5c.78,0,1.42.64,1.42,1.42v2.25h1.75v-2.25c0-.78.64-1.42,1.42-1.42h4.58c.78,0,1.42.64,1.42,1.42v8.25c0,.78-.64,1.42-1.42,1.42Zm-23.83-10.08c-.23,0-.42.19-.42.42v8.25c0,.23.19.42.42.42h23.83c.23,0,.42-.19.42-.42v-8.25c0-.23-.19-.42-.42-.42h-4.58c-.23,0-.42.19-.42.42v3.25h-3.75v-3.25c0-.23-.19-.42-.42-.42h-5.5c-.23,0-.42.19-.42.42v3.25h-3.75v-3.25c0-.23-.19-.42-.42-.42h-4.58Zm23.42,8.25h-23v-7.42h3.75v3.25c0,.23.19.42.42.42h4.58c.23,0,.42-.19.42-.42v-3.25h4.67v3.25c0,.23.19.42.42.42h4.58c.23,0,.42-.19.42-.42v-3.25h3.75v7.42Zm-22-1h21v-5.42h-1.75v2.25c0,.78-.64,1.42-1.42,1.42h-4.58c-.78,0-1.42-.64-1.42-1.42v-2.25h-2.67v2.25c0,.78-.64,1.42-1.42,1.42h-4.58c-.78,0-1.42-.64-1.42-1.42v-2.25h-1.75v5.42Z"/>
    </g>
    <g>
      <path class="cls-6" d="m1450.85,545.36h44v1.83h-44v-1.83Z"/>
      <path class="cls-3" d="m1495.35,547.69h-45v-2.83h45v2.83Zm-44-1h43v-.83h-43v.83Z"/>
    </g>
    <g>
      <path class="cls-6" d="m1481.1,547.19h-16.5c-.51,0-.92-.41-.92-.92v-29.33c0-.51.41-.92.92-.92h16.5c.51,0,.92.41.92.92v29.33c0,.51-.41.92-.92.92Zm-15.58-1.83h14.67v-27.5h-14.67v27.5Z"/>
      <path class="cls-3" d="m1481.1,547.69h-16.5c-.78,0-1.42-.64-1.42-1.42v-29.33c0-.78.64-1.42,1.42-1.42h16.5c.78,0,1.42.64,1.42,1.42v29.33c0,.78-.64,1.42-1.42,1.42Zm-16.5-31.17c-.23,0-.42.19-.42.42v29.33c0,.23.19.42.42.42h16.5c.23,0,.42-.19.42-.42v-29.33c0-.23-.19-.42-.42-.42h-16.5Zm16.08,29.33h-15.67v-28.5h15.67v28.5Zm-14.67-1h13.67v-26.5h-13.67v26.5Z"/>
    </g>
    <g>
      <path class="cls-6" d="m1476.52,547.19h-7.33c-.51,0-.92-.41-.92-.92v-9.17c0-2.53,2.05-4.58,4.58-4.58s4.58,2.05,4.58,4.58v9.17c0,.51-.41.92-.92.92Zm-6.42-1.83h5.5v-8.25c0-1.52-1.23-2.75-2.75-2.75s-2.75,1.23-2.75,2.75v8.25Z"/>
      <path class="cls-3" d="m1476.52,547.69h-7.33c-.78,0-1.42-.64-1.42-1.42v-9.17c0-2.8,2.28-5.08,5.08-5.08s5.08,2.28,5.08,5.08v9.17c0,.78-.64,1.42-1.42,1.42Zm-3.67-14.67c-2.25,0-4.08,1.83-4.08,4.08v9.17c0,.23.19.42.42.42h7.33c.23,0,.42-.19.42-.42v-9.17c0-2.25-1.83-4.08-4.08-4.08Zm3.25,12.83h-6.5v-8.75c0-1.79,1.46-3.25,3.25-3.25s3.25,1.46,3.25,3.25v8.75Zm-5.5-1h4.5v-7.75c0-1.24-1.01-2.25-2.25-2.25s-2.25,1.01-2.25,2.25v7.75Z"/>
    </g>
    <g>
      <path class="cls-6" d="m1476.52,529.77h-7.33c-.51,0-.92-.41-.92-.92v-3.67c0-2.53,2.05-4.58,4.58-4.58s4.58,2.05,4.58,4.58v3.67c0,.51-.41.92-.92.92Zm-6.42-1.83h5.5v-2.75c0-1.52-1.23-2.75-2.75-2.75s-2.75,1.23-2.75,2.75v2.75Z"/>
      <path class="cls-3" d="m1476.52,530.27h-7.33c-.78,0-1.42-.64-1.42-1.42v-3.67c0-2.8,2.28-5.08,5.08-5.08s5.08,2.28,5.08,5.08v3.67c0,.78-.64,1.42-1.42,1.42Zm-3.67-9.17c-2.25,0-4.08,1.83-4.08,4.08v3.67c0,.23.19.42.42.42h7.33c.23,0,.42-.19.42-.42v-3.67c0-2.25-1.83-4.08-4.08-4.08Zm3.25,7.33h-6.5v-3.25c0-1.79,1.46-3.25,3.25-3.25s3.25,1.46,3.25,3.25v3.25Zm-5.5-1h4.5v-2.25c0-1.24-1.01-2.25-2.25-2.25s-2.25,1.01-2.25,2.25v2.25Z"/>
    </g>
    <g>
      <path class="cls-6" d="m1482.93,517.86h-20.17c-.51,0-.92-.41-.92-.92v-4.58c0-.51.41-.92.92-.92h20.17c.51,0,.92.41.92.92v4.58c0,.51-.41.92-.92.92Zm-19.25-1.83h18.33v-2.75h-18.33v2.75Z"/>
      <path class="cls-3" d="m1482.93,518.36h-20.17c-.78,0-1.42-.64-1.42-1.42v-4.58c0-.78.64-1.42,1.42-1.42h20.17c.78,0,1.42.64,1.42,1.42v4.58c0,.78-.64,1.42-1.42,1.42Zm-20.17-6.42c-.23,0-.42.19-.42.42v4.58c0,.23.19.42.42.42h20.17c.23,0,.42-.19.42-.42v-4.58c0-.23-.19-.42-.42-.42h-20.17Zm19.75,4.58h-19.33v-3.75h19.33v3.75Zm-18.33-1h17.33v-1.75h-17.33v1.75Z"/>
    </g>
    <g>
      <path class="cls-6" d="m1462.77,532.52h-11c-.51,0-.92-.41-.92-.92v-8.25c0-.51.41-.92.92-.92h4.58c.51,0,.92.41.92.92v2.75h2.75v-2.75c0-.51.41-.92.92-.92h1.83v1.83h-.92v2.75c0,.51-.41.92-.92.92h-4.58c-.51,0-.92-.41-.92-.92v-2.75h-2.75v6.42h10.08v1.83Z"/>
      <path class="cls-3" d="m1463.27,533.02h-11.5c-.78,0-1.42-.64-1.42-1.42v-8.25c0-.78.64-1.42,1.42-1.42h4.58c.78,0,1.42.64,1.42,1.42v2.25h1.75v-2.25c0-.78.64-1.42,1.42-1.42h2.33v2.83h-.92v2.25c0,.78-.64,1.42-1.42,1.42h-4.58c-.78,0-1.42-.64-1.42-1.42v-2.25h-1.75v5.42h10.08v2.83Zm-11.5-10.08c-.23,0-.42.19-.42.42v8.25c0,.23.19.42.42.42h10.5v-.83h-10.08v-7.42h3.75v3.25c0,.23.19.42.42.42h4.58c.23,0,.42-.19.42-.42v-3.25h.92v-.83h-1.33c-.23,0-.42.19-.42.42v3.25h-3.75v-3.25c0-.23-.19-.42-.42-.42h-4.58Z"/>
    </g>
    <g>
      <path class="cls-6" d="m1452.68,531.61h1.83v14.67h-1.83v-14.67Z"/>
      <path class="cls-3" d="m1455.02,546.77h-2.83v-15.67h2.83v15.67Zm-1.83-1h.83v-13.67h-.83v13.67Z"/>
    </g>
    <g>
      <path class="cls-6" d="m1493.93,532.52h-11v-1.83h10.08v-6.42h-2.75v2.75c0,.51-.41.92-.92.92h-4.58c-.51,0-.92-.41-.92-.92v-2.75h-.92v-1.83h1.83c.51,0,.92.41.92.92v2.75h2.75v-2.75c0-.51.41-.92.92-.92h4.58c.51,0,.92.41.92.92v8.25c0,.51-.41.92-.92.92Z"/>
      <path class="cls-3" d="m1493.93,533.02h-11.5v-2.83h10.08v-5.42h-1.75v2.25c0,.78-.64,1.42-1.42,1.42h-4.58c-.78,0-1.42-.64-1.42-1.42v-2.25h-.92v-2.83h2.33c.78,0,1.42.64,1.42,1.42v2.25h1.75v-2.25c0-.78.64-1.42,1.42-1.42h4.58c.78,0,1.42.64,1.42,1.42v8.25c0,.78-.64,1.42-1.42,1.42Zm-10.5-1h10.5c.23,0,.42-.19.42-.42v-8.25c0-.23-.19-.42-.42-.42h-4.58c-.23,0-.42.19-.42.42v3.25h-3.75v-3.25c0-.23-.19-.42-.42-.42h-1.33v.83h.92v3.25c0,.23.19.42.42.42h4.58c.23,0,.42-.19.42-.42v-3.25h3.75v7.42h-10.08v.83Z"/>
    </g>
    <g>
      <path class="cls-6" d="m1491.18,531.61h1.83v14.67h-1.83v-14.67Z"/>
      <path class="cls-3" d="m1493.52,546.77h-2.83v-15.67h2.83v15.67Zm-1.83-1h.83v-13.67h-.83v13.67Z"/>
    </g>
  </g>
  <path class="cls-10" d="m1231.73,616.16c-.36.84-.97,1.22-1.91,1.22-1.28,0-2.46.47-3.61,1.01-1.41.66-2.8,1.45-4.29,1.82-5.1,1.27-11.85-1.05-13.73-8.23-.91-3.46-.43-6.74,1.74-9.66,1.82-2.44,5.42-3.28,8.07-1.93.35.18.69.41.99.67.3.25.55.57.82.85.88-1.02.97-2.78.18-4.1-.92-1.53-2.36-2.38-4.06-2.6-5.91-.78-10.73,1.12-14.07,6.17-1.39,2.1-2.55,4.35-3.79,6.56-1.08,1.93-2.19,3.84-3.68,5.5-2.4,2.66-5.4,3.95-8.98,3.92-.93,0-1.62-.69-1.62-1.59,0-.89.66-1.59,1.57-1.59,3.32,0,5.87-1.45,7.67-4.17,1.21-1.84,2.27-3.79,3.34-5.72,1.38-2.49,2.77-4.97,4.71-7.08,2.95-3.21,6.62-4.92,10.94-5.31,2.12-.19,4.22-.17,6.24.62,2.68,1.04,4.66,2.8,5.29,5.7.63,2.9-.31,5.31-2.61,7.17-.6.49-1.29.82-2.1.79-.72-.03-1.37-.62-1.48-1.32-.23-1.49-1.02-2.07-2.55-1.85-1.09.16-1.94.66-2.58,1.6-2.64,3.92-1.1,11.02,4.99,12.47,2.11.5,4.11.28,6.03-.76,1.42-.77,2.84-1.54,4.44-1.86.75-.15,1.51-.2,2.27-.27.9-.08,1.41.44,1.76,1.19v.8Z"/>
  <path class="cls-10" d="m1231.73,624.15c-.36.84-.97,1.22-1.91,1.22-1.35,0-2.59.47-3.81,1.03-1.43.65-2.86,1.37-4.36,1.8-2.69.76-5.33.35-7.85-.85-.67-.32-1.35-.65-2.02-.98-2.68-1.34-5.35-1.32-8.04,0-1.32.65-2.66,1.31-4.06,1.74-3.1.95-6.07.39-8.91-1.08-1.22-.63-2.44-1.29-3.83-1.52-.51-.08-1.02-.13-1.53-.16-.93-.04-1.6-.72-1.6-1.63,0-.9.7-1.56,1.64-1.57,1.96-.03,3.76.54,5.5,1.37,1.03.49,2.06,1.03,3.13,1.4,2.09.73,4.16.5,6.15-.43,1.1-.51,2.17-1.08,3.3-1.53,3.13-1.24,6.23-1.07,9.28.33,1.19.55,2.35,1.18,3.58,1.61,2.1.75,4.18.52,6.2-.42,1.25-.58,2.47-1.24,3.77-1.68,1.05-.36,2.2-.47,3.31-.65.98-.15,1.67.27,2.06,1.19v.8Z"/>
  <path class="cls-2" d="m1195.39,636.53c-.85-.21-1.73-.34-2.54-.65-1.13-.43-2.22-.96-3.31-1.49-1.33-.65-2.72-1.05-4.21-1.07-.88-.01-1.54-.75-1.52-1.64.02-.86.69-1.53,1.57-1.55,1.99-.05,3.83.53,5.6,1.38,1.06.51,2.12,1.03,3.23,1.42,1.88.66,3.77.5,5.59-.27,1.27-.54,2.48-1.2,3.76-1.71,3.13-1.25,6.23-1.06,9.28.34,1.19.55,2.35,1.18,3.58,1.61,2.1.74,4.18.51,6.19-.43,1.25-.58,2.47-1.24,3.77-1.68,1.05-.36,2.19-.47,3.3-.65.98-.15,1.67.27,2.05,1.19v.8c-.36.87-1,1.19-1.95,1.23-.86.04-1.75.22-2.56.53-1.31.5-2.54,1.21-3.85,1.72-1.04.4-2.15.62-3.23.91h-2.4c-.42-.09-.84-.17-1.26-.26-1.66-.35-3.15-1.14-4.64-1.89-2.73-1.37-5.43-1.36-8.17,0-1.36.67-2.79,1.22-4.21,1.77-.53.21-1.12.26-1.68.38h-2.4Z"/>
  <path class="cls-8" d="m1197.78,636.53c.56-.12,1.15-.17,1.68-.38,1.42-.55,2.85-1.1,4.21-1.77,2.74-1.36,5.44-1.37,8.17,0,1.5.75,2.98,1.54,4.64,1.89.42.09.84.17,1.26.26h-19.97Z"/>
  <path class="cls-1" d="m591.11,787.41c52.71-52.25,137.63-51.87,189.88.84"/>
  <g>
    <path class="cls-8" d="m239.76,593.03c1.35.6,3.4,1.15,5.48,1.03,2.24-.13,3.37-1.12,3.28-2.53-.08-1.34-1.14-2.05-3.79-2.83-3.65-1.04-6.1-2.89-6.28-6.02-.21-3.67,2.69-6.66,7.77-6.96,2.43-.14,4.25.27,5.56.77l-.86,3.99c-.89-.37-2.46-.88-4.56-.76-2.11.12-3.08,1.14-3.01,2.26.08,1.37,1.33,1.91,4.17,2.8,3.88,1.19,5.79,3.06,5.96,6.1.21,3.61-2.39,6.84-8.31,7.18-2.46.14-4.93-.36-6.18-.96l.76-4.08Z"/>
    <path class="cls-8" d="m260.54,579.5l-5.79.21-.15-4.09,16.57-.6.15,4.09-5.88.21.63,17.46-4.89.18-.63-17.46Z"/>
    <path class="cls-8" d="m277.07,590.95l-1.45,5.56-5.06.08,6.25-21.67,6.4-.1,7.03,21.46-5.25.08-1.75-5.51-6.18.1Zm5.41-3.73l-1.42-4.55c-.4-1.27-.81-2.87-1.15-4.14h-.06c-.3,1.29-.59,2.92-.93,4.18l-1.21,4.6,4.77-.08Z"/>
    <path class="cls-8" d="m293.16,575.02c1.57-.24,3.91-.42,6.5-.4,3.2.02,5.44.52,6.96,1.75,1.27,1.03,1.96,2.54,1.95,4.53-.02,2.75-1.99,4.62-3.85,5.28v.1c1.5.62,2.32,2.07,2.85,4.05.65,2.44,1.3,5.26,1.71,6.09l-4.99-.04c-.35-.61-.85-2.37-1.47-5.04-.56-2.69-1.48-3.44-3.46-3.48h-1.47s-.06,8.47-.06,8.47l-4.83-.04.16-21.28Zm4.76,9.32h1.92c2.43.03,3.88-1.17,3.9-3.06.02-1.98-1.32-2.99-3.56-3.04-1.18,0-1.86.08-2.21.14l-.05,5.95Z"/>
    <path class="cls-8" d="m316.52,579.15l-5.79-.17.12-4.09,16.57.48-.12,4.09-5.88-.17-.51,17.46-4.89-.14.51-17.46Z"/>
  </g>
  <g>
    <path class="cls-7" d="m1380.45,326.88c23.6,2.93,56.91,13.78,56.91,13.78l-12.37-24.57,26.14-14.04s-24.24-10.18-65.51-14.73"/>
    <path class="cls-3" d="m1443.61,346.01l-7.23-2.38c-.33-.11-33.35-10.78-56.33-13.65l.78-6.29c17.23,2.14,39.19,8.32,50.34,11.68l-10.4-20.7,22.6-12.17c-9.78-3.19-29.96-8.96-58.11-12.05l.69-6.3c41.24,4.54,65.38,14.46,66.39,14.92l6.14,2.56-29.28,15.8,14.39,28.58Z"/>
    <path class="cls-7" d="m1278.25,329c-23.6,2.93-56.91,13.76-56.91,13.76l12.37-24.57-26.14-14.04s24.24-10.18,65.51-14.72"/>
    <path class="cls-3" d="m1217.09,348.14l14.4-28.63-29.28-15.8,6.14-2.56c1.01-.42,25.14-10.35,66.39-14.92l.69,6.3c-28.17,3.1-48.39,8.85-58.12,12.08l22.61,12.18-10.42,20.7c11.15-3.36,33.12-9.54,50.34-11.68l.78,6.29c-23.02,2.86-55.99,13.53-56.33,13.65l-7.22,2.39Z"/>
    <path class="cls-7" d="m1410.41,312.28c-.31-.09-31.37-9.16-81.32-9.16-48.73,0-81.17,9.08-81.49,9.17l-2.41.68-6.87-44.16,2.41-.61c.37-.1,37.53-9.3,88.34-9.3,50.53,0,87.97,9.2,88.34,9.3l2.42.61-7,44.18-2.42-.72Z"/>
    <path class="cls-3" d="m1330.94,262.09c50.37,0,86.95,9.24,86.95,9.24l-5.94,37.86s-30.64-9.25-81.01-9.25c-49.04,0-81.14,9.24-81.14,9.24l-5.83-37.86s36.33-9.24,86.96-9.24m0-6.34c-21.05.01-42.09,1.57-63.01,4.66-15.42,2.31-24.48,4.6-24.86,4.69l-4.74,1.21.94,6.24,5.81,37.86.96,6.31,4.76-1.37c.08,0,8.09-2.3,21.95-4.55,19.32-3.06,38.76-4.58,58.21-4.55,49.21,0,79.66,8.99,79.96,9.08l4.78,1.44.99-6.34,5.94-37.86.99-6.3-4.79-1.21c-.38-.1-9.51-2.39-24.97-4.69-20.89-3.09-41.88-4.64-62.9-4.66l-.03.04Z"/>
    <polygon class="cls-3" points="1280.1 305.28 1245.22 316.67 1280.64 331.74 1280.1 305.28"/>
    <polygon class="cls-3" points="1381.24 307.75 1380.71 329.81 1414.37 316.9 1381.24 307.75"/>
  </g>
  <g>
    <path class="cls-8" d="m1283.69,271.98l13.16-.76.23,3.99-8.28.48.28,4.92,7.73-.45.23,3.96-7.73.45.5,8.66-4.89.28-1.24-21.54Z"/>
    <path class="cls-8" d="m1305.66,270.86l.9,21.55-4.89.2-.89-21.55,4.89-.2Z"/>
    <path class="cls-8" d="m1310.67,292.21l-.49-21.57,5.7-.13,4.66,7.8c1.33,2.24,2.67,4.9,3.69,7.31h.1c-.39-2.84-.55-5.75-.62-8.98l-.14-6.3,4.48-.1.49,21.57-5.12.12-4.8-8.21c-1.33-2.27-2.8-5.03-3.92-7.53l-.1.03c.19,2.84.33,5.88.41,9.4l.15,6.5-4.48.1Z"/>
    <path class="cls-8" d="m1337.46,270.22l.09,21.57-4.9.02-.09-21.57,4.9-.02Z"/>
    <path class="cls-8" d="m1341.91,286.74c1.3.69,3.31,1.38,5.39,1.4,2.24.02,3.43-.89,3.45-2.3.02-1.34-1-2.12-3.58-3.08-3.57-1.29-5.88-3.3-5.85-6.43.04-3.68,3.14-6.46,8.23-6.41,2.43.03,4.22.56,5.49,1.15l-1.13,3.92c-.86-.43-2.39-1.05-4.5-1.07-2.11-.02-3.15.93-3.16,2.05-.02,1.38,1.19,2,3.97,3.08,3.79,1.45,5.56,3.45,5.53,6.49-.04,3.62-2.86,6.66-8.78,6.59-2.46-.03-4.89-.69-6.1-1.38l1.04-4.02Z"/>
    <path class="cls-8" d="m1364.48,270.59l-.28,8.28,8.03.28.28-8.28,4.86.17-.74,21.56-4.86-.17.31-9.02-8.03-.28-.31,9.02-4.89-.17.74-21.56,4.89.17Z"/>
  </g>
</svg>