<?xml version="1.0" encoding="UTF-8"?>
<svg id="Layer_2" data-name="Layer 2" xmlns="http://www.w3.org/2000/svg" viewBox="0 0 1117.95 1318.04">
  <defs>
    <style>
      .cls-1, .cls-2 {
        stroke-width: 40px;
      }

      .cls-1, .cls-2, .cls-3, .cls-4, .cls-5, .cls-6, .cls-7, .cls-8, .cls-9, .cls-10 {
        stroke: #3a3a3c;
      }

      .cls-1, .cls-2, .cls-4, .cls-5, .cls-11, .cls-6, .cls-7, .cls-8, .cls-9 {
        stroke-miterlimit: 10;
      }

      .cls-1, .cls-12 {
        fill: #fbf8c6;
      }

      .cls-2, .cls-8, .cls-13 {
        fill: #3a3a3c;
      }

      .cls-3 {
        stroke-width: 12px;
      }

      .cls-3, .cls-9, .cls-10 {
        fill: none;
      }

      .cls-3, .cls-10 {
        stroke-linecap: round;
        stroke-linejoin: round;
      }

      .cls-4, .cls-5, .cls-9 {
        stroke-width: 22px;
      }

      .cls-4, .cls-14 {
        fill: #fbf4c3;
      }

      .cls-5, .cls-7, .cls-15 {
        fill: #dc212e;
      }

      .cls-11 {
        fill: #ffbb43;
        stroke: #fbf4c3;
        stroke-width: 30px;
      }

      .cls-16 {
        fill: #7c7c7c;
      }

      .cls-16, .cls-17 {
        opacity: .5;
      }

      .cls-16, .cls-18, .cls-19, .cls-20, .cls-13, .cls-15, .cls-21, .cls-22, .cls-14, .cls-12 {
        stroke-width: 0px;
      }

      .cls-6 {
        fill: #d49e5c;
      }

      .cls-6, .cls-7, .cls-8, .cls-10 {
        stroke-width: 15px;
      }

      .cls-18 {
        fill: #008e57;
      }

      .cls-18, .cls-19 {
        fill-rule: evenodd;
      }

      .cls-19 {
        fill: #006d41;
      }

      .cls-23 {
        opacity: .99;
      }

      .cls-20 {
        fill: #93ceb7;
      }

      .cls-21 {
        fill: #afafaf;
      }

      .cls-22 {
        fill: #a30032;
      }
    </style>
  </defs>
  <g id="Layer_1-2">
    <g>
      <g>
        <path class="cls-2" d="m890.96,1167.2c-6.94,0-12.9-2.61-17.23-7.56l-.21-.24c-3.2-3.93-5.07-9.19-5.53-15.62-.39-5.41.09-11.54,1.46-18.74.35-1.99.72-3.97,1.12-5.9.4-1.95.83-4.01,1.3-6.18l.05-.25.07-.25c.79-2.86,1.5-5.95,2.11-9.2.62-3.31,1.19-6.81,1.67-10.41l.02-.17,1.74-9.96c.47-2.71.97-5.54,1.5-8.49.02-.14.03-.29.05-.43-.86.29-1.69.57-2.42.81-5.12,1.72-8.35,2.8-9.95,3.21-2.25.58-4.44.88-6.49.88-2.53,0-4.93-.44-7.13-1.32-4.65-1.81-7.85-5.9-8.78-11.24-.56-3.23-.61-6.31-.13-9.16.49-3.27,1.63-6.4,3.4-9.32,2.03-3.35,4.56-5.83,7.53-7.37l.31-.15c3.52-1.66,20.38-8.17,24.06-9.45,3.76-1.31,7.05-2.45,9.86-3.44,2.48-.95,5.03-1.94,7.66-2.96,2.81-1.1,5.71-2.17,8.61-3.18,4-1.37,8.23-2.76,12.65-4.14,4.84-1.52,9.64-2.54,14.27-3.04,1.78-.26,3.57-.39,5.34-.39,2.52,0,5.04.27,7.5.79,6.22,1.34,9.91,4.46,12,7.07,2.51,2.62,5.1,7,4.53,13.64l-.06.73-.18.71c-.85,3.34-2.55,6.41-5.07,9.13-2.15,2.33-4.79,4.36-7.86,6.04l-.17.09-.17.08c-3.78,1.86-7.47,2.98-10.97,3.33-1.44.14-3.14.64-5.02,1.47-.92.44-1.32.71-1.42.79-.03.03-.05.05-.07.07-.01.05-.03.11-.05.2-.24,1.19-.53,2.6-.88,4.25l-.05.26-.07.25c-1.62,5.88-3.02,11.82-4.15,17.67-1.18,6.09-2.31,12.21-3.37,18.16l-.03.18c-.43,2.14-.81,4.36-1.15,6.58-.37,2.42-.78,4.79-1.22,7.06-.38,3.15-.86,6.64-1.42,10.38-.56,3.73-1.03,7.15-1.4,10.2-.29,2.43-.62,4.96-.97,7.6-.38,2.77-.81,5.4-1.29,7.83l-.03.15c-.79,3.68-2.09,6.99-3.87,9.85-2.53,4.08-6.62,6.81-12.17,8.14-2.71.65-5.33.98-7.79.98Z"/>
        <path class="cls-1" d="m937.86,1022.51c1.89,0,3.76.2,5.61.59,3.2.69,5.56,2.1,7.1,4.22,1.81,1.71,2.59,4.02,2.35,6.93-.48,1.88-1.46,3.63-2.96,5.24-1.49,1.62-3.35,3.04-5.57,4.25-2.82,1.39-5.45,2.2-7.88,2.45-2.44.24-5.08.99-7.9,2.25-1.63.78-2.85,1.52-3.64,2.24-.79.72-1.43,1.48-1.91,2.31-.48.82-.83,1.81-1.05,2.94-.23,1.14-.51,2.5-.85,4.11-1.7,6.17-3.14,12.29-4.31,18.36-1.17,6.07-2.31,12.17-3.4,18.29-.45,2.27-.86,4.6-1.22,6.99-.37,2.39-.77,4.72-1.22,6.99-.38,3.18-.86,6.67-1.43,10.46-.57,3.79-1.05,7.28-1.43,10.46-.29,2.39-.61,4.88-.96,7.47-.35,2.59-.75,5.02-1.2,7.29-.58,2.67-1.48,5.01-2.72,7-1.24,1.99-3.44,3.37-6.61,4.13-2.04.49-3.94.73-5.7.73-4.36,0-7.84-1.5-10.47-4.49-2.02-2.48-3.2-6.01-3.53-10.59-.33-4.58.11-10.07,1.34-16.47.33-1.86.68-3.76,1.08-5.7.4-1.93.82-3.97,1.28-6.11.85-3.08,1.61-6.39,2.27-9.93.67-3.53,1.24-7.16,1.75-10.88.65-3.73,1.22-6.99,1.71-9.79.49-2.8,1-5.72,1.55-8.79.08-.92.3-2.22.64-3.89.34-1.67.57-3.26.69-4.78.12-1.52,0-2.76-.38-3.72-.31-.79-.85-1.18-1.62-1.18-.17,0-.34.02-.53.06-3.03.61-19.12,6.33-22.29,7.15-1.52.39-2.93.59-4.23.59-1.41,0-2.69-.23-3.84-.7-1.74-.66-2.8-2.13-3.2-4.4-.4-2.27-.43-4.34-.11-6.21.31-2.12,1.04-4.15,2.21-6.08,1.16-1.92,2.49-3.27,3.97-4.03,2.97-1.4,19.37-7.76,23.18-9.09,3.82-1.33,7.15-2.49,10-3.49,2.54-.97,5.15-1.98,7.84-3.03,2.69-1.05,5.45-2.07,8.3-3.07,3.89-1.33,8.02-2.68,12.38-4.05,4.35-1.37,8.59-2.27,12.7-2.7,1.41-.21,2.81-.32,4.2-.32m0-18c-2.14,0-4.31.15-6.46.46-5.17.57-10.49,1.71-15.84,3.38-4.5,1.42-8.81,2.83-12.81,4.2l-.06.02-.06.02c-3.01,1.05-6.01,2.16-8.9,3.29-2.58,1.01-5.07,1.97-7.5,2.9-2.78.97-6.02,2.1-9.71,3.39-3.66,1.28-20.89,7.9-24.95,9.81l-.31.14-.3.16c-4.46,2.31-8.19,5.91-11.09,10.7-2.37,3.92-3.91,8.14-4.58,12.57-.63,3.83-.58,7.91.15,12.12,1.48,8.51,6.7,15.09,14.35,18.07,3.25,1.29,6.76,1.94,10.43,1.94,2.41,0,4.91-.29,7.46-.86l-.72,4.12-.06.35-.05.35c-.46,3.45-1,6.79-1.6,9.94-.57,3.01-1.22,5.87-1.94,8.48l-.14.49-.11.5c-.47,2.2-.91,4.29-1.32,6.28-.41,1.97-.8,4.02-1.16,6.07-1.52,7.95-2.03,14.83-1.59,21.01.6,8.32,3.14,15.27,7.53,20.66l.2.25.21.24c6,6.85,14.53,10.63,24.01,10.63,3.16,0,6.49-.41,9.89-1.23,9.87-2.36,15.08-7.9,17.71-12.14,2.32-3.75,4.01-8.02,5.02-12.71l.03-.15.03-.15c.51-2.6.98-5.41,1.38-8.35.37-2.76.7-5.35.99-7.74.35-2.96.81-6.3,1.36-9.93.56-3.72,1.03-7.19,1.42-10.32.44-2.29.85-4.67,1.22-7.09.32-2.12.68-4.2,1.08-6.21l.04-.18.03-.18c1.05-5.91,2.18-11.97,3.35-18.03,1.08-5.61,2.43-11.32,3.99-16.98l.14-.5.05-.26c4.44-.5,9.03-1.9,13.64-4.17l.35-.17.34-.19c3.93-2.15,7.34-4.78,10.16-7.84,3.53-3.82,5.95-8.2,7.17-13l.36-1.43.13-1.47c.67-7.8-1.71-14.95-6.72-20.34-3.09-3.76-8.35-8.1-16.86-9.94-3.1-.67-6.26-1-9.41-1h0Z"/>
      </g>
      <path class="cls-14" d="m1027.16,1065.62c-21.72-14.61-50.17-22.04-80.09-20.94-29.92,1.11-57.73,10.62-78.32,26.79-20.59,16.17-31.48,37.07-30.68,58.83.13,3.58.59,7.12,1.34,10.59-26,1.91-48.42,12.78-61.58,28.11-18.45-14.89-45.66-23.8-75.63-22.69-25.25.93-48.02,8.82-64.92,20.97-5.81-8.54-13.76-16.31-23.65-22.96-21.71-14.58-50.12-22-80.01-20.9-29.89,1.11-57.68,10.6-78.25,26.75-2.16,1.69-4.2,3.44-6.14,5.23-15.45-18.86-44.36-30.99-76.93-29.78-37.54,1.39-68.92,20.07-79.93,44.89-14.33-8.17-32.67-12.76-52.47-12.02-2,.07-3.98.22-5.94.4-7.67-32.06-46.91-55.54-93.08-53.83-50.69,1.87-90.83,33.4-89.46,70.28s43.72,65.36,94.41,63.48c6.89-.25,13.59-1.06,20.01-2.35,10.82,23.66,42.15,40.09,78.38,38.75,33.39-1.23,61.52-17.21,72.8-38.81,14.63,9.27,33.7,14.89,54.54,15.05,6.15,15.33,26.03,26.11,49.1,25.25,14.59-.54,27.56-5.62,36.39-13.26.84.6,1.7,1.2,2.57,1.79,21.71,14.58,50.12,22,80.01,20.9,29.89-1.11,57.68-10.6,78.25-26.75,1.45-1.14,2.84-2.3,4.19-3.48,17.69,20.38,49.55,33.35,85.36,32.03,38.63-1.43,71.48-19.12,86.31-43.49,14.55,8.75,33.52,13.7,54.06,12.94,39.54-1.46,71.7-23.6,77.24-51.27,9.09,1.35,18.5,1.87,28.06,1.52,29.92-1.11,57.73-10.62,78.32-26.79,20.59-16.17,31.48-37.07,30.68-58.83s-13.21-41.8-34.94-56.4Z"/>
      <path class="cls-20" d="m465.41,1192.13l196.66-9.55c-7.06-25.02-9.88-108.85-12-152-2.27-46.3-1.14-90.96-.46-117.64.22-8.48.37-14.61.37-18.93,0-18.43-3.38-35.47-9.53-47.98-5.67-11.54-13.1-17.9-20.92-17.9h-115.81c-7.82,0-15.25,6.36-20.92,17.9-6.15,12.51-9.12,34.14-9.53,47.98-.2,6.63.9,26.49.9,26.49,0,0,7.65,213.39-8.76,271.63Z"/>
      <g>
        <path class="cls-14" d="m702.43,1303.04c-31.48,0-60.91-10.02-81.48-27.29-22.24,15.31-50.61,24.27-80.76,25.38-2.12.08-4.26.12-6.38.12-27.92,0-54.75-6.95-76.41-19.69-10.42,6.11-22.91,9.66-36.19,10.15-1.04.04-2.08.06-3.11.06-23.57,0-44.61-10-55.56-25.67-14.42-1.1-28.35-4.57-40.72-10.13-16.81,20.05-45.45,33.08-77.06,34.25-1.55.06-3.13.09-4.67.09-34.63,0-66.01-14.66-82.03-37.41-3.87.47-7.78.77-11.69.92-1.75.06-3.53.1-5.28.1-57.08,0-103.06-34.27-104.67-78.02-.84-22.76,10.14-44.29,30.93-60.62,19.39-15.23,45.3-24.19,72.97-25.21,1.75-.06,3.53-.1,5.28-.1,23.97,0,47.34,6.24,65.79,17.56,15.23,9.35,26.63,21.81,33.03,35.88,14.83.05,29.09,2.68,41.98,7.7,7.07-9.67,16.74-18.11,28.54-24.86,16.56-9.46,36.2-14.86,56.8-15.62,1.66-.06,3.34-.09,5-.09,28.55,0,54.99,9.04,73.54,24.7,22.54-16.18,51.71-25.66,82.79-26.81,2.12-.08,4.26-.12,6.38-.12,30.63,0,59.95,8.36,82.56,23.55,7.01,4.71,13.23,9.95,18.6,15.66,17.84-9.72,39.03-15.4,61.05-16.21,1.85-.07,3.71-.1,5.55-.1,25.24,0,49.7,6.6,69.05,18.39,12.62-10.53,28.81-18,46.8-21.6,0-25.63,12.87-49.8,36.45-68.33,23.06-18.12,53.97-28.77,87.03-29.99,2.12-.08,4.26-.12,6.38-.12,30.66,0,60,8.38,82.63,23.6,25.81,17.36,40.57,41.61,41.56,68.3.99,26.69-11.94,51.97-36.4,71.18-23.06,18.12-53.97,28.77-87.03,29.99-2.11.08-4.25.12-6.35.12-3.96,0-7.93-.14-11.86-.42-12.88,28.27-47.14,48.58-87.08,50.05-1.55.06-3.12.09-4.67.09-16.19,0-31.64-3.05-45.38-8.91-19.99,23.23-53.29,37.99-90.32,39.36-1.85.07-3.71.1-5.55.1Z"/>
        <path class="cls-13" d="m952.9,1044.58c27.77,0,53.95,7.39,74.26,21.05,21.72,14.61,34.13,34.64,34.94,56.4s-10.09,42.66-30.68,58.83c-20.59,16.17-48.4,25.69-78.32,26.79-1.94.07-3.87.11-5.8.11-7.57,0-15.02-.55-22.26-1.62-5.54,27.67-37.69,49.81-77.24,51.27-1.38.05-2.75.08-4.12.08-18.95,0-36.37-4.86-49.94-13.02-14.83,24.37-47.68,42.06-86.31,43.49-1.68.06-3.34.09-5,.09-33.75,0-63.5-12.7-80.36-32.12-1.35,1.18-2.74,2.34-4.19,3.48-20.57,16.14-48.36,25.64-78.25,26.75-1.95.07-3.89.11-5.82.11-27.74,0-53.9-7.37-74.19-21.01-.87-.59-1.73-1.19-2.57-1.79-8.83,7.64-21.8,12.72-36.39,13.26-.86.03-1.71.05-2.55.05-21.98,0-40.63-10.54-46.55-25.3-20.84-.17-39.91-5.78-54.54-15.05-11.28,21.6-39.41,37.58-72.8,38.81-1.38.05-2.75.08-4.12.08-34.46,0-63.85-16.07-74.26-38.83-6.42,1.29-13.12,2.1-20.01,2.35-1.58.06-3.16.09-4.72.09-48.57,0-88.36-27.84-89.69-63.57-1.36-36.88,38.77-68.41,89.46-70.28,1.58-.06,3.16-.09,4.72-.09,44.1,0,80.96,22.95,88.36,53.92,1.96-.18,3.93-.32,5.94-.4,1.38-.05,2.75-.08,4.11-.08,18.22,0,35.02,4.5,48.36,12.1,11.01-24.82,42.39-43.5,79.93-44.89,1.49-.06,2.97-.08,4.44-.08,30.74,0,57.74,11.87,72.49,29.87,1.94-1.79,3.99-3.54,6.14-5.23,20.57-16.14,48.36-25.64,78.25-26.75,1.95-.07,3.89-.11,5.82-.11,27.74,0,53.9,7.37,74.19,21.01,9.89,6.64,17.84,14.41,23.65,22.96,16.89-12.15,39.67-20.03,64.92-20.97,1.68-.06,3.34-.09,5-.09,27.99,0,53.22,8.73,70.63,22.79,13.16-15.33,35.59-26.19,61.58-28.11-.75-3.47-1.2-7.01-1.34-10.59-.8-21.77,10.09-42.66,30.68-58.83,20.59-16.17,48.4-25.69,78.32-26.79,1.95-.07,3.89-.11,5.82-.11m0-30c-2.29,0-4.63.04-6.93.13-36.21,1.34-70.21,13.12-95.74,33.18-13.62,10.7-24.19,23.16-31.43,37.04-5.22,10.02-8.56,20.45-9.98,31.15-12.32,3.6-23.73,8.91-33.74,15.68-19.93-10.12-43.28-15.53-67.88-15.53-2.02,0-4.08.04-6.11.11-20.35.75-40.12,5.3-57.67,13.1-4.04-3.54-8.4-6.89-13.05-10.01-25.06-16.83-57.35-26.1-90.92-26.1-2.3,0-4.63.04-6.93.13-29.91,1.11-58.31,9.34-81.68,23.48-20.3-13.66-46.39-21.38-74.1-21.38-1.84,0-3.7.03-5.55.1-23.01.85-45.03,6.93-63.69,17.59-10.06,5.75-18.82,12.62-26.06,20.39-8.89-2.58-18.22-4.22-27.81-4.88-7.93-13.27-19.65-24.94-34.4-33.99-21.08-12.94-46.54-19.78-73.64-19.78-1.94,0-3.9.04-5.83.11-30.81,1.14-59.81,11.23-81.68,28.4-11.51,9.04-20.55,19.63-26.87,31.45-7.03,13.16-10.32,27.13-9.79,41.51.52,13.94,4.6,27.26,12.14,39.56,6.79,11.09,16.1,20.85,27.66,29.02,21.81,15.4,50.17,23.88,79.87,23.88,1.94,0,3.9-.04,5.83-.11,1.45-.05,2.89-.13,4.34-.22,7.63,8.78,17.28,16.34,28.63,22.35,17.75,9.4,38.56,14.37,60.19,14.37,1.73,0,3.49-.03,5.23-.1,20.75-.77,40.77-6.09,57.9-15.38,8.45-4.59,16.01-10.03,22.53-16.17,9.19,3.22,18.94,5.49,28.94,6.73,5.33,6.07,11.95,11.32,19.68,15.57,12.88,7.08,28.01,10.83,43.75,10.83,1.21,0,2.44-.02,3.66-.07,12.6-.47,24.66-3.28,35.41-8.16,22.51,11.5,49.14,17.71,76.63,17.71,2.29,0,4.63-.04,6.93-.13,28.97-1.07,56.52-8.83,79.45-22.16,22.41,15.35,51.52,24.08,82.24,24.08,2.03,0,4.08-.04,6.11-.11,36.97-1.37,70.8-14.99,93.76-36.85,12.95,4.22,26.92,6.4,41.38,6.4,1.73,0,3.49-.03,5.23-.1,24.48-.91,48.27-8.32,66.98-20.88,11.89-7.98,21.48-17.8,28.29-28.78,1.04.02,2.08.03,3.12.03,2.28,0,4.61-.04,6.91-.13,36.21-1.34,70.21-13.12,95.75-33.18,13.62-10.7,24.19-23.16,31.43-37.04,7.69-14.75,11.29-30.39,10.7-46.49-.6-16.1-5.34-31.43-14.1-45.58-8.24-13.31-19.71-24.95-34.08-34.62-25.08-16.86-57.4-26.15-91-26.15h0Z"/>
      </g>
      <path class="cls-5" d="m839.9,435.49c84.29,10.47,203.31,49.2,203.31,49.2l-44.19-87.89,93.39-50.29s-86.59-36.15-234.03-52.36"/>
      <polygon class="cls-11" points="837 717.13 280.56 717.13 280.56 155.35 558.78 32.05 837 149.7 837 717.13"/>
      <polygon class="cls-9" points="859.58 735.54 259.98 735.54 259.98 145.85 559.78 12.05 859.58 145.85 859.58 735.54"/>
      <g>
        <polygon class="cls-21" points="702.85 475.12 727.15 397.34 768.04 398.96 768.04 165.77 802.44 116.96 889.48 101.85 886.09 692.61 715.01 748.99 702.85 475.12"/>
        <path class="cls-13" d="m879.41,113.75l-3.28,571.62-151.72,50-11.49-258.93,21.49-68.79,43.62,1.72v-240.43l30.19-42.83,71.18-12.36m20.14-23.8l-23.56,4.09-71.18,12.36-8.16,1.42-4.77,6.77-30.19,42.83-3.65,5.18v225.96l-22.83-.9-15.31-.61-4.57,14.63-21.49,68.79-1.05,3.35.16,3.5,11.49,258.93,1.17,26.37,25.07-8.26,151.72-50,13.66-4.5.08-14.38,3.28-571.62.14-23.91h0Z"/>
      </g>
      <path class="cls-16" d="m792.05,447.08l-17.86-9.42c-10.09-5.32-20.98,5.09-19.51,18.64l-13.6,227.82c1.81,16.79,58.87,11.07,65.53-3.68l69.24-153.29c1.18-2.62,1.81-5.58,1.83-8.59l1.45-349.58c.08-18.31-19.45-24.66-26.53-8.61h0c-4.15,9.43-14.03,32.06-20.9,25.58l-7.1-36.13c-7.17-6.76-27.38,20.06-26.87,31.26l11.5,231.87c.52,11.43-8.73,38.58-17.17,34.13Z"/>
      <path class="cls-14" d="m567.96,425.91c-2.4-10.24-14.05-18.02-28.05-18.02s-25.65,7.77-28.05,18.02h-15.75c-.42-15.36-16.72-27.72-36.79-27.72s-36.37,12.36-36.79,27.72h-160.56v14.14h334v-14.14h-28.02Z"/>
      <g>
        <path class="cls-13" d="m476.61,132.17c0,4.13-5.47,6.3-13.49,6.3h-29.3v-3.84h3.53c1.56,0,2.07-.35,2.07-2.14v-10.43c0-1.79-.51-2.14-2.07-2.14h-3.53v-3.84h28.03c8.59,0,13.3,2.11,13.3,5.82,0,2.72-2.55,4.77-7.6,5.02,5.92.42,9.07,2.11,9.07,5.25Zm-17.24-6.91c3.18,0,4.46-.9,4.46-2.72s-1.27-2.72-4.46-2.72h-9.26v5.44h9.26Zm1.11,9.47c3.25,0,4.74-.96,4.74-2.88s-1.5-2.88-4.74-2.88h-10.37v5.76h10.37Z"/>
        <path class="cls-13" d="m478.8,127.28c0-8.7,8.72-12.1,21.51-12.1s21.51,3.39,21.51,12.1-8.72,12.1-21.51,12.1-21.51-3.39-21.51-12.1Zm21.51,8.26c6.9,0,9.93-2.82,9.93-8.26s-2.89-8.26-9.93-8.26-9.93,2.82-9.93,8.26,3.02,8.26,9.93,8.26Z"/>
        <path class="cls-13" d="m565.49,138.48h-22.97v-3.46h2.23c1.27,0,1.69-.67.7-1.41l-4.9-3.52-4.9,3.52c-.99.74-.57,1.41.7,1.41h2.13v3.46h-16.8v-3.46h.67c1.78,0,3.28-.38,4.61-1.25l9.86-6.34-9.19-6.62c-1.3-.96-2.51-1.28-4.39-1.28h-.83v-3.46h23v3.46h-2.23c-1.27,0-1.69.67-.7,1.41l4.39,3.17,4.52-3.17c.92-.67.57-1.41-.7-1.41h-2.23v-3.46h16v3.46h-.64c-1.78,0-2.99.35-4.29,1.25l-8.97,5.98,9.7,6.98c1.34.96,2.55,1.28,4.39,1.28h.83v3.46Z"/>
        <path class="cls-13" d="m583.29,132.5c0,1.79.51,2.14,2.07,2.14h3.53v3.84h-21.89v-3.84h3.53c1.56,0,2.07-.35,2.07-2.14v-10.43c0-1.79-.51-2.14-2.07-2.14h-3.53v-3.84h21.89v3.84h-3.53c-1.56,0-2.07.35-2.07,2.14v10.43Z"/>
        <path class="cls-13" d="m634.99,119.89c-1.56,0-2.07.38-2.07,2.14v16.45h-11.83l-17.88-16.35v10.37c0,1.79.51,2.14,2.07,2.14h3.53v3.84h-17.18v-3.84h3.53c1.56,0,2.07-.35,2.07-2.14v-10.43c0-1.79-.51-2.14-2.07-2.14h-3.53v-3.84h19.5l15.81,14.46v-8.51c0-1.76-.51-2.14-2.07-2.14h-3.53v-3.81h17.05v3.81h-3.4Z"/>
        <path class="cls-13" d="m680.5,130.19c-1.69,0-1.85.38-1.85,2.18v6.11h-5.03l-.99-3.07c-2.32,2.24-5.63,3.97-13.14,3.97-11.33,0-20.27-3.39-20.27-12.1s8.94-12.1,20.46-12.1c6.24,0,9.96,1.06,12.38,2.85l1.18-1.95h4.8v7.84h-6.08c-1.81-3.46-5.5-4.9-10.59-4.9-7.16,0-10.56,2.78-10.56,8.26s3.31,8.26,10.34,8.26c5.63,0,9.7-2.24,9.7-4.38,0-.67-.38-.96-1.3-.96h-4.96v-3.9h17.63v3.9h-1.72Z"/>
        <path class="cls-13" d="m525.24,148.08c12.69,0,20.74,2.85,20.74,11.04s-8.05,11.36-20.74,11.36h-23.26v-3.84h3.53c1.56,0,2.07-.35,2.07-2.14v-10.43c0-1.79-.48-2.14-2.07-2.14h-3.53v-3.84h23.26Zm-1.08,3.84h-5.89v14.72h5.89c6.9,0,10.24-1.92,10.24-7.52,0-5.28-3.34-7.2-10.24-7.2Z"/>
        <path class="cls-13" d="m591.82,170.48h-21.54v-3.84h3.34c1.34,0,1.75-.8.95-1.95l-.64-.9h-16.1l-.67.9c-.83,1.15-.35,1.95.99,1.95h3.44v3.84h-16.16v-3.84h.83c2.16,0,3.21-.38,4.52-2.11l8.02-10.66c.8-1.06.45-1.95-.86-1.95h-2.16v-3.84h18.74l11.96,16.45c1.21,1.66,2.35,2.11,4.52,2.11h.83v3.84Zm-25.9-17.79l-5.31,7.3h10.59l-5.28-7.3Z"/>
        <path class="cls-13" d="m612.37,164.5c0,1.79.48,2.14,2.04,2.14h3.56v3.84h-21.89v-3.84h3.53c1.56,0,2.07-.35,2.07-2.14v-1.38l-10.59-9.6c-1.5-1.38-2.7-1.6-4.68-1.6h-.76v-3.84h21.86v3.84h-2.74c-1.15,0-1.46.8-.57,1.6l5.85,5.12,5.73-5.12c.86-.77.54-1.6-.57-1.6h-2.74v-3.84h15.59v3.84h-.76c-1.97,0-3.05.26-4.55,1.6l-10.37,9.28v1.7Z"/>
      </g>
      <g>
        <path class="cls-5" d="m278.05,445.07c-84.29,10.47-203.31,49.2-203.31,49.2l44.19-87.89-93.39-50.29s86.59-36.15,234.03-52.36"/>
        <g>
          <path class="cls-15" d="m916.17,387.01c-1.36-.33-138.24-32.71-358.44-32.71s-357.69,32.41-359.11,32.74l-11.13,2.57-30.07-157.14,10.65-2.17c1.63-.33,165.55-33.24,389.66-33.24s388,32.9,389.64,33.24l10.71,2.17-30.75,157.25-11.17-2.7Z"/>
          <path class="cls-13" d="m557.74,208.05c224.32,0,387.46,33.02,387.46,33.02l-26.45,135.25s-136.7-33.02-361.02-33.02-361.58,33.02-361.58,33.02l-25.88-135.25s161.87-33.02,387.46-33.02m0-22c-117.62,0-217.71,9.06-280.95,16.67-68.77,8.27-109.22,16.45-110.91,16.8l-21.3,4.34,4.09,21.35,25.88,135.25,4.29,22.44,22.26-5.14c.35-.08,36-8.21,97.55-16.23,56.76-7.4,147.78-16.22,259.09-16.22s204.89,8.81,260.83,16.2c60.64,8.01,94.69,16.13,95.03,16.21l22.33,5.37,4.42-22.54,26.45-135.25,4.19-21.45-21.42-4.34c-1.7-.34-42.44-8.52-111.36-16.79-63.39-7.6-163.51-16.67-280.47-16.67h0Z"/>
        </g>
        <g>
          <path class="cls-12" d="m377.07,242.83l7.71,76.01-19.92,2.02-4.15-40.89-.6-14.43-1.58,16.97-7.36,32.86-19.46,1.97-13.76-30.72-4.89-16.32,2.26,14.26,4.15,40.89-19.86,2.01-7.71-76.01,28.28-2.87,17.9,45.95,1.9,6.73.45-6.97,8.31-48.61,28.33-2.87Z"/>
          <path class="cls-12" d="m422.39,240.16l19.65-1.02,34.65,74.71-21.32,1.11-5.91-13.89-27.98,1.45-4.43,14.43-21.43,1.11,26.78-77.9Zm4.85,44.49l14.65-.76-8.3-20.09h-.17s-6.18,20.85-6.18,20.85Z"/>
          <path class="cls-12" d="m490.9,254.86l-17.14.37-.38-17.53,54.3-1.18.38,17.53-17.14.37,1.28,58.85-20.02.44-1.28-58.85Z"/>
          <path class="cls-12" d="m543.06,236.38l20.02.08-.25,58.87,26.7.11-.07,17.54-46.72-.2.32-76.4Z"/>
          <path class="cls-12" d="m601.54,274.64c.21-5.55,1.39-10.69,3.56-15.42,2.17-4.73,5.1-8.82,8.8-12.27,3.7-3.46,7.99-6.1,12.87-7.92,4.88-1.83,10.12-2.64,15.72-2.43,5.67.21,10.87,1.4,15.59,3.59,4.72,2.18,8.79,5.13,12.23,8.85s6.04,8.01,7.82,12.89c1.78,4.87,2.56,10.09,2.36,15.64-.21,5.59-1.36,10.75-3.45,15.48-2.09,4.73-4.96,8.83-8.6,12.31-3.64,3.48-7.91,6.13-12.81,7.96-4.9,1.83-10.25,2.63-16.04,2.42-5.98-.22-11.35-1.42-16.1-3.6s-8.8-5.14-12.14-8.87c-3.34-3.73-5.86-8.03-7.56-12.91-1.7-4.87-2.45-10.1-2.24-15.69Zm20.87.77c-.14,3.86.51,7.38,1.94,10.58,1.44,3.2,3.52,5.78,6.25,7.73,2.73,1.95,5.95,3,9.67,3.14,3.72.14,7.01-.67,9.88-2.42,2.87-1.75,5.13-4.16,6.8-7.25,1.67-3.09,2.57-6.56,2.72-10.41.14-3.86-.51-7.37-1.94-10.55-1.44-3.18-3.52-5.76-6.25-7.73-2.73-1.97-5.95-3.03-9.67-3.17-3.72-.14-7.01.68-9.88,2.45-2.87,1.77-5.14,4.18-6.8,7.25s-2.57,6.53-2.71,10.38Z"/>
          <path class="cls-12" d="m734.93,301.29c3.02.23,5.91,0,8.66-.72,2.75-.72,4.87-1.48,6.35-2.29l7.17,17.68c-1.92,1.4-5.13,2.72-9.63,3.96-4.5,1.24-9.73,1.63-15.7,1.16-5.58-.43-10.76-1.82-15.55-4.17-4.78-2.34-8.94-5.43-12.47-9.27-3.53-3.83-6.18-8.23-7.95-13.19-1.77-4.96-2.44-10.26-2-15.92.44-5.66,1.92-10.81,4.43-15.48,2.52-4.66,5.8-8.63,9.87-11.89,4.06-3.26,8.65-5.7,13.75-7.29,5.11-1.6,10.45-2.18,16.03-1.75,5.97.46,11.08,1.65,15.33,3.57,4.26,1.92,7.22,3.71,8.9,5.39l-9.81,16.37c-1.34-1.03-3.32-2.12-5.92-3.25-2.61-1.13-5.42-1.81-8.44-2.05-3.75-.29-6.99.02-9.74.93-2.74.91-5.03,2.24-6.86,4-1.83,1.76-3.23,3.76-4.19,6-.96,2.25-1.54,4.56-1.72,6.95-.19,2.42.02,4.83.62,7.22.6,2.39,1.67,4.59,3.21,6.61,1.54,2.02,3.59,3.68,6.16,5.01,2.57,1.32,5.73,2.13,9.48,2.42Z"/>
          <path class="cls-12" d="m810.48,287.6l23.08,42.84-23.65-2.8-17.47-35-3.85,32.48-19.88-2.35,8.99-75.87,19.88,2.35-3.51,29.66,22.94-27.36,22.4,2.65-28.93,33.41Z"/>
        </g>
        <polygon class="cls-13" points="278.95 378.52 177.86 403.15 279.47 456.43 278.95 378.52"/>
        <circle class="cls-13" cx="233.74" cy="298.97" r="8.74"/>
        <circle class="cls-13" cx="885.08" cy="298.97" r="8.74"/>
        <polygon class="cls-13" points="837.93 376.14 939.02 400.76 837.41 454.04 837.93 376.14"/>
      </g>
      <g>
        <g class="cls-23">
          <path class="cls-18" d="m840.11,795.7c-6.08,0-11-4.92-11-11v-27.48c-31.46-2.48-61.54-10.31-83.83-21.95-3.12-1.64-7.05-5.08-8.22-12.22-.77-4.71.37-9.51,3.23-13.55,17.87-25.21,34.17-51.45,48.53-78.14-4.91-1.76-9.55-3.73-13.89-5.89-4.58-2.27-7.75-6.73-8.69-12.21-.84-4.91.21-9.76,2.95-13.65,14.25-20.25,27.09-41.42,38.26-63.05-1.11-.44-2.19-.9-3.25-1.38-4.77-2.13-8.12-6.58-9.17-12.18-.92-4.94.07-9.84,2.8-13.8,16.72-24.19,29.71-49.38,39.72-77.04,2.33-6.43,7.94-10.58,14.28-10.58s11.95,4.15,14.27,10.58c10,27.65,22.99,52.84,39.71,77.03,2.74,3.96,3.74,8.87,2.81,13.81-1.05,5.6-4.4,10.04-9.18,12.18-1.06.48-2.14.93-3.24,1.38,11.17,21.62,24.01,42.8,38.27,63.06,2.74,3.89,3.79,8.74,2.94,13.65-.94,5.47-4.11,9.92-8.69,12.21-4.33,2.16-8.97,4.12-13.89,5.88,14.37,26.7,30.67,52.93,48.53,78.13,2.74,3.86,3.8,8.67,3,13.55-.9,5.52-3.87,9.86-8.35,12.21-23.13,12.08-52.08,19.62-84.24,22v27.44c0,6.08-4.92,11-11,11h-22.66Z"/>
          <path class="cls-13" d="m851.82,432.58c1.71,0,3.18,1.24,3.93,3.32,10.52,29.07,24.2,55.23,41.01,79.54,1.05,1.52,1.43,3.5,1.05,5.53-.38,2.02-1.41,3.52-2.87,4.17-3.85,1.73-8.01,3.19-12.39,4.37-.44.12-.78.5-.96,1.07-.17.57-.13,1.16.12,1.67,12.73,25.89,27.32,50.33,43.76,73.7,1.05,1.49,1.44,3.44,1.1,5.45-.34,2.01-1.33,3.52-2.75,4.23-6.97,3.48-14.7,6.34-22.92,8.59-.45.12-.79.51-.96,1.08-.17.58-.12,1.18.14,1.69,16.1,31.01,34.21,60.51,54.31,88.85,1.05,1.48,1.45,3.4,1.12,5.41-.33,2-1.2,3.52-2.61,4.26-24.83,12.97-56.88,20.07-90.12,21.34v37.84h-22.66v-37.84c-31.73-1.27-64.91-8.37-89.74-21.34-1.41-.74-2.13-2.26-2.46-4.26-.33-2,.31-3.93,1.35-5.41,20.1-28.35,38.21-57.85,54.31-88.85.26-.51.32-1.11.15-1.69-.17-.57-.51-.96-.96-1.08-8.22-2.26-15.95-5.12-22.92-8.59-1.43-.71-2.41-2.22-2.76-4.23-.34-2.01.05-3.96,1.1-5.45,16.44-23.37,31.03-47.81,43.76-73.7.25-.51.29-1.11.12-1.67-.17-.57-.51-.95-.96-1.07-4.38-1.18-8.55-2.64-12.39-4.37-1.46-.66-2.49-2.15-2.87-4.17-.38-2.02,0-4,1.05-5.53,16.81-24.31,30.49-50.47,41.01-79.54.76-2.09,2.22-3.32,3.93-3.32m0-22c-11.02,0-20.69,7-24.61,17.82-9.68,26.77-22.25,51.14-38.42,74.53-4.42,6.41-6.04,14.25-4.58,22.09,1.18,6.29,4.2,11.73,8.59,15.7-9.75,17.99-20.68,35.6-32.62,52.57-4.42,6.26-6.12,14.02-4.79,21.82,1.54,8.99,6.88,16.35,14.64,20.21,1.05.52,2.12,1.04,3.21,1.54-12.67,22.6-26.72,44.81-41.93,66.26-4.55,6.43-6.36,14.13-5.11,21.7,2.01,12.22,9.58,17.87,13.92,20.16.02.01.05.02.07.04,21.47,11.22,48.59,18.9,77.92,22.21v17.47c0,12.15,9.85,22,22,22h22.66c12.15,0,22-9.85,22-22v-17.41c29.61-3.23,56.37-10.82,78.31-22.28.02-.01.04-.02.06-.03,7.5-3.94,12.63-11.3,14.08-20.18,1.27-7.74-.46-15.44-4.88-21.68-15.21-21.45-29.26-43.66-41.93-66.26,1.09-.51,2.17-1.02,3.22-1.55,7.76-3.86,13.09-11.23,14.62-20.21,1.34-7.76-.36-15.52-4.79-21.81-11.94-16.97-22.86-34.59-32.62-52.57,4.39-3.97,7.41-9.4,8.59-15.7,1.47-7.84-.15-15.7-4.59-22.1-16.16-23.38-28.73-47.75-38.4-74.5-3.92-10.84-13.58-17.84-24.62-17.84h0Z"/>
        </g>
        <g class="cls-17">
          <path class="cls-19" d="m851.97,431.28c.19-.03.38-.05.58-.05,1.71,0,3.18,1.24,3.93,3.32,10.52,29.07,24.2,55.23,41.01,79.54,1.05,1.52,1.43,3.5,1.05,5.53-.38,2.02-1.41,3.52-2.87,4.17-3.85,1.73-8.01,3.19-12.39,4.37-.44.12-.78.5-.96,1.07-.17.57-.13,1.16.12,1.67,12.73,25.89,27.32,50.33,43.76,73.7,1.05,1.49,1.44,3.44,1.1,5.45-.34,2.01-1.33,3.52-2.75,4.23-6.97,3.48-14.7,6.34-22.92,8.59-.45.12-.79.51-.96,1.08-.17.58-.12,1.18.14,1.69,16.1,31.01,34.21,60.51,54.31,88.85,1.05,1.48,1.45,3.4,1.12,5.41-.33,2-1.2,3.52-2.61,4.26-24.83,12.97-16.88,20.07-50.12,21.34"/>
        </g>
        <line class="cls-10" x1="865.88" y1="535.36" x2="901.62" y2="534.04"/>
        <line class="cls-10" x1="869.25" y1="631.18" x2="905" y2="629.86"/>
      </g>
      <g>
        <path class="cls-14" d="m170.22,700.93l.02-.02c12.83-18.1,24.78-36.78,35.69-55.8-7.49-4.84-12.59-12.67-14.19-21.96-1.55-9.04.44-18.05,5.59-25.34,10.32-14.68,19.58-29.43,28.02-44.66-3.24-4.12-5.51-9.08-6.53-14.49-1.7-9.08.19-18.18,5.34-25.66,14.86-21.49,26.41-43.89,35.31-68.49,4.63-12.78,16.11-21.03,29.24-21.03s24.62,8.27,29.25,21.05c8.89,24.58,20.44,46.98,35.29,68.46,5.16,7.46,7.06,16.58,5.35,25.66-1.01,5.41-3.29,10.37-6.53,14.5,8.43,15.23,17.69,29.98,28.02,44.65,5.16,7.33,7.14,16.34,5.59,25.33-1.59,9.3-6.69,17.13-14.19,21.98,10.91,19.01,22.86,37.7,35.7,55.8,5.14,7.26,7.17,16.2,5.69,25.18-1.7,10.37-7.76,19-16.69,23.7-19.86,10.37-43.71,17.47-70.02,20.92v37.74h-75.64v-37.82c-26.12-3.53-50.25-10.7-69.75-20.88-5.14-2.71-14.12-9.38-16.46-23.64-1.45-8.81.65-17.75,5.9-25.18Zm108.58,27.65l9.32.37,9.83-.37c18.07-.69,35.2-3.41,50.12-7.85-13.93-21.18-26.73-42.97-38.2-65.06-3.48-6.73-4.21-14.45-2.06-21.74h0c2.14-7.27,6.87-13.21,13.15-16.81-10.51-16.56-20.07-33.59-28.57-50.88-3.28-6.67-3.9-14.27-1.72-21.51,1.15-3.78,3.02-7.2,5.43-10.1-2.56-4.26-5.02-8.55-7.38-12.89-2.36,4.34-4.82,8.63-7.38,12.89,2.42,2.9,4.27,6.31,5.42,10.08,2.21,7.2,1.59,14.86-1.74,21.58-8.49,17.27-18.05,34.28-28.55,50.84,6.3,3.61,11.03,9.55,13.16,16.8,2.16,7.33,1.41,15.08-2.09,21.78-11.46,22.07-24.26,43.86-38.2,65.05,14.86,4.37,31.93,7.1,49.48,7.81Z"/>
        <g>
          <path class="cls-18" d="m251.92,799.65c-6.08,0-11-4.92-11-11v-27.48c-31.45-2.48-61.54-10.31-83.83-21.95-3.12-1.65-7.05-5.08-8.22-12.22-.77-4.71.37-9.51,3.22-13.54,17.87-25.21,34.17-51.45,48.54-78.14-4.91-1.76-9.55-3.73-13.89-5.89-4.57-2.27-7.75-6.73-8.69-12.21-.84-4.92.21-9.77,2.95-13.66,14.24-20.25,27.09-41.42,38.26-63.05-1.11-.44-2.19-.9-3.25-1.38-4.77-2.14-8.12-6.58-9.17-12.18-.92-4.94.07-9.84,2.8-13.8,16.73-24.19,29.72-49.39,39.72-77.04,2.33-6.43,7.93-10.58,14.28-10.58s11.95,4.15,14.27,10.58c10,27.65,22.99,52.84,39.71,77.03,2.74,3.96,3.74,8.87,2.81,13.82-1.05,5.59-4.39,10.03-9.18,12.18-1.06.47-2.14.93-3.24,1.37,11.17,21.63,24.02,42.8,38.27,63.06,2.74,3.9,3.78,8.74,2.94,13.65-.93,5.47-4.1,9.92-8.69,12.21-4.33,2.16-8.97,4.12-13.89,5.88,14.37,26.69,30.66,52.93,48.53,78.13,2.74,3.86,3.8,8.67,3,13.55-.9,5.51-3.86,9.85-8.34,12.21-23.14,12.09-52.08,19.62-84.24,22.01v27.44c0,6.08-4.92,11-11,11h-22.66Z"/>
          <path class="cls-13" d="m263.63,436.54c1.71,0,3.18,1.24,3.93,3.32,10.52,29.07,24.2,55.23,41.01,79.54,1.05,1.52,1.43,3.5,1.05,5.53-.38,2.02-1.41,3.52-2.87,4.17-3.85,1.73-8.01,3.19-12.39,4.37-.44.12-.78.5-.96,1.07-.17.57-.13,1.16.12,1.67,12.73,25.89,27.32,50.33,43.76,73.7,1.05,1.49,1.44,3.44,1.1,5.45-.34,2.01-1.33,3.52-2.75,4.23-6.97,3.48-14.7,6.34-22.92,8.59-.45.12-.79.51-.96,1.08-.17.58-.12,1.18.14,1.69,16.1,31.01,34.21,60.51,54.31,88.85,1.05,1.48,1.45,3.4,1.12,5.41-.33,2-1.2,3.52-2.61,4.26-24.83,12.97-56.88,20.07-90.12,21.34v37.84h-22.66v-37.84c-31.73-1.27-64.91-8.37-89.74-21.34-1.41-.74-2.13-2.26-2.46-4.26-.33-2,.31-3.93,1.35-5.41,20.1-28.35,38.21-57.85,54.31-88.85.26-.51.32-1.11.15-1.69-.17-.57-.51-.96-.96-1.08-8.22-2.26-15.95-5.12-22.92-8.59-1.43-.71-2.41-2.22-2.76-4.23-.34-2.01.05-3.96,1.1-5.45,16.44-23.37,31.03-47.81,43.76-73.7.25-.51.29-1.1.12-1.67-.17-.57-.51-.95-.96-1.07-4.38-1.18-8.55-2.64-12.39-4.37-1.46-.66-2.49-2.15-2.87-4.17-.38-2.02,0-4,1.05-5.53,16.81-24.31,30.49-50.47,41.01-79.54.76-2.09,2.22-3.32,3.93-3.32m0-22c-11.02,0-20.69,7-24.61,17.82-9.68,26.77-22.25,51.14-38.42,74.53-4.42,6.42-6.04,14.25-4.57,22.09,1.18,6.29,4.2,11.73,8.59,15.7-9.75,17.98-20.68,35.6-32.62,52.57-4.42,6.26-6.12,14.02-4.79,21.82,1.54,8.99,6.88,16.35,14.64,20.21,1.05.52,2.12,1.04,3.21,1.54-12.67,22.6-26.72,44.81-41.93,66.26-4.55,6.43-6.36,14.13-5.12,21.7,2.01,12.22,9.58,17.87,13.92,20.16.02.01.05.02.07.04,21.47,11.22,48.59,18.9,77.92,22.21v17.47c0,12.15,9.85,22,22,22h22.66c12.15,0,22-9.85,22-22v-17.41c29.61-3.23,56.37-10.82,78.31-22.28.02-.01.04-.02.06-.03,7.5-3.94,12.63-11.3,14.08-20.18,1.27-7.74-.46-15.44-4.88-21.68-15.21-21.45-29.26-43.66-41.93-66.26,1.09-.51,2.17-1.02,3.22-1.55,7.75-3.86,13.09-11.23,14.62-20.21,1.34-7.76-.36-15.52-4.79-21.81-11.94-16.97-22.86-34.59-32.62-52.57,4.39-3.97,7.41-9.4,8.58-15.7,1.47-7.85-.15-15.7-4.59-22.1-16.16-23.38-28.73-47.75-38.4-74.5-3.92-10.84-13.58-17.84-24.62-17.84h0Z"/>
        </g>
        <g class="cls-17">
          <path class="cls-19" d="m263.9,436.72c.19-.03.38-.05.58-.05,1.71,0,3.18,1.24,3.93,3.32,10.52,29.07,24.2,55.23,41.01,79.54,1.05,1.52,1.43,3.5,1.05,5.53-.38,2.02-1.41,3.52-2.87,4.17-3.85,1.73-8.01,3.19-12.39,4.37-.44.12-.78.5-.96,1.07-.17.57-.13,1.16.12,1.67,12.73,25.89,27.32,50.33,43.76,73.7,1.05,1.49,1.44,3.44,1.1,5.45-.34,2.01-1.33,3.52-2.75,4.23-6.97,3.48-14.7,6.34-22.92,8.59-.45.12-.79.51-.96,1.08-.17.58-.12,1.18.14,1.69,16.1,31.01,34.21,60.51,54.31,88.85,1.05,1.48,1.45,3.4,1.12,5.41-.33,2-1.2,3.52-2.61,4.26-24.83,12.97-26.88,20.07-60.12,21.34"/>
        </g>
        <line class="cls-3" x1="278.8" y1="539.37" x2="314.54" y2="538.05"/>
        <line class="cls-3" x1="282.18" y1="635.19" x2="317.92" y2="633.87"/>
      </g>
      <path class="cls-4" d="m912.11,1019.55c-7.89-64.59,6.05-126.89,8.4-164.11.75-11.84,1.29-20.39,1.29-26.41,0-25.71-11.76-49.48-33.12-66.94-19.7-16.1-45.52-24.97-72.71-24.97H290.94c-27.19,0-53.02,8.87-72.71,24.97-21.36,17.46-31.69,47.63-33.12,66.94-.69,9.25,3.11,36.95,3.11,36.95,0,0,65.19,192.14-50.64,291.14"/>
      <path class="cls-20" d="m192.55,1206.13l722.87-11.58c-21.7-30.31-30.38-131.9-36.89-184.19-6.98-56.11-3.5-110.22-1.41-142.55.66-10.28,1.14-17.71,1.14-22.94,0-22.33-10.4-42.98-29.29-58.14-17.42-13.98-40.26-21.69-64.31-21.69h-464.33c-24.05,0-46.89,7.7-64.31,21.69-18.89,15.16-28.03,41.37-29.29,58.14-.61,8.03,2.75,32.1,2.75,32.1,0,0,60.94,192.16-36.93,329.16Z"/>
      <path class="cls-12" d="m263.26,1184.13l591.43-9.92c-18-25.97-25.21-144.16-30.6-188.97-5.79-48.07-2.9-94.44-1.17-122.14.55-8.81.95-15.17.95-19.66,0-19.13-8.63-36.82-24.3-49.82-14.45-11.98-33.4-18.58-53.35-18.58h-385.24c-19.95,0-38.9,6.6-53.35,18.58-15.67,12.99-23.25,35.45-24.3,49.82-.5,6.88,2.28,27.5,2.28,27.5,0,0,19.5,252.7-22.34,313.18Z"/>
      <path class="cls-20" d="m322.41,1169.05l473-8.75c-14.4-22.91-20.16-127.19-24.48-166.72-4.63-42.41-2.32-83.32-.94-107.76.44-7.77.76-13.39.76-17.34,0-16.88-6.9-32.49-19.44-43.95-11.56-10.57-26.71-16.39-42.67-16.39h-308.09c-15.96,0-31.11,5.82-42.67,16.39-12.53,11.46-18.6,31.27-19.44,43.95-.4,6.07,1.83,24.27,1.83,24.27,0,0,15.6,222.95-17.87,276.31Z"/>
      <circle class="cls-14" cx="595.41" cy="433.13" r="7"/>
      <path class="cls-14" d="m396.41,1172.13l334.66-9.55c-12.01-25.02-16.82-108.85-20.42-152-3.86-46.3-1.94-90.96-.78-117.64.37-8.48.63-14.61.63-18.93,0-18.43-5.76-35.47-16.22-47.98-9.64-11.54-22.29-17.9-35.6-17.9h-197.07c-13.32,0-25.96,6.36-35.6,17.9-10.46,12.51-15.52,34.14-16.22,47.98-.34,6.63,1.52,26.49,1.52,26.49,0,0,13.01,213.39-14.91,271.63Z"/>
      <rect class="cls-20" x="328.41" y="765.13" width="427" height="43" rx="21.5" ry="21.5"/>
      <path class="cls-20" d="m486.41,1172.13l154.66-9.55c-5.55-25.02-7.77-108.85-9.44-152-1.79-46.3-.89-90.96-.36-117.64.17-8.48.29-14.61.29-18.93,0-18.43-2.66-35.47-7.49-47.98-4.46-11.54-10.3-17.9-16.45-17.9h-91.07c-6.15,0-12,6.36-16.45,17.9-4.83,12.51-7.17,34.14-7.49,47.98-.16,6.63.7,26.49.7,26.49,0,0,6.01,213.39-6.89,271.63Z"/>
      <g>
        <path class="cls-13" d="m414.83,1068.49c-1.12-2.5-.63-5.76-2.76-7.8-.65-.24-.07-1.46-.07-1.87-3.97-4.15-2-10.13-5.4-14.75-7.49-23.37-15.95-46.45-23.57-69.72.13-.28.25-.56.34-.85,8.09-3.33,14.18-9.76,20.17-15.85.3-2.64,2.16-4.31,3.98-6.36-.1-5.9,4.85-10.31,4.03-16.28,1.43-1.9.74-3.78,1.03-5.93,1.3-4.74.63-11.38,1.25-16.29-1.14-20.38.04-43.4-15.29-60-2.68-2.37-4.47-5.55-7.33-7.78-2.67-.58-4.72-2.34-6.88-3.84-1.01-.69-1.82-1.64-3.22-1.11-1.63-.31-2.72-2.06-4.84-2.52-6.33-1.58-12.25-2.89-18.49-4.8-2.49.51-8.07-.22-9.61-.33-1.76.25-3.84.72-5.07.66-9.15.08-18.04-.76-27.25-.33-1.58.12-3.9-.01-5.34-.61-1.07.72-.97.81-2.76.95-8.04.08-35.03-4.05-36.58,5.52-3.27,18.07-.98,36.9-.89,55.22l-.06-1.14.07,1.17c.43,2.5-2.45,4.54-.58,7.37.41.78.03,1.18.44,1.86-1.17,14.01.23,28.05.17,42.07-2.02,9.14.44,18.78-.94,28.14-.82,6.26,1.28,11.56.17,17.59.81,3.99.68,7.77-.82,11.66l.55.16c-.01.63.06,1.26.21,1.87h-1.04c3.1,17.85,1.12,35.29,1.47,53.51-1.14,21.04,1.53,22.93,24.28,21.28,5.29,2.04,12.41-1.42,17.56.8l-.12-.41c14.9,1.42,15.9-8.04,14.8-19.5.57-8.19-.33-16.26-.34-24.53.44-15.73.44-31.85-.06-47.48-.81-4.47,1.36-9.06,6.09-4.67.18,1.58,1.79,4.09,2.15,5.55-.36,3.46.86,6.74,3.1,9.58-.7,2.21.57,4.15,1.55,6.03,1.18,4.45,2.29,8.26,3.22,12.72,4.03,8.5,4.36,18.2,8.58,26.81,3.55,10.41,5.41,21.73,10.56,31.3,4.74,5.69,12.99,3.94,19.6,3.94,4.05.19,6.07,1.36,11.52.07,7.95.92,26.1,1.34,22.46-11.03Zm-55.4-58.11h0s0,0,0,0c0,0,0,0,0,0Zm3.38-165.52s0,0,0,0h0s0,0,0,0Zm10.15,46.35s0,0,0,0h0s0,0,0,0Zm12.03,6.62s0,0,0,0h0s0,0,0,0Zm-13.91,102.3h0s0,0,0,0h0Zm7.52-51.59s-.01,0-.02,0v-.02s.02.02.02.02c-.03-.01,0-.1,0-.11l.02.08s-.01.02-.02.03Zm-18.04,11.86s0,0,0,0h0s0,0,0,0h0Zm0,0h0,0Zm5.6,25.98s.09-.04.14-.06l-.1.33-.28.08c.08-.2.2-.32.24-.36Zm.06,1.13l.69-.28c-.14.3-.52.44-.79.43l.1-.15Zm-8.71-80.31c-.19,2.72.32,5.37.33,8.02-.66,2.05-1.35,4.64-.65,6.63-1.57,1.61-.31,6.07-1.66,8.27-1.79,6.18-10.6,9.34-16.37,8.09,0,0-1.46-.52-1.46-.52-3.26,2.62-7.52.86-11.23.52,1.03-7.48-.63-14.39-.49-21.72.84-3.05,1.6-3.96.14-7.23,1.21-3.25.33-7.13-.08-10.7-.32-6.77.44-13.96.93-20.67,2.79-.92,7.5-.66,10.39-.71,1.72.98,3.58,1.29,5.23.63,15.23-.03,14.3,18.64,14.91,29.39Zm-61.23-10.86h0s0,0,0,0c-1.18.32.05-2.01.38-.5h0c.25.22.12.39-.38.5Zm-4.72,78.5s0,0,0,0c0,0,0,0,0,0Zm-2.45-61.79h0s0,0,0,0h0Zm1.91,80.11h0s0,0,0,0h0Zm60.6,8.32h0s0,0,0,0h0s0,0,0,0Zm28.87-61.29s0,0,0,0h0s0,0,0,0Zm14.28-20.53h0s0,0,0,0c0,0,0,0,0,0Zm.75-23.84s0,0,0,0h0s0,0,0,0Z"/>
        <path class="cls-13" d="m578.85,1062.77c.43-1.26-.08-3.28-1.17-4.5-1.19-3.9-.94-6.87-1.98-10.33-.86-3.09.29-6.31-1.7-9.12.81-2.25.28-4.61-1.43-6.38-.32-4.62-1.09-10.57-2.81-15.14.61-2.54-1.99-4.57.17-6.87-.77-1.19-2.46-2.55-2.27-4.03-.34-2.6-2.3-5.2-.64-7.74-2.4-2.52-1.06-6.52-3.3-9.14-.25-.26-.31-.4-.35-.85l1.36-1.19c-2.64-7-3.22-14.22-4.58-21.68-2.09-4.5-2.09-9.3-2.72-13.99-.88-1.39-1.91-9.22-2.26-10.92-1.89-4-1.78-8.26-2.67-12.23-1.14-1.54-1.19-4.76-1.32-5.99-1.82-8.09-3.59-16.33-4.74-24.55,0,0,.6-1.58.6-1.58-1.72-2.06-1.35-4.48-3.21-6.74.47-6.37-2.2-10.59-2.47-16.71-.03-.54-.35-.84-.33-1.4-.07-2.78-1.43-3.24-1.55-5.41-.55-2.05-.48-4.65-1.19-7.03-3.18-20.22-2.3-29.69-26.82-26.6l11.58-.76-11.8.74c-1.48-.06-3.44-.82-4.91-1.35-.03.03-1.62,1.43-1.62,1.43-6.73-.32-13.41.06-20.18.37-4.14-.05-9.11-2.1-11.82,2.55-3.73,1.82-3.26,4.34-4.06,7.17l1.24.55-2.17,2.16.5.66c-4.26,12.62-4.23,25.57-8.08,38.45-.92,3.32-1.12,8.84-2.31,11.81-.61,2.52-2.23,5.86-1.59,8.7.05,1.18.37.72-.33,2.87-2.02,5.03-2.04,9.55-3.34,14.55-.65,6.66-4.27,12.68-2.98,19.07-.58.66-1.47,2.4-1.94,3.18l.6.79c-.28.49-.59,1.44-.8,1.99.05.53.45,1.36.15,1.79-1.69,3.87-2.43,8.18-2.64,12.37-.82,3.09-1.2,6.13-2.25,9.29.06,2.98-.4,5.95-1.34,8.84-1.2,5.81-2.99,10.74-3.47,16.08.25,1.32.59,3.15-.12,4.21-2.68,5.83-3.38,13.1-4.28,19.59-.99,4.87-2.62,9.29-3.09,14.53l.43.38c-3.01,12.16-6.21,23.26-7.1,35.19-1.56,4.46.34,4.81,2.55,7.16,6.23,4.98,14.03,1.35,21.39,2.47,15.09-.02,30.22,3.98,31.59-15.55.21-10.75,4.74-21.55,4.44-32.07,11.05-3.47,22.51.22,33.65-1.35,1.33,3.6.99,7.56,2.47,11.16-.68,1.59.1,3.47-.08,5.08.78.74.57,2.32,1.21,2.89-1.05,2.21-.23,4.22,1.22,6.53-.53,1.04-.34,3.51.33,4.94-1.45,20.28,12.85,19.52,28.67,17.93,7.53,1.19,15.76.84,23.46.05,1.99-.54,3.29-2.08,5.43-1.59-.18-4.98.98-9.99-1.28-14.7Zm-94.29-189.44s0,0,0,0h0s0,0,0,0Zm74.05,140.04s0,0,0,0h0s0,0,0,0Zm-18.08-98.03h0s.04-.01.04-.01h-.04Zm.04-.01h0s0,0,0,0h0s0,0,0,0Zm-22.92,75.53h0s0,0,0,0h0s0,0,0,0Zm12.02-36.08h.02s-.02,0-.02,0h0Zm15.8-12.25h0,0,0Zm-15.05,26.81h0s0,0,0,0c0,0,0,0,0,0Zm-38.34-35.09h0s0,0,0,0c0,0,0,0,0,0Zm0-8.61h0s0,0,0,0h0Zm29.03-35.78h0s0,0,0,0h0Zm-24.68,95.99c-2.38.1-3.37-.19-3.82-.42,1.73-4.68.28-10.36,4.1-14.02h-2.14c3.19-12.55,4.06-26.75,7.01-38.93.52,3.79-.33,8.4,1.77,12.11,1.04,1.26-.12,2.16-.61,3.22.5,1.11,1.78,2.54,1.66,3.65,1.07,11.44,5.52,22.52,5.52,34.06-4.38.44-8.56-.04-13.48.33Zm20.46-119.14h0s0,0,0,0c0,0,0,0,0,0Zm-51.12,83.76s0,0,0,0h0s0,0,0,0h0Zm-4.51-23.84h0s0,0,0,0c0,0,0,0,0,0,0,0,0,0,0,0Zm-13.15,52.97s0,0,0,0h0s0,0,0,0Z"/>
        <path class="cls-13" d="m851.54,862.87c-1.01-8.03,2.32-19.65-1.84-26.88-5.39-6.15-19.16-2.22-27-3.57-14.28.4-28.51.11-42.8.2v-1.73l-4.77,2.11c-.06.12-9.44.06-9.88.07-3.73-1.48-8.17.73-12.13-.66-4.13,1.13-9.44-.32-13.36.8-.81.22-1.45-.32-2.58-.41-3.58.48-4.39,1.54-6.68-.58l-1.16.2c-4.18-.19-8.45.58-12.65.17-2.64.04-5.62-1.4-7.73.52-6.31.11-11.51-1.7-17.49.15-3.84-.68-7.94-.97-11.83-.38-1.98-.75-4.04-.69-5.58.48-19.45-1.9-39.12-.06-58.73-1.23-9.28,2.49-25.3-4.54-28.55,8.23-1.45,2.92.41,5.69-.96,8.45.11.03.94,1.46.99,1.48-.49,2.77-1.08,6.05.47,8.51-1.6,2.8-.04,3.91-.39,5.83-.66,1.71-.84,3.78.06,5.47.34.76.88,1.01.59,1.94-1.72,10.28-1.16,21.57-1.05,32.19h.03c.08,5.39.99,10.42-.39,16.12-.22,2.43,1.6,3.86,1.01,6.26-.17,4.35-.99,9.15.27,13.32-1.88,4.41-1.32,9.65-.9,14.14.87,2.66.09,4.96-.38,7.65,1.33,29.51-.82,59.78.77,89.03.28,15.75-4.6,33.22,18.91,28.15,1.03-.14,1.17-.24,1.62.08,2.14,1.62,5.98.31,8.59.13,4.05-.5,6.83,1.3,10.99.67,18.31.98,16.7-8.19,16.45-22.06-.36-1.21,1.55-9.06-.49-10.88.73-3.06-.31-5.33.14-7.76,1.24-3.49-.73-7.3,1.53-10.67-3.13-6.37-.13-14.43-.43-21.33-1.36-1.92.14-5.07,0-6.63-1.09-7.45-.77-16.02-.84-23.46,2.98-1.97,6.61-.04,10.29-1.16,4.59,1.24,9.11.29,13.8.21,9.39-1.38,26.92,5.35,29.38-7.86-.28-9.27,1.49-18.81-.27-27.78.43-1.05,1.48-4.69-3.01-7.67-4.37-4.14-9.69-1-14.85-2.01-.45-.04-15.06.22-14.89-.36l-2.32-.91c-6.23,2.35-12.11.49-18.45.92,1.79-11.23-.58-20.94.91-32.42.52-5.32-1.82-13.55.17-19.42,14.58-.33,29.22-.32,43.97.29,3.32-.52,6.05.14,9.23,0,1.63-.39,3.64.14,5.05.95l.65-1.17c1.11.34,3.1.19,4.76-.48,2.85.67,8.17,1.88,11.21.26,4.38,2.58,11.04.07,15.87,1.05,1.43.21,3.06-.27,3.85-.85,2.95,1.56,6.28.71,9.51.87,1.91,4.03-.72,7.49.9,11.69.34.74-.37,1.55-.23,2.37.54,5.7-1.47,11.6.05,17.16.67,5.73-2.17,10.52.29,16.28-.55.02-.27,1.69-.33,1.97-.07,1.3-.95,4.38-.14,5.71.97,4.43-1.2,9.23.28,13.5-1.16,1.08.09,7.42-.07,8.28-1.27,7.1.58,14.13,0,21.19-.59,3.26-.65,6.67.22,10.11-.02,4.56-1.73,8.56.17,13.86.23,4.01-1.47,8.29-.64,12.26-.75,15.12.17,29.64-.34,44.94-.88,4.05.28,5.47.89,8.38-3.78,14.89,18.06,12.66,27.74,11.91,8.38-.08,22.43,3.6,27.75-5.3.82-1.13-.22-2.54.35-3.6,1.22-1.86-.63-5.15-.06-7.51.94-5.95-.18-12.15.03-18.18.38-9.07.53-18.24-.02-27.33-1.07-8.87,1.58-18.66.02-27.2l.38-.11c-.26-18.05.3-35.56-.48-53.59l1.34-1.17c-2.02-7.39-.67-15.18-.86-22.7.16-11.23-.86-22.19.27-33.38,4.09-.49,7.83,1.42,11.86-.29,1.46.73,3.31.75,4.6.11,1.21-.05,2.78.15,3.15.32,2.57.96,5.55-1.08,8.37-.46,6.21,1.9,17.71.59,17.6-7.35.4-2.83,2.12-4.49.22-8.47Zm-8.96-21.98h0s0,0,0,0h0Zm-15.04,11.92s0,0,0,0c0,0,0,0,0,0Zm-54.13,13.57h0s0,0,0,0c0,0,0,0,0,0Zm13.53,19.53h0s0,0,0,0c0,0,0,0,0,0Zm0,0h0,0Zm-29.32,170.82s0,0,0,0h0s0,0,0,0Zm40.97-142.68s0,0,0,0h0s0,0,0,0Zm-23.68-5.3h0s0,0,0,0h0Zm-5.64,29.13h0s0,0,0,0h0Zm0,0h0s0,0,0,0h0Zm-5.6,4.64h0s0,0,0,0Zm8.6,46.68h0s0,0,0,0Zm6.01-40.39h0s0,0,0,0h0c.5.22.38.44-.38.66-1.58.68-.67-2.07.38-.66Zm18.8-58.93h0s0,0,0,0Zm-16.54,135.07s0,0,0,0h0s0,0,0,0Zm14.75-31.45s0,0,0,0c0,0,0,0,0,0Zm-16.25-89.06h0s0,0,0,0h0Zm-40.97-40.72h0s0,0,0,0c0,0,0,0,0,0Zm-110.51,206.25h0s0,0,0,0h0Zm-15.03,3.64h0s0,0,0,0c0,0,0,0,0,0Zm-1.12-19.53h0s-.02,0-.02,0h0s.02,0,.02,0Zm25.17-107.26s0,0,0,0c0,0,0,0,0,0h0Zm-12.78,56.61s0,0,0,0h0s0,0,0,0Zm-23.31-4.97h0s0,0,0,0c0,0,0,0,0,0Zm31.2-41.05h0s0,0,0,0h0Zm-30.82-43.37h0s0,0,0,0Zm5.64,16.22s0,0,0,0h0s0,0,0,0h0Zm0-.45h0s0,0,0,0Zm0-.54h0s0,0,0,0c0,0,0,0,0,0Zm7.89,85.08s0,0,0,0h0s0,0,0,0Zm-5.64-13.24s0,0,0,0h0s0,0,0,0Zm56.76-58.93h.01s0,0,0,0c0,0,0,0-.01,0,0,0,0,0,0,0Z"/>
      </g>
      <path class="cls-9" d="m912.11,1019.55c-7.89-64.59,6.05-126.89,8.4-164.11.75-11.84,1.29-20.39,1.29-26.41,0-25.71-11.76-49.48-33.12-66.94-19.7-16.1-45.52-24.97-72.71-24.97H290.94c-27.19,0-53.02,8.87-72.71,24.97-21.36,17.46-31.69,47.63-33.12,66.94-.69,9.25,3.11,36.95,3.11,36.95,0,0,65.19,192.14-50.64,291.14"/>
      <path class="cls-14" d="m1027.16,1065.62c-21.72-14.61-50.17-22.04-80.09-20.94-29.92,1.11-57.73,10.62-78.32,26.79-20.59,16.17-31.48,37.07-30.68,58.83.13,3.58.59,7.12,1.34,10.59-26,1.91-48.42,12.78-61.58,28.11-18.45-14.89-45.66-23.8-75.63-22.69-25.25.93-48.02,8.82-64.92,20.97-5.81-8.54-13.76-16.31-23.65-22.96-21.71-14.58-50.12-22-80.01-20.9-29.89,1.11-57.68,10.6-78.25,26.75-2.16,1.69-4.2,3.44-6.14,5.23-15.45-18.86-44.36-30.99-76.93-29.78-37.54,1.39-68.92,20.07-79.93,44.89-14.33-8.17-32.67-12.76-52.47-12.02-2,.07-3.98.22-5.94.4-7.67-32.06-46.91-55.54-93.08-53.83-50.69,1.87-90.83,33.4-89.46,70.28s43.72,65.36,94.41,63.48c6.89-.25,13.59-1.06,20.01-2.35,10.82,23.66,42.15,40.09,78.38,38.75,33.39-1.23,61.52-17.21,72.8-38.81,14.63,9.27,33.7,14.89,54.54,15.05,6.15,15.33,26.03,26.11,49.1,25.25,14.59-.54,27.56-5.62,36.39-13.26.84.6,1.7,1.2,2.57,1.79,21.71,14.58,50.12,22,80.01,20.9,29.89-1.11,57.68-10.6,78.25-26.75,1.45-1.14,2.84-2.3,4.19-3.48,17.69,20.38,49.55,33.35,85.36,32.03,38.63-1.43,71.48-19.12,86.31-43.49,14.55,8.75,33.52,13.7,54.06,12.94,39.54-1.46,71.7-23.6,77.24-51.27,9.09,1.35,18.5,1.87,28.06,1.52,29.92-1.11,57.73-10.62,78.32-26.79,20.59-16.17,31.48-37.07,30.68-58.83s-13.21-41.8-34.94-56.4Z"/>
      <g>
        <g>
          <path class="cls-13" d="m741.39,1194.54c-1.77,0-3.55-.24-5.29-.7-5.4-1.53-9.71-4.25-12.9-8.11-3.28-3.97-5.04-8.65-5.21-13.92-.13-3.93.06-8,.55-12.11.45-3.76.99-7.63,1.6-11.5l.03-.15c.72-4.02,1.43-7.64,2.1-10.77.64-2.99,1.2-5.64,1.68-7.95.47-2.29.89-4.37,1.26-6.23.34-1.74.66-3.42.94-5.05.21-1.87.6-3.97,1.14-6.24.47-1.95.86-3.71,1.15-5.22l.06-.3c.76-3.2,1.5-6.23,2.2-9,.65-2.56,1.35-5.42,2.14-8.74l.03-.14.04-.14c.53-1.9,1.25-3.99,2.15-6.21,1.02-2.54,2.26-4.81,3.67-6.74l.11-.15c2.08-2.71,4.36-5.03,6.75-6.91,2.23-1.74,4.51-3.26,6.79-4.52,2.19-1.2,4.52-2.3,6.92-3.25.21-.09.93-.44,1.51-.73,3.59-1.77,11.07-5.45,21.33-8.01l.13-.03c11.12-2.57,16.59-4.33,21.42-5.88l1.97-.63c5.94-1.89,11.79-2.91,17.38-3.03h.5c2.73,0,5.45.38,8.07,1.13,3.11.89,5.8,2.31,8.01,4.22,2.6,2.25,4.32,5.11,5.11,8.51.81,3.52.28,7.25-1.59,11.1-1.52,3.29-3.87,5.88-6.98,7.71-2.33,1.37-4.9,2.47-7.65,3.29-2.24.67-19.75,5.29-22.51,5.79-2.48.45-13.19,2.66-15.09,3.15-1.87.64-3.83,1.25-5.82,1.83-1.66.48-3.32,1.08-4.92,1.77-1.29.56-2.48,1.26-3.54,2.08-.9.7-1.68,1.51-2.39,2.48,3.43-1.35,6.87-2.47,10.24-3.34,2.13-.6,4.06-.88,5.9-.88,4.33,0,8.06,1.72,10.5,4.85,2.85,3.67,3.93,8.4,3.22,14.04l-.02.17c-.66,4.4-2.26,8.43-4.76,11.97l-.12.18-.13.17c-2.53,3.19-5.21,5.11-8.22,5.88-1.06.27-2.44.74-4.12,1.39l-.21.08-.22.07c-3.37,1.07-6.65,2.21-9.75,3.38-2.82,1.07-5.88,2.57-9.09,4.45l-.14.08c-1.27.71-2.49,1.42-3.62,2.11-.04.06-.09.16-.15.29-.32.98-.45,1.58-.5,1.89.15-.07.31-.14.46-.21,2.31-1.02,4.68-1.97,7.04-2.81,2.6-.93,5.19-1.6,7.69-2.01,1.4-.23,2.83-.34,4.24-.34s2.92.12,4.37.37c3.14.55,7.57,2.27,11.23,7.38,2.96,4.13,4.04,8.83,3.14,13.59l-.04.2-.05.2c-.95,3.83-3.11,7.18-6.27,9.68-2.24,1.84-4.95,3.38-8.05,4.57-2.38.91-4.55,1.75-6.51,2.5-2.37.91-4.64,1.8-6.84,2.69-1.73.69-3.47,1.65-5.2,2.85l-.15.11-.16.1c-2.33,1.45-4.55,2.93-6.59,4.39-2.21,1.59-4.49,3.22-6.83,4.88l-.16.11c-4.22,2.83-8.59,4.27-12.99,4.27Z"/>
          <path class="cls-12" d="m823.57,1049.69c2.04,0,4.04.28,6,.84,2.06.59,3.79,1.49,5.17,2.68,1.38,1.2,2.29,2.71,2.71,4.53.42,1.82.07,3.89-1.07,6.19-.87,1.92-2.21,3.4-4,4.46-1.8,1.06-3.79,1.91-5.98,2.57-2.19.65-19.42,5.19-21.7,5.6-2.28.41-14.26,2.87-15.96,3.36-1.83.63-3.74,1.23-5.71,1.8-1.98.58-3.91,1.27-5.8,2.09-1.89.82-3.62,1.84-5.19,3.06-1.57,1.23-2.94,2.69-4.12,4.38-1.43,2.21-2.72,4.8-3.87,7.78-1.16,2.99-1.58,5.52-1.29,7.6.08,1.08.29,1.62.63,1.62,0,0,.02,0,.02,0,.36-.03,1.09-.33,2.21-.9,3.48-1.73,6.97-3.31,10.47-4.74,3.5-1.43,6.95-2.57,10.35-3.44,1.48-.42,2.8-.63,3.96-.63,2.04,0,3.56.65,4.58,1.96,1.59,2.05,2.16,4.88,1.7,8.49-.49,3.25-1.64,6.17-3.47,8.77-1.46,1.84-2.85,2.93-4.2,3.27-1.35.35-3,.9-4.97,1.66-3.53,1.12-6.9,2.29-10.13,3.51-3.23,1.22-6.64,2.89-10.24,5-1.53.85-2.91,1.67-4.15,2.43-1.24.77-2.23,2.05-2.97,3.83-.48,1.39-.79,2.59-.93,3.59-.14,1-.32,2.13-.51,3.37-.06,1.24-.08,2.41-.07,3.53,0,1.11.15,2.03.42,2.75.27.72.77,1.18,1.51,1.37.18.05.38.07.61.07.7,0,1.64-.23,2.81-.69,1.95-.88,4.01-1.8,6.18-2.76,2.17-.96,4.34-1.83,6.52-2.6,2.18-.78,4.3-1.33,6.37-1.67,1.02-.16,2.03-.25,3.04-.25s2.09.09,3.13.26c2.48.44,4.61,1.89,6.38,4.36,1.76,2.47,2.39,5.08,1.87,7.83-.56,2.26-1.79,4.14-3.7,5.64-1.63,1.35-3.64,2.49-6.03,3.4-2.39.91-4.56,1.75-6.53,2.51-2.39.92-4.7,1.82-6.94,2.73-2.24.9-4.47,2.11-6.66,3.63-2.48,1.54-4.83,3.1-7.02,4.68-2.19,1.58-4.46,3.2-6.79,4.85-2.98,2-5.91,3-8.81,3-1.12,0-2.23-.15-3.34-.45-3.83-1.08-6.85-2.96-9.06-5.64-2.22-2.68-3.38-5.81-3.49-9.38-.12-3.57.05-7.23.5-10.97.45-3.74.97-7.48,1.57-11.23.72-4,1.4-7.51,2.05-10.52.65-3.01,1.21-5.68,1.69-8,.48-2.32.9-4.42,1.27-6.3.37-1.88.71-3.69,1.01-5.45.17-1.62.51-3.46,1-5.54.5-2.07.91-3.92,1.22-5.55.77-3.27,1.5-6.22,2.17-8.86.67-2.64,1.4-5.6,2.17-8.87.46-1.64,1.08-3.44,1.88-5.42.79-1.97,1.71-3.67,2.77-5.11,1.71-2.22,3.53-4.08,5.44-5.58,1.91-1.5,3.84-2.78,5.78-3.85,1.94-1.07,3.97-2.02,6.07-2.85,2.1-.83,9.9-5.44,21.9-8.44,13-3,18.69-4.99,23.97-6.67,5.29-1.68,10.38-2.57,15.28-2.68.11,0,.22,0,.34,0m0-15c-.19,0-.37,0-.56,0h-.06s-.06,0-.06,0c-6.31.14-12.86,1.28-19.49,3.38-.66.21-1.32.42-2,.64-4.68,1.51-9.99,3.22-20.81,5.71l-.13.03-.13.03c-11.03,2.76-18.99,6.68-22.82,8.56-.46.23-.83.41-1.13.55-2.64,1.05-5.2,2.26-7.61,3.59-2.62,1.44-5.25,3.19-7.8,5.18-2.89,2.26-5.61,5.04-8.07,8.24l-.11.14-.11.15c-1.78,2.43-3.32,5.25-4.58,8.37-1,2.48-1.81,4.83-2.42,7l-.08.28-.07.29c-.76,3.2-1.47,6.1-2.11,8.62-.72,2.81-1.47,5.89-2.23,9.13l-.07.3-.06.3c-.27,1.4-.63,3.04-1.08,4.89-.61,2.52-1.02,4.78-1.28,6.91-.26,1.46-.55,3-.88,4.7-.36,1.81-.77,3.87-1.24,6.14-.47,2.29-1.03,4.92-1.67,7.89-.69,3.21-1.41,6.92-2.15,11.03l-.03.15-.02.15c-.62,3.95-1.18,7.91-1.64,11.79-.54,4.48-.74,8.94-.6,13.25.22,6.85,2.61,13.23,6.93,18.45,4.17,5.05,9.74,8.59,16.54,10.51l.09.03.09.02c2.37.64,4.81.96,7.24.96,5.91,0,11.69-1.86,17.17-5.54l.16-.11.16-.11c2.36-1.67,4.65-3.31,6.88-4.91,1.9-1.37,3.97-2.75,6.16-4.11l.32-.2.31-.21c1.27-.88,2.53-1.57,3.73-2.06,2.1-.85,4.35-1.73,6.71-2.64,1.99-.77,4.15-1.6,6.52-2.51,3.84-1.47,7.23-3.4,10.09-5.74,4.44-3.54,7.5-8.28,8.84-13.72l.1-.4.08-.41c1.29-6.83-.23-13.52-4.41-19.35-2.05-2.86-4.29-4.96-6.53-6.51,2.64-1.51,5.09-3.68,7.3-6.47l.27-.34.25-.35c3.17-4.51,5.2-9.62,6.04-15.18l.03-.17.02-.17c1.2-9.49-1.84-15.81-4.65-19.47.18-.03.33-.06.46-.09,3.36-.61,21.56-5.46,23.31-5.98,3.32-.99,6.45-2.34,9.29-4,4.38-2.58,7.82-6.36,9.96-10.97,3.25-6.73,2.95-12.4,2.13-15.98-1.15-4.93-3.74-9.24-7.52-12.51-3.04-2.63-6.69-4.56-10.84-5.75-3.3-.94-6.71-1.42-10.14-1.42h0Z"/>
        </g>
        <g>
          <path class="cls-13" d="m587.35,1231.04c-1.75,0-3.51-.23-5.23-.7-5.33-1.5-9.58-4.19-12.74-8.01-3.25-3.92-4.98-8.55-5.14-13.75-.13-3.87.06-7.88.54-11.91.45-3.71.98-7.51,1.57-11.3l.03-.15c.71-3.96,1.4-7.52,2.06-10.59.63-2.94,1.18-5.54,1.65-7.8.47-2.25.88-4.29,1.24-6.12.33-1.7.64-3.35.92-4.95.21-1.83.59-3.9,1.12-6.14.46-1.93.84-3.65,1.13-5.12l.06-.3c.74-3.13,1.47-6.1,2.16-8.84.64-2.52,1.33-5.33,2.1-8.58l.07-.28c.52-1.87,1.23-3.93,2.12-6.12,1.01-2.51,2.23-4.74,3.62-6.65l.11-.14c2.05-2.67,4.29-4.96,6.66-6.81,2.19-1.72,4.44-3.21,6.69-4.45,2.16-1.19,4.46-2.27,6.81-3.2,1.71-.67,3.37-1.48,4.94-2.39l.13-.08.13-.07c4.88-2.59,10.19-4.8,15.79-6.58,5.85-1.86,11.6-2.86,17.11-2.99h.5c2.7,0,5.37.37,7.95,1.11,3.08.88,5.74,2.29,7.92,4.17,2.58,2.23,4.28,5.07,5.06,8.43.8,3.49.27,7.18-1.58,10.99-1.5,3.25-3.83,5.82-6.91,7.63-2.29,1.35-4.83,2.44-7.54,3.24-2.4.72-4.89,1.31-7.39,1.76-1.91.35-3.58.72-4.93,1.11-1.85.63-3.79,1.24-5.77,1.82-1.63.48-3.25,1.06-4.82,1.74-1.26.54-2.42,1.23-3.45,2.03-.75.59-1.42,1.26-2.03,2.03,3.23-1.25,6.46-2.3,9.63-3.11,2.11-.59,4.01-.87,5.83-.87,4.3,0,8,1.71,10.41,4.81,2.83,3.65,3.9,8.32,3.19,13.89l-.02.17c-.65,4.34-2.23,8.32-4.7,11.82l-.12.17-.13.17c-2.5,3.15-5.16,5.06-8.14,5.82-1.03.26-2.39.72-4.03,1.36l-.21.08-.22.07c-3.32,1.06-6.54,2.17-9.57,3.32-2.77,1.05-5.77,2.52-8.91,4.37l-.14.08c-1.25.7-2.43,1.39-3.52,2.06-.03.05-.07.13-.12.23-.14.43-.25.79-.32,1.08,2.35-1.25,4.03-2.12,5.1-2.59.43-.19,1.41-.63,2.7-1.21,9.65-4.34,15.57-6.96,17.23-7.56,2.57-.91,5.12-1.58,7.58-1.98,1.38-.23,2.79-.34,4.18-.34s2.89.12,4.32.36c3.1.55,7.49,2.25,11.11,7.3,2.93,4.09,4,8.74,3.11,13.46l-.04.2-.05.2c-.94,3.79-3.08,7.1-6.21,9.58-2.21,1.82-4.88,3.33-7.95,4.51-2.34.9-4.47,1.71-6.39,2.46-1.16.44-6.96,3.02-11.21,4.9-4.6,2.04-7.48,3.32-8.51,3.73-1.69.68-3.4,1.62-5.09,2.78l-.15.11-.16.1c-8.23,5.1-10.72,6.77-11.46,7.31-2.17,1.56-4.41,3.16-6.71,4.79l-.16.11c-4.17,2.8-8.49,4.22-12.83,4.22Z"/>
          <path class="cls-12" d="m643.51,1094.51c2.01,0,3.97.27,5.89.82,2.03.58,3.72,1.46,5.08,2.63,1.36,1.18,2.24,2.66,2.66,4.45.41,1.79.06,3.82-1.05,6.08-.86,1.88-2.17,3.34-3.93,4.38-1.77,1.04-3.73,1.88-5.88,2.52-2.15.64-4.35,1.17-6.58,1.57-2.24.41-4.19.85-5.85,1.34-1.8.62-3.67,1.21-5.61,1.77-1.94.57-3.84,1.25-5.7,2.05-1.85.8-3.55,1.8-5.09,3.01-1.54,1.2-2.89,2.64-4.05,4.3-1.4,2.17-2.67,4.72-3.8,7.65-1.14,2.93-1.56,5.42-1.27,7.46.08,1.06.28,1.59.62,1.59,0,0,.02,0,.02,0,.35-.02,1.07-.32,2.17-.89,3.42-1.7,6.85-3.26,10.29-4.66,3.44-1.4,6.83-2.53,10.17-3.38,1.46-.41,2.75-.62,3.89-.62,2,0,3.5.64,4.5,1.92,1.56,2.01,2.12,4.79,1.67,8.34-.48,3.19-1.62,6.06-3.41,8.62-1.43,1.8-2.8,2.87-4.12,3.21-1.32.34-2.95.88-4.88,1.63-3.46,1.1-6.78,2.25-9.95,3.45-3.17,1.2-6.53,2.84-10.06,4.92-1.5.84-2.86,1.63-4.08,2.39-1.22.76-2.19,2.01-2.92,3.76-.47,1.37-.77,2.54-.91,3.52-.14.98-.31,2.09-.5,3.31-.05,1.22-.08,2.37-.07,3.46,0,1.09.14,1.99.41,2.7.26.71.75,1.16,1.48,1.35.18.05.37.07.6.07.69,0,1.61-.23,2.76-.68,1.92-.87,8.94-4.77,11.07-5.71,2.13-.94,17.26-7.79,19.4-8.56,2.14-.76,4.23-1.31,6.26-1.64,1-.16,1.99-.24,2.98-.24s2.05.09,3.07.26c2.44.43,4.52,1.86,6.26,4.28,1.73,2.42,2.34,4.99,1.83,7.69-.55,2.22-1.76,4.07-3.64,5.54-1.6,1.33-3.58,2.44-5.92,3.34-2.35.9-4.48,1.72-6.41,2.47-2.35.9-17.62,7.79-19.82,8.68-2.2.89-4.39,2.08-6.54,3.57-2.44,1.51-9.74,6.05-11.89,7.6-2.16,1.55-4.38,3.14-6.67,4.76-2.92,1.96-5.81,2.94-8.65,2.94-1.1,0-2.19-.15-3.28-.44-3.76-1.06-6.73-2.91-8.9-5.54-2.18-2.63-3.32-5.7-3.43-9.21-.12-3.51.05-7.1.49-10.77.44-3.67.95-7.35,1.54-11.03.71-3.93,1.38-7.38,2.01-10.34.64-2.96,1.19-5.57,1.66-7.85.47-2.28.89-4.34,1.25-6.19.36-1.85.69-3.63.99-5.35.17-1.59.5-3.4.99-5.44.49-2.04.89-3.86,1.2-5.46.76-3.21,1.47-6.11,2.13-8.71.66-2.6,1.37-5.5,2.13-8.71.45-1.61,1.06-3.38,1.85-5.32.78-1.94,1.68-3.61,2.72-5.02,1.68-2.18,3.46-4.01,5.34-5.48,1.88-1.47,3.77-2.73,5.68-3.78,1.91-1.05,3.9-1.98,5.96-2.8,2.07-.82,4.05-1.78,5.95-2.89,4.5-2.39,9.35-4.41,14.54-6.06,5.19-1.65,10.19-2.53,15.01-2.63.11,0,.22,0,.33,0m0-15c-.18,0-.37,0-.55,0h-.06s-.06,0-.06,0c-6.22.14-12.68,1.26-19.21,3.34-6.02,1.91-11.75,4.3-17.03,7.11l-.27.14-.26.15c-1.24.72-2.56,1.36-3.9,1.89-2.67,1.06-5.24,2.27-7.68,3.61-2.6,1.43-5.19,3.15-7.7,5.12-2.86,2.24-5.54,4.98-7.98,8.14l-.11.14-.11.14c-1.76,2.41-3.29,5.19-4.53,8.28-.98,2.44-1.79,4.76-2.38,6.9l-.08.28-.07.29c-.74,3.14-1.44,5.99-2.07,8.46-.71,2.76-1.44,5.78-2.2,8.97l-.07.3-.06.3c-.26,1.36-.62,2.97-1.05,4.79-.6,2.48-1.01,4.71-1.26,6.81-.25,1.43-.53,2.94-.86,4.6-.35,1.78-.76,3.8-1.22,6.03-.47,2.25-1.01,4.83-1.64,7.74-.68,3.15-1.39,6.8-2.11,10.84l-.03.15-.02.15c-.61,3.87-1.16,7.77-1.61,11.58-.53,4.41-.73,8.8-.59,13.06.22,6.79,2.59,13.11,6.87,18.28,4.13,5,9.65,8.51,16.38,10.42l.09.02.09.02c2.35.63,4.77.96,7.18.96,5.86,0,11.59-1.85,17.01-5.49l.16-.11.15-.11c2.32-1.64,4.57-3.25,6.75-4.82.43-.31,2.47-1.71,11.04-7.03l.32-.2.31-.21c1.23-.85,2.45-1.52,3.62-1.99,1.16-.47,3.94-1.7,8.75-3.84,3.86-1.71,9.69-4.3,10.85-4.76,1.94-.75,4.06-1.57,6.39-2.46,3.8-1.46,7.16-3.37,9.98-5.68,4.41-3.51,7.44-8.22,8.78-13.62l.1-.4.08-.41c1.28-6.78-.23-13.42-4.37-19.21-4.26-5.94-9.37-8.61-13.51-9.78,1.33-2.94,2.25-6.07,2.74-9.36l.03-.17.02-.17c1.2-9.46-1.86-15.75-4.66-19.38,2.79-.93,5.44-2.12,7.88-3.55,4.35-2.56,7.76-6.32,9.89-10.89,3.22-6.68,2.93-12.31,2.11-15.87-1.14-4.9-3.72-9.19-7.47-12.43-3.01-2.6-6.63-4.52-10.75-5.7-3.28-.94-6.65-1.41-10.04-1.41h0Z"/>
        </g>
        <g>
          <path class="cls-13" d="m813.74,1176.73c-3,0-5.74-.51-8.16-1.51l-.18-.08-.18-.09c-5.58-2.67-7.98-6.58-9.01-9.39-1.08-2.96-1.62-6.11-1.61-9.38-.16-2.65.04-5.49.61-8.42l.03-.16c.41-1.91.85-3.85,1.31-5.82.44-1.86.85-3.71,1.25-5.53.98-4.29,2.2-8.44,3.64-12.4,1.17-3.21,2.02-6.47,2.54-9.7l.03-.2.04-.2c.41-1.91.54-3.99.38-6.19-.12-1.64-.29-3.31-.51-4.97-.34-2.52-.24-5.12.29-7.73.5-3.34,2.06-6.74,4.64-10.12l.12-.15c1.12-1.39,2.58-2.81,4.45-4.35,1.84-1.51,3.86-2.86,6.01-4,2.27-1.2,4.59-2.09,6.89-2.63,1.21-.28,2.41-.43,3.59-.43,2.06,0,4.03.44,5.85,1.3,2.82,1.3,5,3.11,6.5,5.38,1,1.52,1.75,3.18,2.25,4.96.53-2.09,1.22-4.25,2.07-6.46,1.8-4.68,5.12-8.59,9.85-11.63l.15-.1c4.04-2.46,8.23-3.71,12.46-3.71,1.13,0,2.27.09,3.39.27l.13.02c5.28.93,7.78,3.76,8.94,5.97,1.01,1.91,1.62,4.04,1.82,6.36.35,2.76.02,5.43-.98,7.94-.59,1.48-1.29,3.1-2.08,4.84-.49,1.07-.86,2.22-1.09,3.45-.36,1.88-.77,3.73-1.2,5.51-.23,1.06-.45,2.15-.68,3.25-.19.94-.34,1.9-.44,2.85l-.03.31-.06.31c-.59,3.07-1.06,6.1-1.4,9.01-.37,3.1-.75,6.27-1.16,9.5-.34,3.42-.52,6.88-.51,10.28,0,3.3.26,6.51.76,9.54.26,1.64.41,3.29.47,5,.11,3.21-.99,6.36-3.17,9.11-2.28,2.91-5.45,5.05-9.38,6.34-3.17,1.04-6.33,1.62-9.39,1.73-.29,0-.55.01-.81.01-2.92,0-5.6-.52-7.95-1.53-2.43-1.04-4.57-2.49-6.35-4.3-1.39-1.41-2.69-2.98-3.85-4.67-.72-1.05-1.4-2.09-2.02-3.09,0,1.99,0,3.97.05,5.89v.36s-.02.36-.02.36c-.03.36-.02.81.02,1.31.1,1.44.04,2.92-.2,4.41l-.03.21-.04.2c-.26,1.19-.64,2.4-1.14,3.59-.71,1.68-1.77,3.21-3.16,4.59-1.65,1.63-3.67,2.84-6.03,3.61-1.84.6-3.73.98-5.61,1.11-.7.05-1.4.08-2.08.08Z"/>
          <path class="cls-12" d="m869.03,1070.52c.74,0,1.48.06,2.21.18,1.85.33,3.05,1.02,3.61,2.08.56,1.06.89,2.28.99,3.65.22,1.55.06,3.01-.49,4.38-.54,1.37-1.19,2.87-1.93,4.48-.74,1.62-1.29,3.33-1.64,5.15-.35,1.82-.73,3.57-1.15,5.25-.24,1.12-.48,2.26-.72,3.43-.24,1.17-.42,2.35-.55,3.55-.62,3.26-1.12,6.45-1.48,9.55-.37,3.11-.75,6.28-1.16,9.53-.38,3.7-.56,7.42-.56,11.14,0,3.72.29,7.31.86,10.76.2,1.27.32,2.62.37,4.04.05,1.42-.47,2.81-1.55,4.18-1.38,1.75-3.32,3.05-5.84,3.87-2.52.83-4.95,1.28-7.31,1.36-.19,0-.37,0-.56,0-1.91,0-3.57-.31-4.98-.92-1.55-.67-2.88-1.56-3.98-2.68-1.1-1.11-2.1-2.33-3-3.64-.9-1.31-1.72-2.58-2.45-3.82-.61-1.06-1.28-2.13-2.01-3.23-.72-1.1-1.4-2.22-2.02-3.37-.48-.7-1.11-1.64-1.9-2.83-.79-1.18-1.73-1.96-2.83-2.34-.1-.02-.19-.03-.29-.03-.52,0-.94.32-1.25.97-.37.76-.71,1.71-1,2.83-.3,1.12-.53,2.29-.71,3.5-.18,1.21-.35,2.19-.51,2.93-.49,2.15-.74,4.26-.75,6.33-.01,2.07,0,4.16.05,6.27-.05.74-.05,1.54.01,2.41.06.87.02,1.77-.13,2.7-.16.75-.4,1.5-.72,2.26-.32.76-.83,1.48-1.53,2.18-.8.79-1.83,1.39-3.09,1.81-1.26.41-2.53.67-3.81.76-.53.04-1.04.06-1.54.06-2.02,0-3.78-.31-5.29-.94-2.67-1.28-4.4-3.01-5.21-5.21-.8-2.19-1.19-4.53-1.15-7.01-.15-2.1,0-4.36.47-6.79.4-1.87.83-3.76,1.28-5.68.45-1.91.88-3.81,1.28-5.67.9-3.92,2.02-7.73,3.36-11.41,1.34-3.68,2.31-7.38,2.9-11.1.56-2.61.74-5.38.52-8.31-.13-1.83-.32-3.63-.55-5.4-.24-1.77-.16-3.59.25-5.46.27-2.13,1.34-4.42,3.21-6.85.79-.97,1.91-2.07,3.38-3.28,1.47-1.21,3.06-2.27,4.76-3.17,1.71-.9,3.4-1.56,5.09-1.95.65-.15,1.27-.23,1.87-.23.96,0,1.85.2,2.67.59,1.55.71,2.69,1.62,3.42,2.72.72,1.1,1.21,2.32,1.47,3.68.26,1.36.38,2.73.38,4.11,0,1.38.08,2.66.28,3.84.21,1.45.44,2.77.69,3.95.25,1.18.49,2.31.73,3.39.24,1.08.56,2.21.97,3.38.41,1.17.98,2.41,1.72,3.73.25.44.53.97.84,1.59.31.62.65,1.13,1,1.51.29.32.61.49.95.49.07,0,.14,0,.21-.02.42-.08.87-.55,1.35-1.41.76-1.34,1.28-2.64,1.57-3.9.28-1.26.53-2.63.75-4.12.21-1.48.41-2.79.6-3.9.19-1.12.35-2.18.49-3.21.14-1.02.3-2.09.49-3.21.19-1.12.39-2.42.6-3.9.44-2.79,1.27-5.77,2.49-8.93,1.22-3.17,3.52-5.84,6.9-8.01,2.86-1.74,5.71-2.61,8.56-2.61m0-15c-5.63,0-11.13,1.61-16.36,4.8l-.15.09-.15.1c-4.05,2.6-7.3,5.73-9.73,9.35-1.14-.78-2.37-1.48-3.7-2.1-2.82-1.33-5.86-2-9.02-2-1.75,0-3.54.21-5.31.63-2.92.69-5.84,1.8-8.67,3.3-2.6,1.38-5.05,3.01-7.28,4.85-2.26,1.86-4.06,3.64-5.51,5.42l-.12.15-.12.16c-3.32,4.33-5.36,8.83-6.07,13.37-.66,3.37-.78,6.74-.34,10.05.2,1.48.35,3.01.46,4.5.11,1.49.03,2.86-.23,4.08l-.08.4-.06.4c-.44,2.76-1.17,5.56-2.17,8.31-1.55,4.26-2.86,8.7-3.89,13.21l-.02.09-.02.09c-.38,1.75-.79,3.57-1.22,5.4-.47,1.99-.92,4-1.34,5.96l-.03.15-.03.15c-.67,3.47-.92,6.85-.75,10.06.01,4.08.71,8.03,2.07,11.74,1.51,4.12,4.95,9.81,12.81,13.58l.36.17.37.15c3.34,1.39,7.05,2.09,11.04,2.09.86,0,1.74-.03,2.63-.1,2.48-.18,4.97-.67,7.39-1.47,3.48-1.15,6.49-2.96,8.95-5.39,2.11-2.1,3.72-4.44,4.8-6.99v-.03s.02-.03.02-.03c.25-.6.48-1.2.69-1.81.97.56,1.98,1.07,3.03,1.52,3.27,1.41,6.95,2.13,10.9,2.13.33,0,.67,0,1.01-.02,3.81-.13,7.68-.83,11.53-2.1,5.34-1.75,9.69-4.72,12.92-8.82,3.29-4.16,4.94-8.99,4.77-13.98-.07-2.02-.25-3.98-.54-5.84v-.07s-.02-.07-.02-.07c-.44-2.63-.66-5.43-.66-8.31,0-3.13.15-6.31.47-9.45.39-3.12.78-6.3,1.15-9.46.32-2.74.76-5.59,1.32-8.49l.12-.62.07-.63c.07-.71.19-1.43.33-2.14.21-1.03.42-2.05.64-3.06.45-1.86.87-3.79,1.25-5.76.13-.65.3-1.22.54-1.74.85-1.86,1.6-3.61,2.24-5.21,1.45-3.65,1.94-7.52,1.46-11.49-.3-3.26-1.19-6.31-2.64-9.07-1.59-3.01-5.56-8.31-14.26-9.85l-.13-.02-.13-.02c-1.51-.24-3.04-.36-4.56-.36h0Z"/>
        </g>
        <g>
          <path class="cls-13" d="m892.19,1160.56c-6.5,0-12.07-2.44-16.11-7.05l-.17-.2c-3.01-3.69-4.76-8.66-5.2-14.79-.38-5.2.11-11.38,1.44-18.36.35-1.99.72-3.96,1.12-5.86.4-1.95.83-4.01,1.3-6.17l.04-.21.06-.21c.8-2.9,1.52-6.04,2.14-9.33.63-3.33,1.19-6.86,1.68-10.49l.04-.29,1.71-9.79c.48-2.72.98-5.57,1.51-8.54.09-.8.23-1.74.43-2.85-1.68.56-3.37,1.13-4.74,1.59-5.11,1.71-8.31,2.79-9.87,3.19-2.13.55-4.18.83-6.11.83-2.35,0-4.56-.41-6.58-1.22-2.47-.96-6.7-3.54-7.84-10.1-.54-3.07-.58-5.99-.12-8.67.46-3.08,1.53-6.03,3.2-8.78,1.88-3.11,4.22-5.4,6.94-6.81l.25-.12c3.49-1.64,20.25-8.11,23.91-9.39,3.77-1.31,7.07-2.46,9.88-3.45,2.49-.95,5.06-1.94,7.69-2.98,2.79-1.09,5.66-2.15,8.56-3.16,3.96-1.36,8.19-2.74,12.6-4.13,4.75-1.49,9.46-2.5,14.01-2.98,1.72-.25,3.45-.38,5.15-.38,2.41,0,4.83.26,7.18.76,4.8,1.04,8.56,3.26,11.19,6.61,2.3,2.38,4.68,6.39,4.16,12.52l-.05.61-.15.6c-.79,3.09-2.38,5.95-4.72,8.48-2.04,2.21-4.55,4.14-7.47,5.74l-.14.08-.15.07c-3.62,1.78-7.14,2.85-10.46,3.18-1.61.16-3.46.7-5.5,1.6-1.32.64-1.75.99-1.76,1-.27.25-.39.42-.43.49,0,.01-.1.19-.19.63-.24,1.18-.53,2.59-.88,4.23l-.04.21-.06.21c-1.64,5.92-3.04,11.91-4.18,17.79-1.17,6.08-2.31,12.2-3.37,18.18l-.03.15c-.43,2.16-.82,4.4-1.16,6.66-.36,2.39-.78,4.75-1.22,7.04-.38,3.14-.86,6.63-1.42,10.39-.56,3.73-1.03,7.17-1.4,10.24-.29,2.42-.62,4.95-.97,7.57-.37,2.73-.8,5.33-1.27,7.74l-.03.13c-.76,3.51-1.99,6.66-3.68,9.38-2.31,3.73-6.1,6.24-11.24,7.47-2.6.62-5.1.94-7.44.94Z"/>
          <path class="cls-12" d="m939.09,1017.37c1.89,0,3.76.2,5.61.59,3.2.69,5.56,2.1,7.1,4.22,1.81,1.71,2.59,4.02,2.34,6.93-.48,1.88-1.46,3.63-2.96,5.24-1.49,1.62-3.35,3.04-5.56,4.25-2.82,1.39-5.45,2.2-7.89,2.45-2.44.24-5.07.99-7.9,2.25-1.64.78-2.85,1.52-3.64,2.24-.79.72-1.43,1.48-1.91,2.31-.48.82-.83,1.81-1.05,2.94-.23,1.14-.51,2.5-.85,4.11-1.7,6.17-3.14,12.29-4.31,18.36-1.17,6.07-2.31,12.17-3.4,18.29-.45,2.27-.86,4.6-1.22,6.99-.37,2.39-.77,4.72-1.22,6.99-.39,3.18-.86,6.67-1.43,10.46-.57,3.79-1.05,7.28-1.43,10.46-.29,2.39-.61,4.88-.96,7.47-.35,2.59-.75,5.02-1.2,7.29-.58,2.67-1.48,5.01-2.72,7-1.24,1.99-3.44,3.37-6.61,4.13-2.04.49-3.94.73-5.7.73-4.36,0-7.84-1.5-10.47-4.49-2.02-2.48-3.2-6.01-3.53-10.59-.33-4.58.11-10.07,1.34-16.47.32-1.86.68-3.76,1.08-5.7.4-1.93.82-3.97,1.28-6.11.85-3.08,1.61-6.39,2.27-9.93.67-3.53,1.24-7.16,1.75-10.88.65-3.73,1.22-6.99,1.71-9.79.49-2.8,1-5.72,1.55-8.79.08-.92.3-2.22.64-3.89.34-1.67.57-3.26.69-4.78.12-1.52,0-2.76-.38-3.72-.31-.79-.85-1.18-1.62-1.18-.17,0-.34.02-.53.06-3.03.61-19.12,6.33-22.29,7.15-1.52.39-2.93.59-4.23.59-1.41,0-2.69-.23-3.84-.7-1.74-.66-2.8-2.13-3.2-4.4-.4-2.27-.43-4.34-.11-6.21.31-2.12,1.04-4.15,2.21-6.08,1.16-1.92,2.49-3.27,3.97-4.03,2.97-1.4,19.36-7.76,23.18-9.09,3.82-1.33,7.15-2.49,10-3.49,2.54-.97,5.15-1.98,7.84-3.03,2.69-1.05,5.45-2.07,8.3-3.07,3.89-1.33,8.02-2.68,12.38-4.05,4.35-1.37,8.59-2.27,12.7-2.7,1.41-.21,2.81-.32,4.2-.32m0-15c-2.01,0-4.06.15-6.09.44-4.99.55-10.14,1.65-15.31,3.27-4.48,1.41-8.76,2.81-12.74,4.17l-.05.02-.05.02c-2.98,1.04-5.94,2.14-8.8,3.25-2.6,1.02-5.11,1.99-7.55,2.92-2.79.98-6.04,2.11-9.76,3.4-3.99,1.39-20.97,7.96-24.65,9.69l-.26.12-.25.13c-3.96,2.05-7.3,5.28-9.9,9.59-2.17,3.58-3.58,7.45-4.19,11.49-.58,3.5-.53,7.25.14,11.14,1.29,7.45,5.84,13.2,12.49,15.79,2.9,1.15,6.04,1.74,9.33,1.74,2.56,0,5.25-.36,8-1.07.79-.21,1.84-.52,3.24-.97l-1.54,8.82-.05.29-.04.29c-.47,3.5-1.02,6.9-1.62,10.1-.58,3.09-1.25,6.03-2,8.72l-.11.41-.09.42c-.47,2.19-.91,4.27-1.31,6.25-.4,1.95-.79,3.97-1.14,6.01-1.47,7.7-1.98,14.33-1.55,20.25.56,7.69,2.87,14.08,6.87,18.98l.17.21.18.2c5.51,6.28,13.03,9.61,21.75,9.61,2.93,0,6.02-.39,9.19-1.15,8.88-2.12,13.53-7.05,15.86-10.8,2.14-3.45,3.7-7.4,4.64-11.75l.03-.13.03-.13c.5-2.54.96-5.29,1.35-8.17.38-2.79.7-5.3.98-7.69.36-2.99.82-6.35,1.37-10.01.56-3.73,1.04-7.2,1.42-10.34.44-2.28.85-4.66,1.22-7.07.33-2.16.7-4.28,1.11-6.34l.03-.15.03-.15c1.05-5.92,2.18-12,3.35-18.07,1.1-5.69,2.46-11.48,4.04-17.21l.12-.42.09-.43c.12-.56.23-1.1.34-1.61.91-.31,1.51-.42,1.84-.45,4.21-.42,8.59-1.74,13.02-3.91l.29-.14.28-.15c3.64-1.99,6.8-4.43,9.39-7.24,3.19-3.45,5.37-7.4,6.47-11.71l.3-1.19.11-1.23c.6-6.96-1.52-13.34-5.99-18.11-2.76-3.38-7.49-7.31-15.24-8.99-2.89-.62-5.83-.93-8.77-.93h0Z"/>
        </g>
        <g>
          <path class="cls-13" d="m677.28,1186.2c-5.49,0-10.08-1.4-13.65-4.17-4.59-3.56-6.68-8.81-5.88-14.79.49-4.11.85-8.16,1.06-12.05.22-3.91.29-7.94.22-11.99v-.1c-.02-6.61-.15-13.26-.39-19.76-.25-6.72-.33-13.59-.22-20.41v-.25s.02-.25.02-.25c.17-2.1.62-4.26,1.34-6.42.9-2.71,2.5-5.23,4.77-7.47,1.4-1.38,3.07-2.67,4.96-3.82,1.87-1.14,3.87-2.07,5.96-2.76,2.14-.71,4.33-1.15,6.51-1.31.61-.04,1.19-.06,1.76-.06,1.72,0,3.35.2,4.85.59l.47.12.45.18c2.19.89,4.03,2.34,5.31,4.21,1.12,1.63,1.83,3.46,2.12,5.45.17,1.2.26,2.41.27,3.63,0,1.08-.03,2.07-.1,2.97-.12,2.79-.15,5.42-.08,7.82,0,.25.01.5.02.76.85-3.38,1.54-6.84,2.03-10.29l.04-.26.05-.25c.09-.43.16-.92.19-1.45.07-1.2.22-2.39.45-3.53.55-3.35,1.7-6.57,3.4-9.58,2.06-3.65,5.59-6.69,10.5-9.02,2.54-1.24,5.2-2.1,7.91-2.57,1.41-.24,2.82-.36,4.2-.36,1.47,0,2.94.14,4.38.41l.15.03.15.04c2.82.66,5.1,1.94,6.78,3.8,1.56,1.73,2.57,3.76,3.03,6.04.34,1.76.39,3.63.13,5.58-.15,1.15-.29,2.31-.44,3.5l-.03.29-.06.28c-.38,1.91-.86,3.89-1.43,5.89-.54,1.87-1.1,3.7-1.68,5.46-1.35,4.75-2.87,9.42-4.52,13.9-1.65,4.47-3.63,9.33-5.91,14.44-3.58,8.47-7.71,16.83-12.28,24.86-1.58,2.95-3.37,5.85-5.34,8.62-1.73,2.42-3.49,5.01-5.25,7.69-1.06,1.65-2.35,3.4-3.78,5.13-1.55,1.87-3.28,3.59-5.16,5.11-2,1.62-4.26,3-6.72,4.1-2.75,1.23-5.75,1.9-8.92,2-.56.03-1.1.04-1.64.04Z"/>
          <path class="cls-12" d="m725.81,1076.5c1.01,0,2,.09,2.97.28,1.31.31,2.29.81,2.93,1.52.64.71,1.05,1.53,1.24,2.47.18.94.2,2,.05,3.16-.15,1.17-.3,2.36-.44,3.57-.34,1.73-.77,3.5-1.29,5.29-.52,1.8-1.06,3.57-1.64,5.32-1.31,4.62-2.77,9.12-4.39,13.5-1.62,4.39-3.54,9.07-5.76,14.05-3.51,8.29-7.5,16.36-11.97,24.22-1.45,2.72-3.07,5.35-4.88,7.89-1.81,2.54-3.61,5.19-5.41,7.93-.95,1.48-2.05,2.96-3.28,4.46-1.24,1.5-2.61,2.85-4.1,4.06-1.5,1.21-3.18,2.24-5.06,3.08-1.88.84-3.93,1.29-6.15,1.35-.46.02-.91.03-1.34.03-3.8,0-6.82-.86-9.05-2.6-2.49-1.93-3.5-4.57-3.04-7.92.51-4.26.88-8.45,1.11-12.59.23-4.13.3-8.31.24-12.52-.02-6.73-.15-13.4-.4-20.01-.25-6.61-.32-13.29-.22-20.02.12-1.52.45-3.07.98-4.67.53-1.59,1.5-3.1,2.93-4.51.99-.98,2.18-1.89,3.58-2.75,1.4-.86,2.88-1.54,4.43-2.05,1.55-.51,3.11-.83,4.68-.94.42-.03.82-.05,1.21-.05,1.08,0,2.07.12,2.95.35.84.34,1.5.85,1.96,1.52.46.67.75,1.43.87,2.27.12.85.18,1.72.19,2.62,0,.9-.02,1.71-.09,2.42-.13,3.02-.16,5.86-.09,8.52.07,2.66-.05,5.86-.36,9.59-.23,1.62-.34,2.96-.32,4.02.02,1.05-.13,2.75-.42,5.08-.14,1.32-.22,2.63-.24,3.94-.02,1.31-.11,2.57-.25,3.79-.07.71-.1,1.51-.09,2.42,0,.9.04,1.73.09,2.48.05.75.25,1.39.58,1.92.3.49.72.73,1.24.73.04,0,.09,0,.13,0,.11,0,.21.01.32.01,1.26,0,2.23-.56,2.91-1.68.73-1.21,1.35-2.38,1.86-3.52.91-1.97,1.77-3.92,2.57-5.84.8-1.92,1.53-3.9,2.21-5.96,1.57-4.23,2.93-8.47,4.09-12.73,1.16-4.25,2.05-8.56,2.67-12.93.17-.82.29-1.68.34-2.59.05-.91.16-1.77.34-2.59.4-2.54,1.25-4.96,2.55-7.27,1.3-2.3,3.71-4.29,7.22-5.95,1.93-.94,3.9-1.59,5.93-1.94.99-.17,1.97-.25,2.93-.25m0-15c-1.8,0-3.64.16-5.46.47-3.41.59-6.74,1.67-9.9,3.2-6.22,2.96-10.81,6.95-13.66,11.87-1.36-1.02-2.86-1.87-4.47-2.53l-.9-.36-.94-.25c-2.12-.55-4.39-.84-6.75-.84-.75,0-1.52.03-2.29.08-2.81.2-5.6.76-8.32,1.67-2.64.88-5.16,2.05-7.52,3.48-2.38,1.45-4.52,3.1-6.33,4.89-3.11,3.08-5.34,6.6-6.61,10.45-.9,2.71-1.47,5.46-1.69,8.16l-.04.5v.5c-.11,6.96-.03,13.96.22,20.8.24,6.41.37,12.97.39,19.5v.1s0,.1,0,.1c.06,3.86,0,7.72-.21,11.45-.21,3.72-.55,7.6-1.01,11.52-1.13,8.59,2.04,16.48,8.73,21.66,4.9,3.81,11.04,5.74,18.24,5.74.63,0,1.28-.02,1.93-.05,4.13-.14,8.05-1.02,11.67-2.64,3.07-1.38,5.89-3.1,8.39-5.13,2.25-1.83,4.34-3.89,6.21-6.14,1.61-1.95,3.06-3.92,4.32-5.86,1.69-2.58,3.38-5.06,5.04-7.39,2.14-3,4.09-6.15,5.8-9.35,4.68-8.24,8.92-16.81,12.59-25.49,2.33-5.25,4.38-10.24,6.07-14.84,1.7-4.61,3.27-9.42,4.66-14.29.59-1.81,1.17-3.68,1.71-5.57.63-2.21,1.16-4.4,1.58-6.52l.11-.56.07-.57c.14-1.17.28-2.31.43-3.43.36-2.77.29-5.44-.21-7.96v-.02s0-.02,0-.02c-.71-3.58-2.37-6.9-4.81-9.6-2.73-3.02-6.31-5.06-10.64-6.08l-.3-.07-.31-.06c-1.89-.36-3.84-.54-5.78-.54h0Z"/>
        </g>
      </g>
      <path class="cls-20" d="m1060.04,1109.61c-3.9,15.38-13.76,29.75-28.83,41.58-20.59,16.17-48.4,25.69-78.32,26.79-9.56.35-18.97-.17-28.06-1.52-5.54,27.67-37.69,49.81-77.24,51.27-20.54.76-39.51-4.2-54.06-12.94-14.83,24.37-47.68,42.06-86.31,43.49-35.8,1.32-67.67-11.65-85.36-32.03-1.35,1.18-2.74,2.34-4.19,3.48-20.57,16.14-48.36,25.64-78.25,26.75-29.89,1.11-58.31-6.32-80.01-20.9-.87-.59-1.73-1.19-2.57-1.79-8.83,7.64-21.8,12.72-36.39,13.26-23.08.85-42.95-9.93-49.1-25.25-20.84-.17-39.91-5.78-54.54-15.05-11.28,21.6-39.41,37.58-72.8,38.81-36.23,1.34-67.56-15.09-78.38-38.75-6.42,1.29-13.12,2.1-20.01,2.35-44.47,1.64-82.52-20.07-92.11-50.33-1.7,5.42-2.51,11.07-2.3,16.85,1.36,36.88,43.72,65.36,94.41,63.48,6.89-.25,13.59-1.06,20.01-2.35,10.82,23.66,42.15,40.09,78.38,38.75,33.39-1.23,61.52-17.21,72.8-38.81,14.63,9.27,33.7,14.89,54.54,15.05,6.15,15.33,26.03,26.11,49.1,25.25,14.59-.54,27.56-5.62,36.39-13.26.84.6,1.7,1.2,2.57,1.79,21.71,14.58,50.12,22,80.01,20.9,29.89-1.11,57.68-10.6,78.25-26.75,1.45-1.14,2.84-2.3,4.19-3.48,17.69,20.38,49.55,33.35,85.36,32.03,38.63-1.43,71.48-19.12,86.31-43.49,14.55,8.75,33.52,13.7,54.06,12.94,39.54-1.46,71.7-23.6,77.24-51.27,9.09,1.35,18.5,1.87,28.06,1.52,29.92-1.11,57.73-10.62,78.32-26.79,20.59-16.17,31.48-37.07,30.68-58.83-.16-4.33-.79-8.59-1.85-12.75Z"/>
      <path class="cls-13" d="m945.62,1039.61c-2.82,1.39-5.45,2.2-7.88,2.45-2.44.24-5.08.99-7.9,2.25-1.64.78-2.85,1.52-3.64,2.24-.79.72-1.43,1.48-1.91,2.31-.48.82-.83,1.81-1.05,2.94-.23,1.14-.51,2.5-.85,4.11-1.7,6.17-3.14,12.29-4.31,18.36-1.17,6.07-2.31,12.17-3.4,18.29-.45,2.27-.86,4.6-1.22,6.99-.37,2.39-.77,4.72-1.22,6.99-.38,3.18-.86,6.67-1.43,10.46-.57,3.79-1.05,7.28-1.43,10.46-.29,2.39-.61,4.88-.96,7.47-.35,2.59-.75,5.02-1.2,7.29-.58,2.67-1.48,5.01-2.72,7-1.24,1.99-3.44,3.37-6.61,4.13-7.1,1.7-12.49.44-16.17-3.76-2.02-2.48-3.2-6.01-3.53-10.59-.33-4.58.11-10.07,1.34-16.47.33-1.86.68-3.76,1.08-5.7.4-1.93.82-3.97,1.28-6.11.85-3.08,1.61-6.39,2.27-9.93.67-3.53,1.24-7.16,1.75-10.88.65-3.73,1.22-6.99,1.71-9.79.49-2.8,1-5.72,1.55-8.79.08-.92.3-2.22.64-3.89.34-1.67.57-3.26.69-4.78.12-1.52,0-2.76-.38-3.72-.38-.96-1.1-1.33-2.16-1.13-3.03.61-19.12,6.33-22.29,7.15-3.17.82-5.86.79-8.07-.1-1.74-.66-2.8-2.13-3.2-4.4-.4-2.27-.43-4.34-.11-6.21.31-2.12,1.04-4.15,2.21-6.08,1.16-1.92,2.49-3.27,3.97-4.03,2.97-1.4,19.37-7.76,23.18-9.09,3.82-1.33,7.15-2.49,10-3.49,2.54-.97,5.15-1.98,7.84-3.03,2.69-1.05,5.45-2.07,8.3-3.07,3.89-1.33,8.02-2.68,12.37-4.05,4.35-1.37,8.59-2.27,12.7-2.7,3.34-.5,6.61-.41,9.81.27,3.2.69,5.56,2.1,7.1,4.22,1.81,1.71,2.59,4.02,2.35,6.93-.48,1.88-1.46,3.63-2.96,5.24-1.49,1.62-3.35,3.04-5.57,4.25Z"/>
      <g>
        <g id="axjgnT.tif">
          <g>
            <path class="cls-8" d="m744.1,502.52c-.1-4.36-.6-8.46-4.84-10.71-4.73-2.51-11.66-1.32-16.8-1.39-7.12-.08-14.24-.13-21.36,0-11.03.2-20.79,1.42-30.04,7.91-3.97,2.78-6.81,6.47-10.46,9.53-4.29,3.59-12.72,2.66-18.03,2.18-5.02-.46-7.07-3.87-11.24-5.87-4.03-1.93-9.15-1.25-12.77,1.28-4.66,3.25-5.36,4.64-11.5,4.62-7.13-.01-14.26-.02-21.39-.03-13.51-.01-27.02-.02-40.54,0-6.76,0-13.51,0-20.27.02-5.22,0-13.91,1.61-18.77-.52-4.4-1.93-6.06-6.03-11.53-6.35-5.95-.35-7.93,3.62-12.56,5.97-4.61,2.34-12.04.9-17.15.9-5.95,0-11.76,1.11-16.4-3.05-8.07-7.23-15.36-13.69-26.44-15.75-12.24-2.27-25.75-.83-38.16-.77-9.44.05-17.71.09-18.14,11.47-.24,6.37-.04,12.79-.02,19.16.01,3.99-.53,9,2.72,12,3.4,3.13,9.34,2.33,13.51,2.36,5.9.03,11.91,0,17.69.01,11.32.02,22.68,1.15,33.12-4.07,4.28-2.14,8.17-4.97,11.78-8.1,1.88-1.63,3.68-3.98,5.96-5.01,2.94-1.32,6.65-.84,9.81-.87,4.69-.04,12.9-1.48,17.31.12,4.53,1.64,1.41,9.01.86,12.82-.87,6.07-1.73,12.15-2.58,18.22-.79,5.62-2.86,12.26-1.52,17.9,1.23,5.19,5.37,8.18,9.17,11.52,5.24,4.61,10.42,9.28,15.67,13.87,8.39,7.34,15.16,15.73,19.79,25.93,2.02,4.45,3.53,10.49,2.15,15.41-.51,1.81.03,2.24-2.24,2.59-2.6.4-6.34-1.78-8.78-2.58-5.82-1.91-11.69-4.25-17.69-5.56-3.66-.8-10.49.72-10.55-3.71-.11-9.81,5.26-18.74.97-28.39-8.36-18.8-38.01-21.1-48.82-3.09-5.55,9.24-2.78,20.08,1.58,29.14,1.55,3.23,5.94,8.65,3.58,11.44-1.41,1.66-5.63,2.85-7.62,3.87-3.17,1.63-6.32,3.29-9.46,4.96-4.03,2.14-9.84,7.68-13.7,3.99-4.5-4.29-6.91-10.96-11.16-15.55-2.78-3-6.65-4.73-10.77-4.26-1.73.2-3.42.79-4.92,1.68-2.22,1.32-3.36,4.59-5.27,5.67-2.13,1.21-1.67.73-3.72-1.49-1.54-1.66-3.15-3.21-4.99-4.54-4.33-3.14-9.34-4.99-14.49-6.27-5.91-1.47-11.87-2.78-17.8-4.2-4.73-1.13-12.05-4.39-16.86-2.25-3.84,1.71-4.63,6.15-5.54,9.8-1.4,5.61-4.45,12.52-4.46,18.32,0,4.61,3.34,7.08,7.32,8.32,6.3,1.96,12.93,3.16,19.33,4.76,12.9,3.23,22.85,5.48,35.44-.26,4.12-1.88,8.54-5.66,12.73-2.19,4.19,3.48,7.53,10.15,10.7,14.57,3.09,4.29,6.17,8.5,11.93,8.84,5.69.34,11.26-3.94,15.95-6.64,3.35-1.92,6.91-5.54,8.8-.79,2.44,6.14,2.79,14.15,4.12,20.65.46,2.26,2,5.71.86,7.99-.49.98-2.56,1.67-2.79,2.44-.16.54-.23.56-.12,1.19.26,1.45-25.53,21.89-24.51,22.72,15.39,12.49,62.73,2.63,80.1,11.95l227.16,6.95c4.06-1.58,8.12-3.17,12.19-4.75-3.74-1,8.29-24.98,9.31-27.49,1.52-3.72,2.88-6.88,1.83-10.41-3.16-10.57.66-22.6-2.05-33.36-2.6-10.34-15.13-14.96-23.16-20.41-5.03-3.41-10.01-7.36-15.52-9.96-1.96-.92-4.6-1.3-6.41-2.47-2.71-1.75-1.96-2.27-.7-5.25,4.26-10.07,9.57-19.82,6.33-31.08-2.73-9.48-10.94-14.69-20.22-16.47-8.49-1.63-17.87-.61-24.41,5.46-8.1,7.52-8.9,18.61-7.14,28.91.51,2.97,3.75,10.78.79,12.46-1.76,1-6.77.61-8.81.98-3.35.61-6.63,1.55-9.92,2.44-5.5,1.49-11.06,2.6-16.6,3.93-2.51.61-10.23,4.03-12.39,1.79-2.36-2.45-.76-10.95-.13-13.82,1.11-5.05,3.49-9.73,6.39-13.98,6.63-9.7,15.57-18.17,24.43-25.82,8.11-7.01,16.56-12.12,16.32-23.96-.23-11.44-3.08-23.54-4.86-34.85-.82-5.24-1.81-7.55,4.19-7.72,6.43-.18,12.77-1.19,17.72,3.36,7.34,6.75,15.42,12.4,25.44,14.15,11.72,2.05,24.74.39,36.63.47,4.84.03,11.52,1.15,15.76-1.75,3.99-2.74,3.62-7.59,3.66-11.88.06-6.43.13-12.88-.02-19.32Zm-231.55,197.58c-2.25-.22-7.43.28-9.06-1.71-1.54-1.88-1.18-32.08-1.34-34.46-.25-3.78-1.06-6.6,3.29-6.34,1.98.12,4.47,1.1,6.21,2.03,4.47,2.41,11.76,31.75,12.89,36.32,1.18,4.78-7.54,4.33-11.99,4.15Zm185.56-22.63c.71-2.4,1.04-7.18,4.12-7.61,1.74-.24,4.45,1.67,5.77,2.72,3.64,2.91,4.71,7.27,4.85,11.75,0,1.8.98,7.14-.94,8.29-1.65.99-7.21-1.75-9-2.3-2.16-.66-6.03-1.04-6.94-3.48-.83-2.24,1.48-7.15,2.14-9.37Zm-72.42-18.96c2.51.47,2.62,1.17,2.7,4.06.08,3.09.24,4.12-2.64,4.61-3.07.52-9.82-2.13-12.11-4.02,2.13-1.67,9.11-5.19,12.05-4.65Zm-26.76,9.91c1.94-1.55,11.95,2.72,14.3,3.35,3.41.9,11.99,1.52,13.71,4.96.96,1.93.78,24.45-.49,26.2-2.13,2.93-7.59.39-10.9-.23-4.49-.85-9.03-1.61-13.49-2.62-5.3-1.2-3.88-16.96-4.02-21.81,0-2.25-1.09-8.25.9-9.84Zm19.17-111.95c-.58,3.29-3.73,5.38-6.05,7.48-5.04,4.55-10.19,10.16-16.86,12.2-2.7.83-5.91,1.38-8.75,1.12-5.07-.47-2.87-2.72-1.94-6.33.66-2.55.72-5.22,1.36-7.77.63-2.51,2.32-4.38,2.99-6.75,1.62-5.71-.16-14.36-2.54-19.69-5.61-12.54-20.43-15.86-32.87-13.86-14.28,2.3-23.96,13.77-22.99,28.71.3,4.62,2.85,8.29,3.96,12.68.65,2.58,3.64,9.38,2.79,11.59-1.89,4.93-15.87-.53-18.66-2.83-3.19-2.62-6.35-5.28-9.44-8.02-1.99-1.76-5.56-4.13-6.77-6.56-1.4-2.83-.23-6.55.18-9.46.66-4.67,1.37-9.34,2.07-14.01.54-3.59,1.09-7.18,1.62-10.77.23-1.55.12-4.94,1.47-6.13,1.37-1.22,4.79-.62,6.38-.63,4.35-.01,8.69,0,13.04,0,15.56,0,30.85-.23,46.18-.23,7.53,0,15.06.03,22.59.11,4.33.04,9.03-.41,13.31.16,3.55.47,3.77,1.37,4.38,4.99,1.35,7.97,2.31,16.05,3.41,24.06.42,3.06,1.67,6.9,1.13,9.95Z"/>
            <path class="cls-8" d="m563.65,647.01c0,7.53.06,15.05.02,22.58-.04,6.69-1.65,11.34,5.88,12.61,3.72.63,7.45,1.13,11.18,1.72,2.24.35,7.37,2.27,9.3.62,1.71-1.47.82-6.36.82-8.2,0-4.14-.01-8.28-.02-12.42,0-7.52,0-15.05-.03-22.57-.01-4.07.36-8.37-.06-12.42-.35-3.4-1.73-4.24-3.79-6.75-4.13-5.03-4.82-11.99-5.36-18.28-.5-5.78,2.61-14.36-1.06-18.93-3.29,3.91-2.73,10.28-4.31,15.16-1.48,4.56-3.91,8.7-8.06,11.29-2.28,1.42-3.73,1.61-4.34,4.45-.64,2.94-.14,6.4-.16,9.42-.03,7.25,0,14.49,0,21.74Z"/>
            <path class="cls-22" d="m712.48,498.24c-8.4,0-17.91-1.27-26.08,1-5.75,1.6-15.32,6.52-18.54,11.82-3.22,5.3,8.8,11.57,12.87,13.63,7.67,3.88,15.37,3.39,23.72,3.32,9.15-.07,18.38.47,27.52.07,6.29-.27,4.81-4.78,4.82-10.16,0-4.09.01-8.17,0-12.26,0-2.1.59-5.49-1.26-7-1.55-1.26-6.38-.44-8.22-.44-4.94,0-9.88,0-14.83,0Z"/>
            <path class="cls-15" d="m397.42,498.24c-4.53,0-9.07.03-13.6.02-2.62,0-7.83-1.19-9.88.87-2.02,2.03-.88,7.11-.86,9.69.02,4.41-.06,8.83-.03,13.24.02,2.77-.37,4.9,2.53,5.93,2.97,1.06,8.13.08,11.33.09,8.99.02,17.99.07,26.98-.05,7.44-.1,13.59-1.63,19.76-5.93,2.5-1.74,6.61-4.15,8.21-6.78,1.99-3.28-.34-4.83-2.94-6.99-5.26-4.36-11.1-8.27-17.9-9.64-7.46-1.5-16.01-.47-23.6-.46Z"/>
            <path class="cls-8" d="m681.96,640.42c-8.06,1.62-14.76,4.29-22.56.17-3.6-1.9-10.3-7.83-11.45-.87-1.37,8.33-1,16.61-5.11,24.33-1.09,2.06-4.68,4.84-3.29,6.93,1.16,1.75,9.65,3.08,11.76,3.73,8.22,2.53,16.44,5.09,24.69,7.55,4.53,1.35,15.56,5.75,13.2-3.97-.72-2.97-3.46-5.4-4.21-8.64-.79-3.42-.67-7.03-.48-10.51.26-4.78,1.33-9.48,1.63-14.24.26-4.06-.39-4.02-4.19-4.46Z"/>
            <path class="cls-8" d="m556.23,646.3c0-6.79-.02-13.57,0-20.36,0-5.81,1.61-10.93-3.76-14.12-4.24-2.52-6.78-5.83-8.5-10.47-2.01-5.44-1.42-11.72-4.89-16.41-3.2,5.98-1.17,14.99-1.41,21.72-.2,5.64-1,11.53-5.03,15.82-2.36,2.51-3.43,2.9-3.64,6.56-.13,2.33-.84,7.28.33,9.37,1.14,2.04,3.98,3.04,5.4,5.13,1.57,2.31,2.31,5.07,3.16,7.69,2.05,6.36,4.11,12.7,6.01,19.1,1.53,5.12,2.95,10.46,9.7,8.99,3.75-.82,2.65-4.98,2.65-8.22,0-8.27,0-16.54,0-24.81Z"/>
            <path class="cls-12" d="m530.77,596.76c-.25-3.3.68-10.07-2.48-12.04-1.57-.98-4.53-.83-6.34-1.4-2.14-.67-4.18-1.61-6.1-2.77-4.37-2.65-8.07-6.46-11.88-9.83-3.04-2.7-8.93-6.03-9.99-10.19-1.19-4.64,1.12-11.43,1.76-16.12.71-5.19,1.41-10.38,2.1-15.57.56-4.15,2.68-10.96.88-14.97-1.56-3.48-6.33-4.33-8.93-1.5-2.93,3.18-2.78,10.16-3.37,14.22-.81,5.64-1.6,11.28-2.39,16.92-.7,4.93-1.47,9.86-2.12,14.8-.74,5.55.13,8.04,4.29,11.81,8.41,7.61,17.44,14.74,25.32,22.91,3.4,3.53,6.35,7.47,8.93,11.63,2.36,3.81,3.93,8.1,6.93,11.44,3.45-5.13,3.38-13.27,3.38-19.33Z"/>
            <path class="cls-12" d="m588.76,601.27c.84,5.01,1.04,10.38,3.61,14.8,3.12-3.71,5.07-7.96,7.58-12.08,2.74-4.48,6.34-8.13,10.05-11.82,7.91-7.87,16.28-15.25,24.46-22.82,4.3-3.98,4.04-6.7,3.24-12.33-.84-5.89-1.66-11.77-2.49-17.66-.83-5.89-1.63-11.78-2.51-17.66-.56-3.76-.91-10.47-5.82-11.14-11.1-1.51-4.73,19.52-4.03,24.52.82,5.91,1.7,11.8,2.53,17.71.61,4.36,1.09,8.13-2.2,11.55-3.36,3.49-7.66,6.42-11.25,9.74-3.45,3.19-6.89,6.14-11.23,8.07-3.5,1.56-9.31,1.35-10.82,5.37-1.47,3.9-.82,9.64-1.13,13.76Z"/>
            <path class="cls-15" d="m355.13,652.49c4.74-.48,12.32-2.03,15.91-5.44,3.53-3.34-3.5-9.32-6.18-11.75-8.63-7.81-21.88-8.5-32.74-11.24-2.45-.62-6.31-2.4-8.77-2.15-2.56.25-2.5,1.78-3.14,4.22-.88,3.35-5.39,14.34-2.78,17.21,1.65,1.82,6.94,2.19,9.25,2.76,3.18.79,6.36,1.56,9.54,2.33,6.2,1.5,12.55,3.55,18.92,4.07Z"/>
            <path class="cls-8" d="m444.39,641.73c-.29,5.44-1.58,14.99,3.4,18.97,1.68,1.34,5.92,1.56,7.93,2.06,3.83.95,7.66,1.89,11.5,2.83,7.32,1.8,14.64,3.58,21.97,5.34,2.18.53,6.96,1.85,4.96-2.05-1.01-1.97-4.94-3.9-6.38-5.99-2.97-4.32-4.04-9.5-4.81-14.61-.54-3.6-.07-12.89-4.3-13.39-2.65-.32-5.14,2.31-7.19,3.53-2.94,1.74-6.2,2.9-9.62,3.13-5.95.41-13.64-4.72-18.49-.22.34.13.67.26,1.01.39Z"/>
            <path class="cls-15" d="m551.28,552.69c-3.13-.26-10.74,1.52-12.6-1.68-1.72-2.95,1.01-10.1,2.6-12.65,5.22-8.39,16.48-9.58,25.42-7.82,7.39,1.46,12.9,6.84,14.28,14.28.75,4.04,1.26,7.37-3.25,7.78-5.13.46-10.44-.14-15.6,0"/>
            <path class="cls-8" d="m633.94,689.79c-.48,5.58,6.3,5.51,10.44,6.52,6.14,1.5,12.26,3.03,18.39,4.59,3.24.82,6.48,1.65,9.72,2.49,2.32.6,5.85,2.29,8.23,2.06,2.94-.29,5.15-7.48,4.78-10.36-.52-4.15-8.5-4.79-11.61-5.72-5.87-1.75-11.74-3.5-17.62-5.25-5.61-1.67-11.38-4.04-17.15-5.02-5.86-1-4.68,6.41-5.17,10.71Z"/>
            <path class="cls-12" d="m488.46,637.44c1.32,5.76,1.74,14.76,5.36,19.46,3.61-4.68,4.9-7.89,11.53-6.69,4.94.89,13.68,2.24,16.2,6.88,1.54,2.83,2.35,6.56,3.34,9.63.84,2.64,1.15,6.83,3.21,8.83,1.64,1.59,8.27,2.93,9.28.25.53-1.41-1.2-4.78-1.61-6.06-1.03-3.28-2.1-6.55-3.14-9.83-1.8-5.7-2.42-11.99-8.55-14.44-6.73-2.69-14.16-4.25-21.09-6.42-3.11-.97-13.91-7.08-14.53-1.61Z"/>
            <path class="cls-15" d="m684.81,610.68c2.87.13,4.77.6,5.92-2.1,1.2-2.82-.38-7.9-1.66-10.44-3.88-7.71-14.22-10.63-22.31-9.48-4.55.64-8.94,3.06-11.47,6.97-1.5,2.31-4.42,8.2-1.91,10.49,2.69,2.46,12.01,2.04,15.64,2.52,5.26.69,10.53,1.36,15.79,2.05Z"/>
            <path class="cls-12" d="m559.63,560.31c-2.86,0-5.73.03-8.59.03-2.02,0-5.87-.81-7.73,0-3.1,1.38-1.81,5.13-.89,7.82,2.54,7.42,9.52,14.41,17.78,14.23,8.65-.18,14.22-6.91,16.83-14.5,1.3-3.8,2.86-6.67-1.69-7.62-1.28-.27-15.7.37-15.7.03Z"/>
            <path class="cls-15" d="m438.47,603.52c0,2.4-.53,5.68,2.08,6.63,3.68,1.34,10.78-1.25,14.48-1.79,6.04-.88,12.55-1.24,18.46-2.77,3.66-.95,3.28-2.75,2.16-6.21-5.62-17.35-36.3-14.38-37.18,4.14Z"/>
            <path class="cls-12" d="m598.01,653.12c0,2.27-.51,5.35,2.1,5.92,3.5.77,10.82-3.67,13.95-4.78,4.25-1.5,10.21-4.79,14.83-3.64,4.16,1.03,5.22,4.89,7.62,7.87,1.71-2.61,1.79-6.15,2.32-9.21.4-2.26,2.76-9.05,1.67-11.11-1.74-3.29-14.24,1.74-17.36,2.48-6.94,1.66-14.52,2.63-21.23,5.04-4,1.43-3.91,3.3-3.91,7.43Z"/>
            <path class="cls-12" d="m653.6,617.54c.43,15.18,18.95,25.46,28.68,10.9,1.11-1.66,5.2-7.21,4.03-9.29-.98-1.75-9.08-1.92-11.06-2.2-4.7-.67-9.43-1.19-14.14-1.81-2.49-.33-8.22-2.05-7.51,2.4Z"/>
            <path class="cls-12" d="m460.17,634.25c8.63-.24,14.23-8.19,15.04-16.08.72-7.09-4.79-4.62-9.93-3.72-4.9.86-9.84,1.44-14.77,2.11-3.31.45-7.38-.16-7.04,3.8.64,7.36,9.84,14.08,16.71,13.89Z"/>
            <path class="cls-12" d="m730.34,699.55c-.16-6.19-.33-12.38-.49-18.56-.12-4.6.67-9.95-1.76-14.05-1.47-2.48-18.89-15.86-22.31-14.42-1.36.57-4.34,4.97-4.58,6.38-.43,2.5,13.93,11.05,15.32,12.96,2.94,4.03,3.4,8.29,3.56,13.11.21,6.27.11,12.59.84,18.83.41,3.49,1.72,7.9,6.38,6.35,3.07-1.02,4.79-10.61,3.05-10.58Z"/>
            <path class="cls-8" d="m440.66,677.67c.53,3.58.12,10.69,2.05,13.76,2.25,3.58,6.96-.76,10.06-2.38,4.37-2.28,8.72-4.6,13.14-6.79,3.85-1.91,8.12-3.05,11.52-5.69-6.71-4.14-16.99-4.96-24.64-6.89-2.78-.7-5.22-1.94-7.42.24-1.7,1.68-3.35,5.65-4.71,7.75Z"/>
            <path class="cls-12" d="m559.6,606.65c5.53-.7,8.17-4.9,9.64-9.86.45-1.51,2.4-6.4,1.51-7.87-1.09-1.8-6.11.44-7.96.63-3.41.36-6.5-.22-9.86-.66-3.13-.41-3.74-.45-3.34,2.71.4,3.12,1.96,7.54,3.57,10.24,1.6,2.68,3.85,3.21,6.43,4.81Z"/>
            <path class="cls-12" d="m691.65,658.25c0,2.9.38,5.54.85,8.42,2.38-2.09,4.59-4.48,7.9-4.85,2.34-.26,4.6,1.49,6.73,1.21,3.6-.47,5.44-6.71,3-9.16-2.03-2.04-5.23-3.48-7.61-5.12-1.65-1.13-4.95-4.62-6.95-4.62-3.78,0-3.5,11.11-3.93,14.11Z"/>
            <path class="cls-12" d="m438.91,656.67c-.45-2.37-.82-11.52-2.94-12.81-2.72-1.65-9.96,4.23-12.45,5.67-5.34,3.08-5.26,3.95.77,5.48,4.7,1.19,10.13,3.7,14.63,1.66Z"/>
            <path class="cls-12" d="m407.65,669.37c2.06-1.19,12.41-5.66,10.58-8.02-.49-.63-5.65-1.43-6.46-1.63-2.88-.72-5.75-1.42-8.63-2.11-5.07-1.22-9.42-3.07-4.94,2.85,2.84,3.76,4.79,7.89,9.47,8.92Z"/>
            <path class="cls-12" d="m382.43,637.91c1.8,7.67,10.52,10.94,17.6,10.53-1-4.01-5.03-9.13-7.94-12.04-4.1-4.09-6.41-1.93-9.66,1.51Z"/>
            <path class="cls-15" d="m712.48,498.24c-8.4,0-17.91-1.27-26.08,1-5.75,1.6-15.32,6.52-18.54,11.82-3.22,5.3,8.8,11.57,12.87,13.63,7.67,3.88,15.37,3.39,23.72,3.32,9.15-.07,18.38.47,27.52.07,6.29-.27,4.81-4.78,4.82-10.16,0-4.09.01-8.17,0-12.26,0-2.1.59-5.49-1.26-7-1.55-1.26-6.38-.44-8.22-.44-4.94,0-9.88,0-14.83,0Z"/>
            <path class="cls-7" d="m783.78,707.81c-8.32-1.18-17.56-3.76-25.97-2.65-5.92.78-16.08,4.32-20.01,9.12-3.93,4.8,7.1,12.69,10.84,15.3,7.05,4.92,14.74,5.5,23.02,6.6,9.07,1.21,18.13,3.03,27.24,3.92,6.26.61,5.43-4.06,6.19-9.39.58-4.05,1.16-8.09,1.71-12.14.29-2.08,1.35-5.36-.27-7.11-1.36-1.47-6.26-1.32-8.08-1.58-4.89-.7-9.79-1.38-14.68-2.07Z"/>
          </g>
        </g>
        <g>
          <circle class="cls-6" cx="475.44" cy="727.47" r="28.29"/>
          <g>
            <circle class="cls-6" cx="642.99" cy="727.47" r="28.29"/>
            <path class="cls-6" d="m745.71,722.76s-31.51,28.29-47.14,28.29-28.29-12.66-28.29-28.29,12.66-28.29,28.29-28.29,47.14,28.29,47.14,28.29Z"/>
            <path class="cls-6" d="m445.93,722.76c0,15.62-12.66,28.29-28.29,28.29s-47.14-28.29-47.14-28.29c0,0,31.51-28.29,47.14-28.29s28.29,12.66,28.29,28.29Z"/>
            <circle class="cls-8" cx="531.02" cy="722.76" r="28.29"/>
            <circle class="cls-8" cx="586.61" cy="722.76" r="28.29"/>
          </g>
        </g>
        <g>
          <circle class="cls-6" cx="455.75" cy="749.63" r="33.99"/>
          <g>
            <circle class="cls-6" cx="657.1" cy="749.63" r="33.99"/>
            <circle class="cls-6" cx="723.9" cy="749.63" r="33.99"/>
            <circle class="cls-6" cx="386.29" cy="749.63" r="33.99"/>
            <circle class="cls-6" cx="522.55" cy="749.63" r="33.99"/>
            <circle class="cls-6" cx="589.35" cy="749.63" r="33.99"/>
          </g>
        </g>
      </g>
      <path class="cls-13" d="m762.76,1106.62c.08,1.11.3,1.65.66,1.62.36-.03,1.09-.33,2.21-.9,3.48-1.73,6.97-3.31,10.47-4.74,3.5-1.43,6.95-2.57,10.35-3.44,4.1-1.16,6.94-.72,8.54,1.33,1.59,2.05,2.16,4.88,1.7,8.49-.49,3.25-1.64,6.17-3.47,8.77-1.46,1.84-2.85,2.93-4.2,3.27-1.35.35-3,.9-4.97,1.66-3.53,1.12-6.9,2.29-10.13,3.51-3.23,1.22-6.64,2.89-10.24,5-1.53.85-2.91,1.67-4.15,2.43-1.24.77-2.23,2.05-2.97,3.83-.48,1.39-.79,2.59-.93,3.59-.14,1-.32,2.13-.51,3.37-.06,1.24-.08,2.41-.07,3.53,0,1.11.15,2.03.42,2.75.27.72.77,1.18,1.51,1.37.73.2,1.87-.01,3.42-.62,1.95-.88,4.01-1.8,6.18-2.76,2.17-.96,4.34-1.83,6.52-2.6,2.18-.78,4.3-1.33,6.37-1.67,2.07-.34,4.12-.33,6.17.02,2.48.44,4.61,1.89,6.38,4.36,1.76,2.47,2.39,5.08,1.87,7.83-.56,2.26-1.79,4.14-3.7,5.64-1.63,1.35-3.64,2.49-6.03,3.4-2.39.91-4.56,1.75-6.53,2.51-2.39.92-4.7,1.82-6.94,2.73-2.24.9-4.47,2.11-6.66,3.63-2.48,1.54-4.83,3.1-7.02,4.68-2.19,1.58-4.46,3.2-6.79,4.85-4.13,2.77-8.18,3.62-12.15,2.55-3.83-1.08-6.85-2.96-9.06-5.64-2.22-2.68-3.38-5.81-3.49-9.38-.12-3.57.05-7.23.5-10.97.45-3.74.97-7.48,1.57-11.23.72-4,1.4-7.51,2.05-10.52.65-3.01,1.21-5.68,1.69-8,.48-2.32.9-4.42,1.27-6.3.37-1.88.71-3.69,1.01-5.45.17-1.62.51-3.46,1-5.54.5-2.07.91-3.92,1.22-5.55.77-3.27,1.5-6.22,2.17-8.87.67-2.64,1.4-5.6,2.17-8.87.46-1.64,1.08-3.44,1.88-5.42.79-1.97,1.71-3.67,2.77-5.11,1.71-2.22,3.52-4.08,5.44-5.58,1.91-1.5,3.84-2.78,5.78-3.85,1.94-1.07,3.97-2.02,6.07-2.85,2.1-.83,9.9-5.44,21.9-8.44,13-3,18.69-4.99,23.97-6.67,5.29-1.68,10.38-2.57,15.28-2.68,2.16-.03,4.27.25,6.34.84,2.06.59,3.79,1.49,5.17,2.68,1.38,1.2,2.29,2.71,2.71,4.53.42,1.82.07,3.89-1.07,6.19-.87,1.92-2.21,3.4-4,4.46-1.8,1.06-3.79,1.91-5.98,2.57-2.19.65-19.42,5.19-21.7,5.6-2.28.41-14.26,2.87-15.96,3.36-1.83.63-3.74,1.23-5.71,1.8-1.98.58-3.91,1.27-5.8,2.09-1.89.82-3.62,1.84-5.19,3.06-1.57,1.23-2.94,2.69-4.12,4.38-1.43,2.21-2.72,4.8-3.87,7.78-1.16,2.99-1.58,5.52-1.29,7.6Z"/>
      <path class="cls-13" d="m607.33,1144.54c.08,1.09.29,1.62.65,1.59.35-.02,1.07-.32,2.17-.89,3.42-1.7,6.85-3.26,10.29-4.66,3.44-1.4,6.83-2.53,10.17-3.38,4.03-1.14,6.82-.7,8.38,1.3,1.56,2.01,2.12,4.79,1.67,8.34-.48,3.19-1.62,6.06-3.41,8.62-1.43,1.8-2.8,2.87-4.12,3.21-1.32.34-2.95.88-4.88,1.63-3.46,1.1-6.78,2.25-9.95,3.45-3.17,1.2-6.53,2.84-10.06,4.92-1.5.84-2.86,1.63-4.08,2.39-1.22.76-2.19,2.01-2.92,3.76-.47,1.37-.77,2.54-.91,3.52-.14.98-.31,2.09-.5,3.31-.05,1.22-.08,2.37-.07,3.46,0,1.09.14,1.99.41,2.7.26.71.75,1.16,1.48,1.35.72.19,1.84-.01,3.36-.61,1.92-.87,8.94-4.77,11.07-5.71,2.13-.94,17.26-7.79,19.4-8.56,2.14-.76,4.23-1.31,6.26-1.64,2.03-.33,4.05-.32,6.06.02,2.44.43,4.53,1.86,6.26,4.28,1.73,2.42,2.34,4.99,1.83,7.69-.55,2.22-1.76,4.07-3.64,5.54-1.6,1.33-3.58,2.44-5.92,3.34-2.35.9-4.48,1.72-6.41,2.47-2.35.9-17.62,7.79-19.82,8.68-2.2.89-4.39,2.08-6.54,3.57-2.44,1.51-9.74,6.05-11.89,7.6-2.16,1.55-4.38,3.14-6.67,4.76-4.05,2.72-8.03,3.56-11.93,2.5-3.76-1.06-6.73-2.91-8.9-5.54-2.18-2.63-3.32-5.7-3.43-9.21-.12-3.51.05-7.1.49-10.77.44-3.67.95-7.35,1.54-11.03.7-3.93,1.38-7.38,2.01-10.34s1.19-5.57,1.66-7.85c.47-2.28.89-4.34,1.25-6.19.36-1.85.69-3.63.99-5.35.17-1.59.5-3.4.99-5.44.49-2.04.89-3.86,1.2-5.46.76-3.21,1.47-6.11,2.13-8.71.66-2.6,1.37-5.5,2.13-8.71.45-1.61,1.06-3.38,1.85-5.32.78-1.94,1.68-3.61,2.72-5.02,1.68-2.18,3.46-4.01,5.34-5.48,1.88-1.47,3.77-2.73,5.68-3.78,1.91-1.05,3.89-1.98,5.96-2.8,2.07-.82,4.05-1.78,5.95-2.89,4.5-2.39,9.35-4.41,14.54-6.06,5.19-1.65,10.19-2.53,15.01-2.63,2.12-.03,4.2.24,6.22.82,2.03.58,3.72,1.46,5.08,2.63,1.36,1.18,2.24,2.66,2.66,4.45.41,1.79.06,3.82-1.05,6.08-.86,1.88-2.17,3.34-3.93,4.38-1.77,1.04-3.73,1.88-5.88,2.52-2.15.64-4.35,1.17-6.58,1.57-2.24.41-4.19.85-5.85,1.34-1.8.62-3.67,1.21-5.61,1.77-1.94.57-3.84,1.25-5.7,2.05-1.85.8-3.56,1.8-5.1,3.01-1.54,1.2-2.89,2.64-4.05,4.3-1.4,2.17-2.67,4.72-3.8,7.65-1.14,2.93-1.56,5.42-1.27,7.46Z"/>
      <path class="cls-13" d="m665.54,1144.08c-.02-6.73-.15-13.4-.4-20.01-.25-6.61-.32-13.29-.22-20.02.12-1.52.45-3.07.98-4.67.53-1.59,1.51-3.1,2.93-4.51.99-.98,2.18-1.89,3.58-2.75,1.4-.86,2.88-1.54,4.43-2.05,1.55-.51,3.11-.83,4.68-.94,1.58-.11,2.96-.01,4.16.3.84.34,1.5.85,1.96,1.52.46.67.75,1.43.87,2.27.12.85.18,1.72.19,2.62,0,.9-.02,1.71-.09,2.42-.13,3.02-.16,5.86-.09,8.52.07,2.66-.05,5.86-.36,9.59-.23,1.62-.34,2.96-.32,4.02.02,1.05-.13,2.75-.42,5.08-.14,1.32-.22,2.63-.24,3.94-.02,1.31-.11,2.57-.25,3.79-.07.71-.1,1.51-.09,2.42,0,.9.04,1.73.09,2.48.05.75.25,1.39.58,1.92.33.53.79.77,1.37.73,1.41.1,2.49-.46,3.22-1.67.73-1.21,1.35-2.38,1.86-3.52.91-1.97,1.77-3.92,2.57-5.84.8-1.92,1.53-3.9,2.21-5.96,1.57-4.23,2.93-8.47,4.09-12.73,1.16-4.25,2.05-8.56,2.67-12.93.17-.82.29-1.68.34-2.59.05-.91.16-1.77.34-2.59.4-2.54,1.25-4.96,2.55-7.27,1.3-2.3,3.71-4.29,7.22-5.95,1.93-.94,3.9-1.59,5.93-1.94,2.03-.35,3.99-.34,5.9.02,1.31.31,2.29.81,2.93,1.52.64.71,1.05,1.53,1.24,2.47.18.94.2,2,.05,3.16-.15,1.17-.3,2.36-.44,3.57-.34,1.73-.77,3.5-1.29,5.29-.52,1.8-1.06,3.57-1.64,5.32-1.31,4.62-2.77,9.12-4.39,13.5-1.62,4.39-3.54,9.07-5.76,14.05-3.51,8.29-7.5,16.36-11.97,24.22-1.45,2.72-3.07,5.35-4.88,7.89-1.81,2.54-3.61,5.19-5.41,7.93-.95,1.48-2.05,2.96-3.28,4.46-1.24,1.5-2.61,2.85-4.1,4.06-1.5,1.21-3.18,2.24-5.06,3.08-1.88.84-3.93,1.29-6.15,1.35-4.44.22-7.91-.63-10.39-2.56-2.49-1.93-3.5-4.57-3.04-7.92.51-4.26.88-8.45,1.11-12.59.23-4.13.3-8.31.24-12.52Z"/>
      <path class="cls-13" d="m837.12,1100.7c.21,1.45.44,2.77.69,3.95.25,1.18.49,2.31.73,3.39.24,1.08.56,2.21.97,3.38.41,1.17.98,2.41,1.72,3.73.25.44.53.97.84,1.59.31.62.64,1.13,1,1.51.35.39.74.55,1.16.47.42-.08.87-.55,1.35-1.41.76-1.34,1.28-2.64,1.57-3.9.28-1.26.53-2.63.75-4.12.21-1.48.41-2.79.6-3.9.19-1.12.35-2.18.49-3.21.14-1.02.3-2.09.49-3.21.19-1.12.39-2.42.6-3.9.44-2.79,1.27-5.77,2.49-8.93,1.22-3.17,3.52-5.84,6.9-8.01,3.6-2.19,7.19-3,10.77-2.43,1.85.33,3.05,1.02,3.61,2.08.56,1.06.89,2.28.99,3.65.22,1.55.06,3.01-.49,4.38-.54,1.37-1.19,2.87-1.93,4.48-.74,1.62-1.29,3.33-1.64,5.15-.35,1.82-.73,3.57-1.15,5.25-.24,1.12-.48,2.26-.72,3.43-.24,1.17-.42,2.35-.55,3.55-.62,3.26-1.12,6.45-1.48,9.55-.37,3.11-.75,6.28-1.16,9.53-.38,3.7-.56,7.42-.56,11.14,0,3.72.29,7.31.86,10.76.2,1.27.32,2.62.37,4.04.05,1.42-.47,2.81-1.55,4.18-1.38,1.75-3.32,3.05-5.84,3.87-2.52.83-4.95,1.28-7.31,1.36-2.14.06-3.99-.24-5.54-.91-1.55-.67-2.88-1.56-3.98-2.68-1.1-1.11-2.1-2.33-3-3.64-.9-1.31-1.72-2.58-2.45-3.82-.62-1.06-1.28-2.13-2.01-3.23-.72-1.1-1.4-2.22-2.02-3.37-.48-.7-1.11-1.64-1.9-2.83-.79-1.18-1.73-1.96-2.83-2.34-.65-.14-1.17.18-1.54.94-.37.76-.71,1.71-1,2.83-.3,1.12-.53,2.29-.71,3.5-.18,1.21-.35,2.19-.51,2.93-.49,2.15-.74,4.26-.75,6.33-.01,2.07,0,4.16.05,6.27-.05.74-.05,1.54.01,2.41.06.87.02,1.77-.13,2.7-.16.75-.4,1.5-.72,2.26-.32.76-.83,1.48-1.53,2.18-.8.79-1.83,1.39-3.09,1.81-1.26.41-2.53.67-3.81.76-2.67.19-4.95-.1-6.83-.88-2.67-1.28-4.4-3.01-5.21-5.21-.8-2.19-1.19-4.53-1.15-7.01-.15-2.1,0-4.36.47-6.79.4-1.87.83-3.76,1.28-5.68.45-1.91.88-3.81,1.28-5.67.9-3.92,2.02-7.73,3.36-11.41,1.34-3.68,2.31-7.38,2.9-11.1.56-2.61.74-5.38.52-8.31-.13-1.83-.32-3.63-.55-5.4-.24-1.77-.16-3.59.25-5.46.27-2.13,1.34-4.42,3.21-6.85.79-.97,1.91-2.07,3.38-3.28,1.47-1.21,3.06-2.27,4.76-3.17,1.71-.9,3.4-1.56,5.09-1.95,1.69-.4,3.2-.28,4.53.36,1.55.71,2.69,1.62,3.42,2.72.72,1.1,1.21,2.32,1.47,3.68.26,1.36.38,2.73.38,4.11,0,1.38.08,2.66.28,3.84Z"/>
    </g>
  </g>
</svg>
