<svg width="209" height="234" viewBox="0 0 209 234" fill="none" xmlns="http://www.w3.org/2000/svg">
<g opacity="0.5">
<path fill-rule="evenodd" clip-rule="evenodd" d="M65.0593 233.71C63.17 233.71 61.3581 232.957 60.0222 231.618C58.6863 230.279 57.9358 228.463 57.9358 226.569V209.841C38.0613 208.323 20.1813 203.646 5.88089 196.147C4.43345 195.351 3.1947 194.223 2.26607 192.854C1.33745 191.486 0.745353 189.916 0.538274 188.274C0.00640821 185.235 0.698049 182.109 2.46162 179.58C13.3893 164.135 23.3688 148.038 32.3446 131.377C29.5248 130.345 26.766 129.153 24.0814 127.807C22.5942 127.036 21.3113 125.922 20.3389 124.556C19.3665 123.19 18.7325 121.612 18.4895 119.951C18.2128 118.44 18.2371 116.89 18.5611 115.388C18.8851 113.887 19.5023 112.465 20.3772 111.203C29.0863 98.8051 36.9519 85.8324 43.9203 72.3735L42.2641 71.6593C40.7171 70.9359 39.3707 69.8431 38.343 68.4767C37.3153 67.1102 36.6376 65.512 36.3694 63.8219C36.0538 62.2903 36.0488 60.7108 36.3548 59.1772C36.6607 57.6437 37.2714 56.1875 38.1503 54.8955C48.3922 40.1017 56.6603 24.0288 62.7441 7.08551C63.35 5.11665 64.5693 3.39422 66.223 2.17074C67.8768 0.947258 69.8781 0.287109 71.9334 0.287109C73.9888 0.287109 75.99 0.947258 77.6438 2.17074C79.2976 3.39422 80.5168 5.11665 81.1227 7.08551C87.2033 24.0358 95.4715 40.1151 105.717 54.9133C106.595 56.2059 107.205 57.662 107.511 59.1954C107.816 60.7288 107.812 62.3082 107.497 63.8398C107.227 65.5316 106.547 67.1311 105.516 68.4977C104.485 69.8642 103.135 70.956 101.585 71.6772L99.9287 72.3913C106.879 85.8608 114.727 98.8454 123.418 111.257C124.293 112.518 124.911 113.94 125.234 115.442C125.558 116.943 125.583 118.494 125.306 120.005C125.063 121.665 124.429 123.244 123.457 124.61C122.484 125.976 121.201 127.09 119.714 127.86C117.03 129.207 114.271 130.399 111.451 131.431C120.427 148.092 130.406 164.189 141.334 179.633C143.142 182.144 143.885 185.27 143.4 188.328C143.21 189.973 142.625 191.547 141.694 192.915C140.763 194.284 139.515 195.405 138.057 196.183C124.255 203.413 105.663 208.287 86.2338 209.858V226.622C86.2338 228.516 85.4833 230.333 84.1474 231.672C82.8115 233.011 80.9996 233.763 79.1103 233.763L65.0593 233.71Z" fill="#046B42"/>
<path fill-rule="evenodd" clip-rule="evenodd" d="M169.533 116.973C168.583 116.973 167.672 116.596 167 115.925C166.328 115.254 165.951 114.344 165.951 113.395V105.012C155.957 104.251 146.966 101.907 139.775 98.1498C139.047 97.7509 138.424 97.1853 137.957 96.4996C137.49 95.8138 137.192 95.0273 137.088 94.2044C136.821 92.6815 137.168 91.1147 138.055 89.8475C143.55 82.1079 148.569 74.0411 153.082 65.6921C151.664 65.1749 150.277 64.5775 148.927 63.9028C148.179 63.5168 147.534 62.9584 147.045 62.2739C146.556 61.5894 146.237 60.7984 146.115 59.9663C145.976 59.2092 145.988 58.432 146.151 57.6797C146.314 56.9273 146.624 56.2146 147.064 55.5826C151.444 49.3695 155.399 42.8686 158.903 36.124L158.07 35.7662C157.292 35.4037 156.615 34.856 156.098 34.1713C155.582 33.4865 155.241 32.6856 155.106 31.8387C154.947 31.0712 154.945 30.2796 155.099 29.5111C155.252 28.7426 155.56 28.0129 156.002 27.3654C161.152 19.952 165.309 11.8975 168.369 3.40682C168.673 2.42019 169.287 1.55704 170.118 0.943927C170.95 0.330815 171.956 0 172.99 0C174.023 0 175.03 0.330815 175.861 0.943927C176.693 1.55704 177.306 2.42019 177.611 3.40682C180.668 11.901 184.826 19.9587 189.978 27.3744C190.419 28.0221 190.726 28.7518 190.88 29.5202C191.034 30.2886 191.031 31.0801 190.873 31.8476C190.738 32.6954 190.395 33.497 189.877 34.1818C189.359 34.8666 188.68 35.4137 187.9 35.7751L187.067 36.133C190.562 42.8828 194.509 49.3897 198.879 55.6094C199.319 56.2414 199.63 56.9541 199.793 57.7065C199.955 58.4589 199.968 59.236 199.829 59.9932C199.706 60.8252 199.388 61.6162 198.899 62.3007C198.41 62.9853 197.764 63.5436 197.017 63.9296C195.667 64.6046 194.279 65.202 192.861 65.7189C197.375 74.068 202.393 82.1348 207.888 89.8744C208.797 91.1324 209.171 92.6989 208.927 94.2313C208.832 95.0557 208.537 95.8446 208.069 96.5302C207.601 97.2159 206.974 97.7778 206.241 98.1677C199.3 101.791 189.951 104.233 180.181 105.021V113.421C180.181 114.371 179.803 115.281 179.132 115.952C178.46 116.623 177.549 117 176.599 117L169.533 116.973Z" fill="#046B42"/>
</g>
</svg>
